<?xml version="1.0" encoding="utf-8"?>
<!-- Generator: Adobe Illustrator 27.5.0, SVG Export Plug-In . SVG Version: 6.00 Build 0)  -->
<svg version="1.1" xmlns="http://www.w3.org/2000/svg" xmlns:xlink="http://www.w3.org/1999/xlink" x="0px" y="0px"
	 viewBox="0 0 500 500" style="enable-background:new 0 0 500 500;" xml:space="preserve">
<g id="BACKGROUND">
	<g>
		<rect style="fill:#F9FBFC;" width="500" height="500"/>
		<path style="fill:#DAE8EF;" d="M465.681,304.585l-15.767,110.71H48.998l-11.84-84.456c-1.317-9.463,3.914-18.632,12.743-22.303
			l35.582-14.767v-35.387c0-10.426,7.633-19.267,17.95-20.766l8.414-1.232l14.133-47.788c2.634-8.926,10.828-15.035,20.12-15.035
			H290.66c5.499,0,10.536,2.122,14.291,5.609c3.756,3.5,6.231,8.365,6.634,13.853l68.835,7.268
			c10.219,1.085,18.145,9.39,18.755,19.645l2.78,47.752l48.642,13.743C460.718,284.281,467.156,294.183,465.681,304.585z"/>
		<path style="fill:#CCD9E2;" d="M73.034,327.417l12.515,87.877H403.78l9.398-67.038c1.045-7.511-3.107-14.79-10.115-17.703
			l-28.244-11.721v-28.089c0-8.276-6.059-15.293-14.248-16.483l-6.679-0.978l-11.218-37.933
			c-2.091-7.085-8.595-11.934-15.971-11.934H211.959c-4.365,0-8.363,1.684-11.344,4.452c-2.981,2.778-4.946,6.64-5.266,10.996
			l-54.639,5.769c-8.111,0.862-14.403,7.453-14.887,15.593l-2.207,37.904l-38.61,10.908
			C76.974,311.301,71.863,319.161,73.034,327.417z"/>
		<path style="fill:#BCCED8;" d="M335.572,382.548c0-9.471-6.935-17.503-16.306-18.865l-7.644-1.119l-12.839-43.414
			c-2.393-8.109-9.837-13.659-18.278-13.659H149.178c-4.996,0-9.571,1.927-12.983,5.096c-3.412,3.179-5.661,7.599-6.026,12.584
			l-56.858,6.003l12.265,86.12h251.438l-1.441-0.598V382.548z"/>
	</g>
</g>
<g id="OBJECTS">
	<g>
		<g>
			<g>
				<g>
					<rect x="120.232" y="99.118" style="fill:#112B46;" width="97.554" height="91.054"/>
				</g>
				<g>
					<rect x="120.232" y="99.118" style="fill:#1D262D;" width="97.554" height="9.63"/>
				</g>
				<g>
					<g>
						<path style="fill:#606BF1;" d="M196.699,104.042c0,0.975-0.79,1.765-1.765,1.765s-1.765-0.79-1.765-1.765
							s0.79-1.765,1.765-1.765S196.699,103.067,196.699,104.042z"/>
					</g>
					<g>
						<path style="fill:#FBD15B;" d="M204.069,104.042c0,0.975-0.79,1.765-1.765,1.765c-0.975,0-1.765-0.79-1.765-1.765
							s0.79-1.765,1.765-1.765C203.279,102.277,204.069,103.067,204.069,104.042z"/>
					</g>
					<g>
						<path style="fill:#FF8578;" d="M210.913,104.228c0,0.975-0.79,1.765-1.765,1.765c-0.975,0-1.765-0.79-1.765-1.765
							c0-0.975,0.79-1.765,1.765-1.765C210.123,102.463,210.913,103.253,210.913,104.228z"/>
					</g>
				</g>
				<g>
					<g>
						<g>
							<rect x="137.578" y="117.7" style="fill:#FF8578;" width="13.817" height="1.161"/>
						</g>
						<g>
							<rect x="153.795" y="117.7" style="fill:#FBD15B;" width="13.817" height="1.161"/>
						</g>
						<g>
							<rect x="141.852" y="123.955" style="fill:#606BF1;" width="21.426" height="1.161"/>
						</g>
						<g>
							<rect x="166.82" y="123.955" style="fill:#FF8578;" width="10.891" height="1.161"/>
						</g>
						<g>
							<rect x="149.284" y="130.211" style="fill:#FBD15B;" width="9.41" height="1.161"/>
						</g>
						<g>
							<rect x="164.133" y="130.211" style="fill:#FBD15B;" width="31.217" height="1.161"/>
						</g>
						<g>
							<rect x="156.593" y="136.467" style="fill:#606BF1;" width="35.677" height="1.161"/>
						</g>
						<g>
							<rect x="147.673" y="142.723" style="fill:#FF8578;" width="10.98" height="1.161"/>
						</g>
						<g>
							<rect x="163.351" y="142.723" style="fill:#606BF1;" width="10.98" height="1.161"/>
						</g>
					</g>
					<g>
						<g>
							<rect x="137.578" y="175.178" style="fill:#FF8578;" width="15.973" height="1.161"/>
						</g>
						<g>
							<rect x="159.146" y="175.178" style="fill:#FBD15B;" width="15.974" height="1.161"/>
						</g>
						<g>
							<rect x="180.133" y="175.178" style="fill:#FF8578;" width="15.973" height="1.161"/>
						</g>
						<g>
							<rect x="141.852" y="168.923" style="fill:#606BF1;" width="31.217" height="1.161"/>
						</g>
						<g>
							<rect x="177.936" y="168.923" style="fill:#FF8578;" width="31.217" height="1.161"/>
						</g>
						<g>
							<rect x="149.284" y="162.667" style="fill:#FF8578;" width="30.978" height="1.161"/>
						</g>
						<g>
							<rect x="182.963" y="162.667" style="fill:#FBD15B;" width="8.622" height="1.161"/>
						</g>
						<g>
							<rect x="147.261" y="156.411" style="fill:#FBD15B;" width="11.662" height="1.161"/>
						</g>
						<g>
							<rect x="165.116" y="156.411" style="fill:#606BF1;" width="11.662" height="1.161"/>
						</g>
						<g>
							<rect x="184.278" y="156.411" style="fill:#FF8578;" width="11.662" height="1.161"/>
						</g>
						<g>
							<rect x="160.779" y="150.155" style="fill:#FBD15B;" width="16.352" height="1.161"/>
						</g>
						<g>
							<rect x="138.258" y="150.155" style="fill:#606BF1;" width="16.352" height="1.161"/>
						</g>
					</g>
				</g>
				<g>
					<g>
						<g>
							<rect x="128.535" y="116.585" style="fill:#F9FBFC;" width="1.486" height="1.487"/>
						</g>
					</g>
					<g>
						<g>
							<path style="fill:#F9FBFC;" d="M130.022,171.126h-1.486v-3.031h1.486V171.126z M130.022,163.547h-1.486v-3.031h1.486V163.547
								z M130.022,155.967h-1.486v-3.032h1.486V155.967z M130.022,148.388h-1.486v-3.032h1.486V148.388z M130.022,140.809h-1.486
								v-3.032h1.486V140.809z M130.022,133.23h-1.486v-3.032h1.486V133.23z M130.022,125.65h-1.486v-3.032h1.486V125.65z"/>
						</g>
					</g>
					<g>
						<g>
							<rect x="128.535" y="175.674" style="fill:#F9FBFC;" width="1.486" height="1.487"/>
						</g>
					</g>
				</g>
			</g>
			<g>
				<g>
					<rect x="238.776" y="79.775" style="fill:#FF8578;" width="80.33" height="49.515"/>
				</g>
				<g>
					<path style="fill:#F9FBFC;" d="M269.975,99.69l-9.557,4.079l9.557,4.019l-1.251,2.888l-11.462-5.121v-3.543l11.462-5.151
						L269.975,99.69z"/>
					<path style="fill:#F9FBFC;" d="M284.059,90.253l-6.937,26.646l-3.305-0.774l6.967-26.616L284.059,90.253z"/>
					<path style="fill:#F9FBFC;" d="M300.646,102.013v3.543l-11.463,5.121l-1.25-2.888l9.527-4.019l-9.527-4.079l1.25-2.828
						L300.646,102.013z"/>
				</g>
			</g>
			<g>
				<g>
					<rect x="316.347" y="175.7" style="fill:#606BF1;" width="45.754" height="32.596"/>
				</g>
				<g>
					<path style="fill:#F1F2F2;" d="M335.486,182.737c-1.472,0-1.962,0.397-1.962,1.495v4.906c0,1.916-0.794,2.5-2.126,2.874
						c1.332,0.35,2.126,0.934,2.126,2.826v4.906c0,1.098,0.514,1.495,1.962,1.495v2.149c-3.714,0-4.766-1.191-4.766-3.668v-4.649
						c0-1.332-0.35-1.845-1.565-1.845v-2.453c1.215,0,1.565-0.537,1.565-1.869v-4.649c0-2.5,1.052-3.668,4.766-3.668V182.737z"/>
					<path style="fill:#F1F2F2;" d="M347.728,184.256v4.649c0,1.332,0.35,1.869,1.589,1.869v2.453c-1.238,0-1.589,0.514-1.589,1.845
						v4.649c0,2.476-1.051,3.668-4.766,3.668v-2.149c1.448,0,1.962-0.397,1.962-1.495v-4.906c0-1.892,0.794-2.476,2.126-2.826
						c-1.332-0.374-2.126-0.958-2.126-2.874v-4.906c0-1.098-0.49-1.495-1.962-1.495v-2.149
						C346.677,180.588,347.728,181.756,347.728,184.256z"/>
				</g>
			</g>
			<g>
				<g>
					<rect x="89.183" y="86.876" style="fill:#FBD15B;" width="51.329" height="34.332"/>
				</g>
				<g>
					<g>
						<path style="fill:#F9FBFC;" d="M106.171,96.731c-2.451,3.067-2.413,7.549,0.084,10.579c2.837,3.443,7.697,3.997,11.189,1.668
							l5.387,5.387c0.227,0.227,0.596,0.227,0.823,0l1.514-1.513c0.227-0.227,0.227-0.596,0-0.823l-5.387-5.387
							c2.182-3.272,1.833-7.745-1.052-10.63C115.219,92.502,109.359,92.742,106.171,96.731z M116.984,106.182
							c-2.323,2.323-6.102,2.322-8.425,0c-2.323-2.323-2.323-6.102,0-8.425c2.323-2.323,6.102-2.323,8.425,0
							C119.306,100.079,119.307,103.859,116.984,106.182z"/>
					</g>
				</g>
			</g>
			<g>
				<g>
					<radialGradient id="SVGID_1_" cx="277.5197" cy="192.3786" r="12.9255" gradientUnits="userSpaceOnUse">
						<stop  offset="0" style="stop-color:#FFC8AF"/>
						<stop  offset="1" style="stop-color:#FFBB9C"/>
					</radialGradient>
					<path style="fill:url(#SVGID_1_);" d="M289.826,192.922c-0.112,1.134-1.662,12.973-13.836,12.973
						c-12.782,0-10.641-12.654-10.641-12.654l-0.016-0.08c1.246-0.256,2.588-0.352,4.01-0.192v-5.992l14.507-8.116h0.527v13.98
						C284.377,192.842,286.678,192.57,289.826,192.922z"/>
					<g>
						<g id="XMLID_43_">
							<g>
								
									<radialGradient id="SVGID_00000044863639999109743620000009231584149797860027_" cx="279.6045" cy="169.1875" r="20.3775" gradientTransform="matrix(0.9776 -0.2105 0.2105 0.9776 -38.9136 62.4417)" gradientUnits="userSpaceOnUse">
									<stop  offset="0" style="stop-color:#FFC8AF"/>
									<stop  offset="1" style="stop-color:#FFBB9C"/>
								</radialGradient>
								<path style="fill:url(#SVGID_00000044863639999109743620000009231584149797860027_);" d="M282.78,152.117
									c2.057,2.086,3.612,4.786,4.36,8.085c1.394,6.146,0.082,12.649-1.701,18.572c-0.305,1.013-0.651,2.035-1.277,2.888
									c-0.447,0.608-1.021,1.11-1.591,1.605c-2.581,2.247-5.16,4.495-7.735,6.749c-1.745,1.528-12.489,2.801-14.54,1.335
									c-7.902-5.65-9.422-22.018-7.84-30.386C255.08,147.082,272.923,142.118,282.78,152.117z"/>
							</g>
						</g>
						<path style="fill:#F7B094;" d="M278.342,169.883c0.105-1.336,1.479-2.8,2.858-1.933c1.428,0.898,1.092,3.271,0.5,4.577
							c-0.464,1.024-2.016,2.145-3.067,1.193c-0.881-0.798,0.488-1.74,0.533-2.468c0.04-0.656-1.272-1.126-0.735-1.828"/>
						<path style="fill:#F7B094;" d="M278.595,176.061c1.44,0.432,3.879-0.666,4.497-2.672c0.617-2.006,0.551-4.296,0.551-4.296
							s0.725,1.816,0.352,4.737c-0.373,2.922-1.397,5.705-3.69,5.741C278.012,179.608,278.595,176.061,278.595,176.061z"/>
						<path style="fill:#3D3D7A;" d="M276.828,173.982c-0.047,0.023-0.1,0.04-0.161,0.049c-0.892,0.125-1.247-0.954-1.38-1.63
							c-0.309-1.577-0.26-3.173-0.316-4.768c-0.013-0.4,0.019-0.898-0.145-1.274c-0.501-1.147-1.836-1.893-2.243-3.077
							c-0.474-1.378,0.864-2.753,0.333-4.262c-0.813-2.311-3.78-2.842-5.926-2.817c-3.221,0.038-6.36,0.635-9.538,1.128
							c-3.355,0.521-7.643,1.015-10.599-1.107c-3.563-2.557-5.051-9.222-2.392-12.871c1.449-1.989,4.198-3.048,6.606-3.103
							c2.553-0.058,4.71,1.463,7.051,2.229c1.865,0.61,3.669-1.174,5.412-1.523c2.191-0.438,3.122,1.954,5.06,2.02
							c1.883,0.064,3.731-1.407,5.562-1.742c3.65-0.666,3.435,3,5.885,4.252c1.522,0.778,3.489,0.307,5.029,1.098
							c1.17,0.601,1.334,1.657,1.589,2.853c0.22,1.034,0.233,2.228,0.573,3.211c0.306,0.884,1.049,1.442,1.628,2.134
							c0.632,0.754,1.035,1.635,1.356,2.581c0.71,2.097,0.868,4.36,0.674,6.556c-0.326,3.687-1.512,7.315-2.743,10.787
							c-0.799,2.253-1.096,4.599-2.325,6.731c-0.33,0.573-1.796,2.246-2.341,1c-0.117-0.267-0.099-0.571-0.078-0.862
							c0.162-2.322,2.324-17.287-3.344-15.489c-1.19,0.377-1.988,1.367-2.432,2.497c-0.53,1.351-0.568,2.712-0.5,4.14
							c0.01,0.204,0.015,0.409,0.007,0.613C277.12,173.601,277.054,173.869,276.828,173.982z"/>
					</g>
				</g>
				<path style="fill:#F7B094;" d="M269.343,191.599c6.446-1.036,10.699-6.128,10.699-6.128s-1.739,8.582-11.086,9.036
					L269.343,191.599z"/>
				<g>
					<path style="fill:#0A2033;" d="M279.924,308.57h9.227v88.525c0,0.898-0.728,1.626-1.626,1.626h-5.975
						c-0.898,0-1.626-0.728-1.626-1.626V308.57z"/>
					<path style="fill:#30475E;" d="M259.166,309.836h50.742v1.385c0,3.487-2.827,6.314-6.314,6.314H265.48
						c-3.487,0-6.314-2.827-6.314-6.314V309.836z"/>
					<g>
						<path style="fill:#0A2033;" d="M279.924,388.225h9.227v20.514c0,0.898-0.728,1.626-1.626,1.626h-5.975
							c-0.898,0-1.626-0.728-1.626-1.626V388.225z"/>
						<path style="fill:#0A2033;" d="M236.657,404.965c0,2.982,2.418,5.4,5.4,5.4c2.982,0,5.4-2.418,5.4-5.4
							c0-2.982-2.418-5.4-5.4-5.4C239.075,399.565,236.657,401.983,236.657,404.965z"/>
						<path style="fill:#0A2033;" d="M321.617,404.965c0,2.982,2.418,5.4,5.4,5.4c2.982,0,5.4-2.418,5.4-5.4
							c0-2.982-2.418-5.4-5.4-5.4C324.034,399.565,321.617,401.983,321.617,404.965z"/>
						
							<rect x="275.256" y="381.35" transform="matrix(-1 -1.224647e-16 1.224647e-16 -1 569.0739 778.92)" style="fill:#30475E;" width="18.562" height="16.22"/>
						<path style="fill:#FBD15B;" d="M236.657,401.387h95.76v-1.882c0-3.176-2.575-5.751-5.751-5.751h-84.257
							c-3.176,0-5.751,2.575-5.751,5.751V401.387z"/>
					</g>
					<rect x="281.336" y="319.354" style="fill:#30475E;" width="3.201" height="60.548"/>
				</g>
				<path style="fill:#FBD15B;" d="M320.786,244.403c-2.214-0.069-4.014,1.763-3.886,3.974c0.634,10.99-1.696,37.8-11.932,46.948
					c-12.516,11.184-47.989,9.661-47.989,9.661s-5.858,7.19,5.858,8.787c11.717,1.598,44.736,0.533,52.725-6.923
					c7.733-7.217,12.323-26.126,8.864-59.038C324.227,245.924,322.683,244.462,320.786,244.403L320.786,244.403z"/>
				<g id="XMLID_42_">
					<g>
						
							<radialGradient id="SVGID_00000137836247421745558380000003414876170989042109_" cx="249.9626" cy="387.5479" r="8.1259" gradientUnits="userSpaceOnUse">
							<stop  offset="0" style="stop-color:#FFC8AF"/>
							<stop  offset="1" style="stop-color:#FFBB9C"/>
						</radialGradient>
						<polygon style="fill:url(#SVGID_00000137836247421745558380000003414876170989042109_);" points="254.324,379.903 
							258.542,389.521 245.617,395.193 241.383,385.543 						"/>
						<path style="fill:#56548C;" d="M315.277,272.999c-0.799,1.598-58.229,0.032-63.653,0.527c0,0-35.15,16.776-40.199,32.482
							c-0.511,1.582-0.655,3.675-0.495,6.167c1.406,22.112,26.586,75.061,26.586,75.061l3.866-1.694l12.942-5.64l1.837-0.799
							c0,0-19.971-59.515-15.977-62.71c3.994-3.195,49.258-11.184,64.963-15.434C320.869,296.694,315.277,272.999,315.277,272.999z"
							/>
						
							<radialGradient id="SVGID_00000167377973443143421330000008811520089758636950_" cx="198.4986" cy="389.5859" r="7.4015" gradientUnits="userSpaceOnUse">
							<stop  offset="0" style="stop-color:#FFC8AF"/>
							<stop  offset="1" style="stop-color:#FFBB9C"/>
						</radialGradient>
						<polygon style="fill:url(#SVGID_00000167377973443143421330000008811520089758636950_);" points="205.048,382.377 
							206.057,396.827 191.949,396.827 190.94,382.345 						"/>
						<path style="fill:#3D3D7A;" d="M251.337,273.031l-0.511,0.224c0,0-58.844,8.26-68.43,24.765
							c-6.231,10.737,5.83,89.189,5.83,89.189l20.818,0.048c0,0-3.114-65.351-2.075-68.994c1.166-4.154,3.163-5.656,3.962-6.087
							c-0.16-2.492-0.016-4.586,0.495-6.167c5.049-15.706,40.199-32.482,40.199-32.482
							C251.512,273.447,251.416,273.271,251.337,273.031z"/>
						<path style="fill:#FF8578;" d="M308.173,218.661l-3.946,0.543c0,0-0.959,10.641-3.307,21.282l-49.162,18.661l-0.671,3.563
							c-0.208-0.016-0.415-0.032-0.607-0.048c0.016,0.735,0.016,1.454,0.048,2.125c0.112,4.106,0.383,7.062,0.815,8.244
							c0.08,0.24,0.176,0.415,0.288,0.495c1.336,1.089,18.723-1.021,37.521,5.881c16.303,5.986,25.44,12.525,25.863,11.646
							C320.136,280.402,310.809,238.601,308.173,218.661z"/>
						<path style="fill:#F4675D;" d="M303.044,243.042c-1.31,6.295-4.697,18.821-11.344,20.499
							c-8.676,2.205-25.452,2.093-41.173,1.246c-0.032-0.671-0.032-1.39-0.048-2.125c0.192,0.016,0.399,0.032,0.607,0.048
							l0.671-3.563l49.162-18.661c2.349-10.641,3.307-21.282,3.307-21.282s0,0.064,0.016,0.176
							C304.338,221.026,305.009,233.743,303.044,243.042z"/>
						<path style="fill:#F4675D;" d="M253.765,202.956c-0.879,1.598-2.141,18.693-2.828,35.661l-10.05-9.379
							C245.153,220.978,253.765,202.956,253.765,202.956z"/>
						<path style="fill:#F7B094;" d="M247.742,251.015c-8.484,1.47-16.281,2.732-16.281,2.732l-0.016,0.415
							c-9.443-7.541-23.806-28.903-23.806-28.903s4.298-5.161,5.368-6.519c0.16-0.208,23.582,15.913,24.781,15.769
							c0.304-0.032,1.502-2.141,3.1-5.272l10.05,9.379c-0.16,4.042-0.288,8.068-0.368,11.887
							C249.627,250.679,248.684,250.839,247.742,251.015z"/>
						
							<radialGradient id="SVGID_00000058574314137871453090000003037064763140154258_" cx="243.5606" cy="250.6974" r="41.4442" gradientUnits="userSpaceOnUse">
							<stop  offset="0" style="stop-color:#FFC8AF"/>
							<stop  offset="1" style="stop-color:#FFBB9C"/>
						</radialGradient>
						<path style="fill:url(#SVGID_00000058574314137871453090000003037064763140154258_);" d="M231.461,253.747l-0.208,6.998
							H205.69c0,0,2.54-9.986,9.459-9.986c6.918,0,9.586,3.659,9.586,3.659L231.461,253.747z"/>
						<path style="fill:#F7B094;" d="M212.816,218.581l0.192,0.16c-1.071,1.358-5.368,6.519-5.368,6.519l-2.668-1.885
							c0,0-2.94,1.79-6.359-0.08c-3.563-1.933-1.358-6.549-1.175-7.096c-0.691,0.195-4.96,3.645-5.631,3.278
							c-0.671-0.368-1.166-1.582,3.611-6.295c4.761-4.713,11.248,1.342,11.44,1.342L212.816,218.581z"/>
						<path style="fill:#F7B094;" d="M199.168,222.493c0,0-1.03,1.929,0.801,2.767c1.831,0.838,5.394,1.443,6.924,1.296
							c1.53-0.147,2.747-2.289,2.747-2.289l-4.635-4.349h-3.705L199.168,222.493z"/>
						<path style="fill:#E8987C;" d="M198.893,223.44c0.275-0.947,2.906-0.442,4.538-0.403c1.202,0.029,1.86-0.286,2.232-1.202
							c0.372-0.915-1.373-2.375-1.717-1.917c-0.343,0.458,0.63,1.102,0.658,1.71c0.029,0.608-1.717,0.808-3.061,0.808
							c-1.345,0-3.665,0.35-3.665,0.35L198.893,223.44z"/>
					</g>
				</g>
				
					<radialGradient id="SVGID_00000016781500860519117160000010994153723609192887_" cx="243.5606" cy="250.6974" r="41.444" gradientUnits="userSpaceOnUse">
					<stop  offset="0" style="stop-color:#FFC8AF"/>
					<stop  offset="1" style="stop-color:#FFBB9C"/>
				</radialGradient>
				<path style="fill:url(#SVGID_00000016781500860519117160000010994153723609192887_);" d="M298.421,249.561l-25.036-8.867
					c-1.821,3.403-3.771,5.96-5.704,6.471c-2.924,0.767-9.986,2.093-17.112,3.339c-0.943,0.176-1.885,0.335-2.828,0.511
					c-8.484,1.47-16.281,2.732-16.281,2.732l-0.016,0.415v0.272l-0.192,6.311v1.601c0,0,8.5-0.435,19.221,0.316
					c15.003,1.07,34.351,1.71,40.758-1.31c3.004-1.422,5.4-6.087,7.286-11.839C298.485,249.529,298.453,249.545,298.421,249.561z"/>
				<polygon style="fill:#F7B094;" points="273.385,240.694 298.421,249.561 297.288,252.906 272.508,242.277 				"/>
				<path style="fill:#FF8578;" d="M273.385,240.694c-1.821,3.403-3.771,5.96-5.704,6.471c-2.924,0.767-9.986,2.093-17.112,3.339
					c0.08-3.819,0.208-7.845,0.368-11.887c0.687-16.968,1.949-34.063,2.828-35.661c1.438-2.668,5.368-8.468,11.567-9.794l0.016,0.08
					c0,0-2.141,12.654,10.641,12.654c12.175,0,13.724-11.839,13.836-12.973c6.263,0.703,15.865,3.835,17.191,16.425
					c0.272,2.492,0.655,5.688,1.15,9.315l-3.946,0.543c0,0-1.598,17.735-5.704,30.309c-0.032,0.016-0.064,0.032-0.096,0.048
					L273.385,240.694z"/>
				<polygon style="fill:#6D4B35;" points="273.126,238.386 283.123,214.186 275.758,239.364 				"/>
				<path style="fill:#FF8578;" d="M289.826,192.922h-5.448c0,0-7.753,8.513-12.737,8.513s-2.297-8.465-2.297-8.465h-2.431
					c-6.985,0-12.863,5.245-13.653,12.186c-0.091,0.795-0.173,1.549-0.244,2.231c-0.533,5.15,20.33,8.898,20.33,8.898l10.742-0.601
					l6.523-12.728l1.3-5.212L289.826,192.922z"/>
				<g>
					<g>
						<g id="XMLID_39_">
							<g>
								<path style="fill:#F1F2F2;" d="M224.083,406.263c0.485,2.603,2.289,4.454,4.893,3.968l34.701-6.472
									c0.878-0.164,1.457-1.008,1.293-1.886l-0.574-3.079c0,0-36.495,6.386-40.33,7.45L224.083,406.263z"/>
								<path style="fill:#3D3D7A;" d="M234.407,397.526c0.362-0.314,0.71-0.626,1.072-0.94c0.696-0.623,1.381-1.229,2.04-1.817
									c0.348-0.311,0.696-0.623,1.019-0.915c0.634-0.568,1.231-1.1,1.766-1.577c0.385-0.347,0.744-0.676,1.067-0.968
									c0.593-0.532,1.078-0.966,1.417-1.27c0.294-0.263,0.73-0.276,1.033-0.022c1.427,1.199,6.037,3.942,14.388-1.226
									c0.396-0.245,0.921-0.117,1.136,0.296l5.05,9.705c0,0-36.495,6.386-40.33,7.45
									C225.326,405.458,229.985,401.427,234.407,397.526z"/>
							</g>
						</g>
					</g>
				</g>
				<g>
					<g>
						<g id="XMLID_44_">
							<g>
								<path style="fill:#F1F2F2;" d="M169.432,405.923c0.065,2.647,1.551,4.761,4.198,4.697l35.289-0.861
									c0.893-0.022,1.599-0.763,1.577-1.656l-0.076-3.131c0,0-37.047,0.491-41.002,0.929L169.432,405.923z"/>
								<path style="fill:#3D3D7A;" d="M181.016,398.942c0.408-0.253,0.801-0.504,1.208-0.757c0.786-0.504,1.559-0.994,2.303-1.468
									c0.393-0.252,0.786-0.504,1.152-0.741c0.716-0.46,1.39-0.89,1.994-1.275c0.435-0.282,0.842-0.548,1.208-0.785
									c0.67-0.43,1.218-0.782,1.601-1.028c0.332-0.213,0.765-0.156,1.023,0.143c1.217,1.411,5.332,4.853,14.4,1.082
									c0.43-0.179,0.928,0.031,1.075,0.474l3.439,10.386c0,0-37.047,0.491-41.002,0.929
									C170.787,405.326,176.029,402.088,181.016,398.942z"/>
							</g>
						</g>
					</g>
				</g>
				<g>
					<polygon style="fill:#ABB5BA;" points="144.329,262.346 125.483,212.083 179.136,212.083 197.983,262.346 					"/>
					<polygon style="fill:#8495A0;" points="201.299,262.346 197.983,262.346 179.136,212.083 182.149,212.217 199.58,257.713 					
						"/>
					<polyline style="fill:none;" points="128.369,256.914 128.641,256.914 195.92,256.914 					"/>
					<g>
						<path style="fill:#8495A0;" d="M200.259,262.346h35.453l-0.096-3.169c0,0-35.49,0-36.082,0"/>
					</g>
				</g>
				<g>
					<g>
						<rect x="342.766" y="271.932" style="fill:#8495A0;" width="8.536" height="140.234"/>
					</g>
					<g>
						<rect x="296.432" y="271.932" style="fill:#ABB5BA;" width="8.536" height="140.234"/>
					</g>
					<g>
						<rect x="147.993" y="271.932" style="fill:#8495A0;" width="8.536" height="140.234"/>
					</g>
					<g>
						<rect x="101.66" y="271.932" style="fill:#ABB5BA;" width="8.536" height="140.234"/>
					</g>
					<path style="fill:#141B56;" d="M359.844,272.465H93.483c-2.291,0-4.149-1.858-4.149-4.149v-1.821
						c0-2.292,1.858-4.149,4.149-4.149h266.36c2.292,0,4.149,1.858,4.149,4.149v1.821
						C363.993,270.608,362.135,272.465,359.844,272.465z"/>
				</g>
				<polygon style="fill:#8495A0;" points="134.441,217.366 135.359,219.813 146.047,219.813 145.129,217.366 				"/>
				<polygon style="fill:#E8987C;" points="240.888,229.238 240.121,230.72 250.937,241.899 250.937,238.617 				"/>
			</g>
		</g>
		<g>
			<rect x="29.745" y="410.363" style="fill:#A5B7C6;" width="431.916" height="9.862"/>
			<g>
				<g>
					
						<linearGradient id="SVGID_00000180324669040237356030000002157107430969447595_" gradientUnits="userSpaceOnUse" x1="489.9151" y1="93.5885" x2="450.5752" y2="143.1809" gradientTransform="matrix(0.7834 -0.6215 0.6215 0.7834 -58.0954 529.938)">
						<stop  offset="0" style="stop-color:#606BF1"/>
						<stop  offset="1" style="stop-color:#58479F"/>
					</linearGradient>
					<path style="fill:url(#SVGID_00000180324669040237356030000002157107430969447595_);" d="M393.183,337.215
						c-1.716,8.325-1.199,22.506-12.213,24.752c-2.966,0.605-5.831-1.451-7.555-3.807c-2.256-3.083-2.796-9.609-2.756-13.341
						c0.031-2.958,1.04-6.257,1.365-9.241c0.351-3.223,0.636-6.453,1.012-9.674c1.355-11.608,7.419-21.337,17.676-27.132
						c0.794,3.81,2.604,7.035,4.199,10.694c0.727,1.668,1.384,3.427,1.857,5.175c0.839,3.095-0.176,6.224-0.929,9.188
						C394.727,328.213,394.097,332.781,393.183,337.215z"/>
					<path style="fill:#747DED;" d="M379.107,362.247c0.078-0.698,0.164-1.397,0.256-2.095c1.316-0.003,2.686-0.751,3.791-1.324
						c1.916-0.993,3.469-2.417,4.975-3.939c0.08-0.081-0.055-0.212-0.141-0.14c-1.501,1.261-3.057,2.482-4.844,3.315
						c-0.996,0.464-2.452,1.223-3.68,1.37c0.116-0.833,0.244-1.665,0.382-2.495c1.37-0.168,2.625-1.068,3.786-1.756
						c1.972-1.17,3.668-2.684,5.426-4.142c0.02-0.017-0.004-0.047-0.025-0.032c-2.69,1.953-5.686,4.733-9.087,5.342
						c0.18-1.04,0.371-2.077,0.589-3.108c0.011-0.054,0.023-0.107,0.035-0.161c3.937-0.996,6.601-4.084,9.615-6.58
						c0.049-0.04-0.003-0.124-0.055-0.084c-2.969,2.305-5.758,4.937-9.428,6.055c0.318-1.474,0.649-2.944,0.982-4.412
						c3.563-1.314,6.408-3.401,8.897-6.308c0.042-0.049-0.027-0.117-0.072-0.07c-2.577,2.682-5.415,4.223-8.683,5.749
						c0.329-1.453,0.656-2.907,0.965-4.364c1.541-0.758,3.162-1.219,4.586-2.216c1.404-0.983,2.664-2.155,3.568-3.618
						c0.048-0.077-0.067-0.15-0.118-0.076c-1.993,2.865-4.998,3.757-7.902,5.264c0.283-1.358,0.547-2.721,0.783-4.091
						c3.236-1.782,6.753-3.434,8.587-6.849c0.018-0.034-0.029-0.067-0.05-0.034c-1.943,3.138-5.339,4.489-8.422,6.197
						c0.04-0.244,0.085-0.487,0.123-0.732c0.198-1.271,0.384-2.543,0.566-3.815c1.86-0.745,3.632-1.796,5.306-2.886
						c1.188-0.773,2.457-1.54,3.234-2.755c0.049-0.076-0.063-0.155-0.115-0.081c-1.736,2.487-5.537,3.924-8.345,5.169
						c0.183-1.285,0.363-2.571,0.546-3.856c3.116-1.885,6.781-2.928,8.698-6.326c0.057-0.101-0.091-0.194-0.154-0.095
						c-1.986,3.103-5.481,4.06-8.459,5.821c0.115-0.796,0.231-1.592,0.351-2.387c3.364-1.237,7.276-4.053,9.05-7.095
						c0.098-0.167-0.145-0.323-0.254-0.162c-1.81,2.669-5.445,5.569-8.698,6.625c0.199-1.289,0.407-2.576,0.636-3.861
						c0.023-0.035,0.04-0.073,0.05-0.114c1.51-0.445,3.004-1.51,4.307-2.314c1.572-0.97,3.073-2.097,4.051-3.691
						c0.108-0.176-0.178-0.339-0.28-0.158c-1.495,2.667-5.041,4.455-7.977,5.473c0.087-0.468,0.171-0.937,0.264-1.405
						c0.139-0.7,0.281-1.399,0.424-2.098c1.202-0.83,2.728-1.228,3.935-2.104c1.049-0.762,1.965-1.68,2.864-2.61
						c0.09-0.092-0.043-0.235-0.138-0.146c-1.218,1.145-2.471,2.243-3.953,3.037c-0.829,0.444-1.774,0.697-2.577,1.183
						c0.235-1.143,0.469-2.286,0.692-3.43c0.014-0.003,0.028-0.007,0.043-0.009c0.014,0.003,0.029,0.006,0.043,0.009
						c0.083,0.016,0.149-0.013,0.198-0.061c1.634-0.412,2.885-1.82,3.983-3.019c0.026-0.029-0.014-0.07-0.042-0.043
						c-1.153,1.066-2.462,2.245-4.006,2.703c-0.006-0.001-0.01-0.005-0.016-0.006c-0.04-0.006-0.078-0.012-0.117-0.019
						c0.179-0.931,0.349-1.865,0.505-2.8c0.118-0.021,0.221-0.122,0.193-0.24c0.866-0.582,1.654-1.323,2.393-2.049
						c0.055-0.054-0.023-0.14-0.082-0.089c-0.768,0.662-1.526,1.208-2.391,1.687c0.305-1.932,0.542-3.874,0.65-5.836
						c0.01-0.182-0.265-0.184-0.281-0.005c-0.171,1.888-0.445,3.758-0.77,5.619c-0.902-1.183-1.905-2.401-2.456-3.755
						c-0.029-0.07-0.14-0.042-0.116,0.034c0.27,0.841,0.734,1.576,1.195,2.324c0.412,0.669,0.741,1.448,1.266,2.042
						c-0.181,0.999-0.378,1.996-0.583,2.991c-1.096-0.176-2.102-0.384-3.007-1.177c-1.108-0.971-1.738-2.293-1.848-3.757
						c-0.013-0.18-0.298-0.179-0.281,0.001c0.125,1.363,0.667,2.644,1.599,3.66c0.98,1.069,2.131,1.409,3.451,1.683
						c-0.24,1.149-0.488,2.297-0.741,3.444c-0.996-0.597-1.921-1.378-2.818-2.093c-1.448-1.154-2.303-2.543-3.56-3.843
						c-0.126-0.13-0.331,0.058-0.207,0.19c1.178,1.253,1.975,2.609,3.315,3.734c0.965,0.81,2.029,1.825,3.18,2.424
						c-0.013,0.061-0.027,0.121-0.04,0.182c-0.012,0.012-0.026,0.021-0.038,0.033c-0.088,0.086-0.078,0.185-0.025,0.257
						c-0.242,1.099-0.483,2.198-0.715,3.299c-0.014,0.069-0.027,0.138-0.041,0.207c-2.562-1.173-6.39-3.21-6.729-6.182
						c-0.032-0.283-0.454-0.204-0.389,0.085c0.758,3.363,4.454,4.854,7.001,6.688c-0.251,1.245-0.481,2.494-0.693,3.745
						c-1.654-0.569-3.228-1.273-4.617-2.378c-1.264-1.005-3.051-2.217-3.62-3.773c-0.018-0.049-0.09-0.017-0.074,0.031
						c0.527,1.547,2.13,2.611,3.297,3.666c1.481,1.34,2.996,2.477,4.899,3.013c-0.014,0.055-0.018,0.112-0.005,0.167
						c-0.13,0.794-0.256,1.588-0.378,2.383c-3.111-0.239-7.464-2.602-9.054-4.955c-0.007-0.011-0.022,0.001-0.016,0.012
						c1.084,1.795,2.724,2.845,4.572,3.756c1.381,0.68,2.872,1.485,4.434,1.601c-0.223,1.472-0.439,2.946-0.659,4.419
						c-1.35-0.503-2.78-0.744-4.115-1.279c-1.986-0.795-3.502-2.222-4.671-3.977c-0.07-0.106-0.247-0.017-0.178,0.094
						c2.154,3.424,5.252,4.429,8.882,5.711c-0.181,1.208-0.37,2.416-0.57,3.621c-2.971-0.569-6.813-2.382-8.316-4.963
						c-0.11-0.19-0.412-0.032-0.302,0.159c0.95,1.653,2.586,2.699,4.254,3.542c1.202,0.607,2.857,1.613,4.289,1.721
						c-0.007,0.04-0.013,0.079-0.019,0.119c-0.294,1.735-0.637,3.461-1.007,5.182c-3.319-0.834-5.464-3.293-7.876-5.593
						c-0.168-0.16-0.43,0.084-0.263,0.248c2.457,2.418,4.616,4.956,8.03,5.85c-0.306,1.4-0.632,2.796-0.97,4.189
						c-2.826-0.791-5.624-2.796-7.452-5.1c-0.13-0.163-0.357,0.058-0.234,0.22c1.9,2.5,4.639,4.386,7.556,5.42
						c-0.367,1.495-0.746,2.986-1.13,4.476c-2.904-0.442-5.141-2.26-6.929-4.557c-0.042-0.053-0.135,0.017-0.095,0.072
						c1.589,2.211,3.992,4.763,6.884,5.031c-0.123,0.476-0.246,0.951-0.368,1.427c-0.074,0.287-0.152,0.578-0.231,0.871
						c-2.19-0.645-4.222-1.431-6.029-2.906c-0.051-0.041-0.108,0.037-0.061,0.08c1.717,1.546,3.773,2.588,5.97,3.264
						c-0.244,0.895-0.501,1.815-0.755,2.753c-0.543-0.253-1.069-0.53-1.663-0.708c-1.089-0.327-1.794-1.017-2.742-1.587
						c-0.087-0.052-0.185,0.071-0.098,0.128c0.832,0.543,1.417,1.242,2.367,1.6c0.703,0.265,1.366,0.603,2.045,0.904
						c-0.998,3.72-1.881,7.674-1.402,11.245c0.106,0.792,1.435,1.002,1.64,0.159C378.844,367.658,378.811,364.893,379.107,362.247z"
						/>
				</g>
				<g>
					
						<linearGradient id="SVGID_00000121994961896320987300000017678113832620973741_" gradientUnits="userSpaceOnUse" x1="592.9305" y1="-19.9338" x2="553.5917" y2="29.6572" gradientTransform="matrix(0.4479 -0.8941 0.8941 0.4479 85.9095 842.98)">
						<stop  offset="0" style="stop-color:#606BF1"/>
						<stop  offset="1" style="stop-color:#58479F"/>
					</linearGradient>
					<path style="fill:url(#SVGID_00000121994961896320987300000017678113832620973741_);" d="M358.328,334.831
						c1.958,8.272,8.412,20.909-0.625,27.594c-2.434,1.8-5.898,1.145-8.456-0.263c-3.346-1.842-6.59-7.531-8.129-10.931
						c-1.22-2.695-1.698-6.112-2.663-8.953c-1.043-3.07-2.147-6.119-3.166-9.197c-3.671-11.095-2.28-22.474,4.574-32.057
						c2.328,3.119,5.33,5.279,8.32,7.923c1.363,1.205,2.701,2.523,3.868,3.908c2.067,2.452,2.467,5.716,3.036,8.721
						C355.929,326.019,357.286,330.427,358.328,334.831z"/>
					<path style="fill:#747DED;" d="M356.132,363.466c-0.224-0.666-0.44-1.336-0.652-2.007c1.192-0.559,2.118-1.815,2.878-2.8
						c1.318-1.709,2.125-3.655,2.847-5.671c0.038-0.107-0.14-0.169-0.187-0.067c-0.828,1.776-1.724,3.54-2.992,5.05
						c-0.707,0.841-1.707,2.143-2.758,2.795c-0.247-0.804-0.482-1.612-0.707-2.423c1.171-0.73,1.93-2.076,2.691-3.19
						c1.294-1.893,2.193-3.982,3.171-6.046c0.011-0.023-0.023-0.041-0.036-0.018c-1.614,2.906-3.157,6.691-5.984,8.678
						c-0.276-1.019-0.54-2.04-0.778-3.066c-0.012-0.054-0.024-0.107-0.036-0.161c3.149-2.565,4.26-6.488,5.94-10.023
						c0.027-0.057-0.056-0.111-0.085-0.053c-1.719,3.343-3.136,6.906-5.991,9.469c-0.334-1.47-0.654-2.943-0.972-4.414
						c2.675-2.695,4.373-5.787,5.404-9.474c0.017-0.062-0.074-0.095-0.095-0.033c-1.204,3.519-3.127,6.113-5.445,8.876
						c-0.315-1.457-0.632-2.912-0.967-4.364c1.077-1.338,2.352-2.44,3.222-3.944c0.858-1.483,1.506-3.078,1.708-4.785
						c0.011-0.09-0.124-0.107-0.139-0.018c-0.598,3.439-2.945,5.516-4.942,8.108c-0.317-1.351-0.653-2.698-1.017-4.039
						c2.182-2.982,4.673-5.963,4.894-9.833c0.002-0.038-0.055-0.048-0.06-0.009c-0.437,3.665-2.945,6.323-5.019,9.173
						c-0.067-0.238-0.129-0.477-0.197-0.715c-0.356-1.236-0.725-2.467-1.097-3.697c1.372-1.461,2.535-3.161,3.592-4.856
						c0.75-1.202,1.577-2.434,1.769-3.862c0.012-0.09-0.123-0.114-0.138-0.024c-0.524,2.987-3.364,5.895-5.384,8.208
						c-0.377-1.242-0.756-2.484-1.132-3.726c2.029-3.024,4.911-5.516,5.215-9.406c0.009-0.116-0.164-0.137-0.179-0.021
						c-0.49,3.651-3.256,5.994-5.212,8.847c-0.232-0.77-0.463-1.541-0.689-2.313c2.528-2.541,4.885-6.746,5.211-10.252
						c0.018-0.193-0.268-0.232-0.299-0.04c-0.514,3.183-2.586,7.346-5.089,9.677c-0.364-1.252-0.719-2.507-1.053-3.768
						c0.006-0.042,0.005-0.083-0.003-0.124c1.182-1.041,2.086-2.637,2.928-3.916c1.016-1.543,1.901-3.198,2.114-5.056
						c0.024-0.205-0.305-0.232-0.32-0.025c-0.229,3.049-2.69,6.166-4.922,8.329c-0.119-0.461-0.24-0.922-0.354-1.385
						c-0.17-0.693-0.336-1.387-0.501-2.081c0.739-1.26,1.955-2.264,2.679-3.568c0.63-1.134,1.073-2.353,1.495-3.575
						c0.042-0.122-0.138-0.195-0.187-0.074c-0.621,1.552-1.293,3.076-2.302,4.421c-0.564,0.752-1.314,1.381-1.837,2.16
						c-0.269-1.135-0.54-2.27-0.82-3.402c0.012-0.008,0.023-0.018,0.035-0.026c0.014-0.004,0.028-0.007,0.043-0.01
						c0.082-0.021,0.13-0.075,0.153-0.139c1.308-1.063,1.847-2.868,2.337-4.418c0.012-0.037-0.042-0.057-0.056-0.021
						c-0.595,1.453-1.285,3.075-2.491,4.141c-0.006,0.001-0.011-0.001-0.018,0.001c-0.039,0.011-0.076,0.022-0.114,0.033
						c-0.231-0.92-0.471-1.838-0.724-2.751c0.098-0.069,0.149-0.204,0.074-0.299c0.54-0.893,0.941-1.897,1.304-2.867
						c0.027-0.073-0.079-0.117-0.111-0.046c-0.417,0.925-0.874,1.739-1.455,2.538c-0.539-1.88-1.144-3.741-1.874-5.565
						c-0.068-0.169-0.318-0.055-0.257,0.114c0.642,1.784,1.182,3.595,1.674,5.419c-1.317-0.692-2.741-1.372-3.812-2.368
						c-0.055-0.052-0.144,0.021-0.091,0.079c0.599,0.649,1.331,1.119,2.064,1.603c0.655,0.433,1.283,1,2.01,1.317
						c0.257,0.982,0.5,1.969,0.733,2.957c-1.068,0.303-2.067,0.539-3.223,0.202c-1.414-0.413-2.544-1.345-3.261-2.626
						c-0.088-0.157-0.345-0.037-0.254,0.119c0.688,1.182,1.721,2.116,2.994,2.643c1.34,0.555,2.527,0.378,3.839,0.069
						c0.267,1.143,0.527,2.288,0.782,3.435c-1.155-0.121-2.323-0.438-3.438-0.708c-1.8-0.436-3.161-1.333-4.85-1.981
						c-0.169-0.065-0.276,0.192-0.108,0.26c1.597,0.638,2.891,1.532,4.581,1.986c1.217,0.327,2.61,0.798,3.906,0.856
						c0.013,0.06,0.027,0.121,0.04,0.181c-0.006,0.016-0.015,0.03-0.021,0.046c-0.043,0.115,0.007,0.201,0.085,0.243
						c0.244,1.098,0.489,2.197,0.744,3.293c0.016,0.068,0.034,0.136,0.05,0.205c-2.817,0.018-7.148-0.213-8.709-2.764
						c-0.149-0.243-0.498,0.007-0.317,0.241c2.106,2.729,6.087,2.52,9.169,3.108c0.298,1.235,0.616,2.464,0.953,3.688
						c-1.74,0.182-3.464,0.208-5.189-0.207c-1.569-0.378-3.701-0.722-4.874-1.893c-0.037-0.037-0.089,0.023-0.054,0.06
						c1.131,1.18,3.033,1.468,4.536,1.932c1.908,0.59,3.761,0.982,5.713,0.664c0.01,0.056,0.031,0.109,0.066,0.154
						c0.217,0.775,0.438,1.548,0.663,2.32c-2.921,1.096-7.865,0.792-10.299-0.671c-0.011-0.007-0.02,0.01-0.009,0.018
						c1.74,1.17,3.67,1.43,5.73,1.475c1.539,0.034,3.231,0.134,4.696-0.42c0.419,1.429,0.845,2.856,1.267,4.284
						c-1.436,0.114-2.834,0.499-4.271,0.577c-2.136,0.118-4.113-0.537-5.914-1.634c-0.109-0.066-0.231,0.089-0.121,0.16
						c3.398,2.195,6.631,1.798,10.463,1.429c0.345,1.172,0.684,2.346,1.012,3.523c-2.934,0.738-7.182,0.716-9.633-0.989
						c-0.18-0.125-0.387,0.145-0.206,0.272c1.559,1.098,3.483,1.355,5.352,1.415c1.346,0.043,3.271,0.257,4.614-0.25
						c0.011,0.039,0.022,0.077,0.033,0.116c0.466,1.697,0.884,3.407,1.274,5.123c-3.361,0.645-6.343-0.679-9.501-1.747
						c-0.22-0.074-0.354,0.258-0.134,0.336c3.248,1.155,6.276,2.545,9.749,1.914c0.313,1.399,0.607,2.801,0.888,4.207
						c-2.895,0.476-6.279-0.161-8.909-1.478c-0.186-0.094-0.299,0.203-0.119,0.298c2.778,1.464,6.057,2.019,9.137,1.725
						c0.298,1.51,0.584,3.022,0.865,4.535c-2.819,0.825-5.614,0.121-8.205-1.207c-0.06-0.031-0.116,0.072-0.056,0.106
						c2.373,1.334,5.629,2.633,8.364,1.656c0.09,0.483,0.179,0.966,0.268,1.449c0.054,0.292,0.107,0.588,0.159,0.887
						c-2.257,0.34-4.431,0.485-6.692-0.09c-0.063-0.016-0.082,0.079-0.021,0.098c2.209,0.677,4.513,0.754,6.79,0.44
						c0.157,0.914,0.312,1.857,0.477,2.814c-0.599,0-1.193-0.029-1.806,0.06c-1.125,0.164-2.056-0.165-3.156-0.281
						c-0.101-0.011-0.138,0.142-0.034,0.157c0.983,0.141,1.809,0.528,2.821,0.451c0.749-0.057,1.493-0.03,2.236-0.044
						c0.665,3.794,1.534,7.751,3.475,10.786c0.43,0.673,1.723,0.303,1.554-0.548C358.178,368.483,356.981,365.989,356.132,363.466z"
						/>
				</g>
				<g>
					
						<linearGradient id="SVGID_00000137817307166775682990000007025299650096740021_" gradientUnits="userSpaceOnUse" x1="552.5735" y1="16.139" x2="503.8899" y2="77.5101" gradientTransform="matrix(0.6073 -0.7945 0.7945 0.6073 6.1873 714.3383)">
						<stop  offset="0" style="stop-color:#606BF1"/>
						<stop  offset="1" style="stop-color:#58479F"/>
					</linearGradient>
					<path style="fill:url(#SVGID_00000137817307166775682990000007025299650096740021_);" d="M377.417,328.42
						c0.465,10.51,5.385,27.367-7.148,33.402c-3.375,1.625-7.436,0.027-10.219-2.277c-3.641-3.015-6.268-10.681-7.352-15.171
						c-0.859-3.559-0.649-7.823-1.164-11.501c-0.556-3.974-1.193-7.936-1.719-11.914c-1.894-14.338,2.432-27.85,12.983-37.912
						c2.108,4.331,5.257,7.652,8.281,11.558c1.378,1.78,2.699,3.692,3.797,5.646c1.945,3.46,1.676,7.521,1.671,11.306
						C376.54,317.152,377.169,322.824,377.417,328.42z"/>
					<path style="fill:#747DED;" d="M368.117,362.723c-0.118-0.862-0.226-1.726-0.327-2.591c1.578-0.403,2.995-1.716,4.147-2.737
						c1.998-1.772,3.43-3.952,4.774-6.235c0.072-0.122-0.131-0.238-0.212-0.125c-1.418,1.968-2.915,3.905-4.807,5.446
						c-1.054,0.859-2.571,2.21-4,2.759c-0.114-1.035-0.212-2.072-0.299-3.109c1.593-0.617,2.827-2.077,4.01-3.255
						c2.011-2.002,3.588-4.333,5.254-6.615c0.019-0.026-0.019-0.055-0.039-0.031c-2.635,3.159-5.387,7.403-9.284,9.165
						c-0.1-1.302-0.185-2.605-0.236-3.908c-0.003-0.068-0.004-0.136-0.007-0.204c4.422-2.389,6.681-6.901,9.542-10.81
						c0.046-0.063-0.042-0.148-0.092-0.084c-2.863,3.666-5.412,7.669-9.476,10.124c-0.066-1.865-0.114-3.729-0.16-5.592
						c3.876-2.656,6.657-6.023,8.763-10.266c0.035-0.071-0.067-0.133-0.108-0.063c-2.279,4-5.217,6.708-8.675,9.531
						c-0.046-1.844-0.094-3.687-0.165-5.529c1.619-1.377,3.424-2.422,4.83-4.049c1.387-1.605,2.543-3.393,3.184-5.422
						c0.034-0.107-0.126-0.159-0.165-0.055c-1.523,4.042-4.858,6.023-7.885,8.712c-0.072-1.715-0.169-3.431-0.301-5.146
						c3.343-3.12,7.061-6.168,8.226-10.821c0.012-0.046-0.055-0.071-0.07-0.025c-1.38,4.354-5.045,7.005-8.226,9.989
						c-0.026-0.305-0.046-0.61-0.074-0.915c-0.147-1.584-0.31-3.167-0.478-4.749c2.006-1.458,3.813-3.256,5.491-5.071
						c1.19-1.288,2.48-2.593,3.045-4.286c0.035-0.106-0.123-0.167-0.163-0.062c-1.329,3.51-5.454,6.388-8.446,8.732
						c-0.171-1.597-0.344-3.194-0.514-4.792c3.167-3.207,7.248-5.569,8.518-10.227c0.038-0.139-0.167-0.205-0.213-0.068
						c-1.442,4.325-5.346,6.533-8.385,9.549c-0.104-0.99-0.206-1.98-0.303-2.971c3.661-2.504,7.501-7.07,8.708-11.256
						c0.066-0.23-0.272-0.344-0.354-0.118c-1.362,3.75-4.845,8.332-8.427,10.586c-0.152-1.607-0.293-3.214-0.408-4.825
						c0.017-0.049,0.026-0.099,0.026-0.152c1.677-0.991,3.146-2.722,4.467-4.083c1.592-1.64,3.051-3.448,3.741-5.657
						c0.076-0.244-0.317-0.352-0.383-0.105c-0.985,3.653-4.698,6.873-7.912,8.986c-0.038-0.589-0.079-1.177-0.109-1.766
						c-0.046-0.882-0.087-1.764-0.127-2.646c1.191-1.36,2.901-2.3,4.083-3.718c1.028-1.233,1.849-2.612,2.646-4
						c0.079-0.138-0.123-0.269-0.21-0.134c-1.114,1.743-2.284,3.44-3.822,4.842c-0.86,0.784-1.918,1.374-2.733,2.201
						c-0.065-1.443-0.131-2.885-0.209-4.326c0.017-0.007,0.032-0.017,0.048-0.024c0.018-0.001,0.036-0.002,0.054-0.003
						c0.105-0.006,0.175-0.061,0.219-0.133c1.836-0.99,2.91-3.058,3.864-4.83c0.023-0.042-0.037-0.079-0.064-0.039
						c-1.06,1.628-2.274,3.44-3.987,4.458c-0.008,0-0.013-0.003-0.022-0.003c-0.049,0.005-0.097,0.009-0.147,0.013
						c-0.067-1.172-0.147-2.343-0.243-3.512c0.135-0.061,0.228-0.214,0.159-0.347c0.863-0.961,1.584-2.089,2.249-3.184
						c0.05-0.082-0.069-0.161-0.125-0.082c-0.721,1.028-1.465,1.912-2.357,2.749c-0.22-2.41-0.524-4.812-0.99-7.199
						c-0.043-0.221-0.374-0.14-0.339,0.079c0.367,2.318,0.605,4.645,0.78,6.976c-1.441-1.146-3.014-2.303-4.086-3.761
						c-0.056-0.075-0.18-0.008-0.129,0.076c0.578,0.927,1.359,1.669,2.138,2.427c0.697,0.678,1.329,1.512,2.138,2.066
						c0.086,1.254,0.152,2.509,0.207,3.765c-1.369,0.121-2.638,0.177-3.964-0.501c-1.624-0.83-2.781-2.224-3.356-3.948
						c-0.071-0.212-0.411-0.125-0.337,0.086c0.563,1.597,1.602,2.97,3.028,3.906c1.5,0.985,2.984,1.045,4.651,0.973
						c0.06,1.452,0.111,2.904,0.156,4.357c-1.376-0.414-2.722-1.07-4.016-1.656c-2.087-0.946-3.535-2.353-5.437-3.531
						c-0.19-0.118-0.38,0.17-0.191,0.291c1.793,1.146,3.16,2.531,5.11,3.475c1.403,0.679,2.988,1.575,4.55,1.945
						c0.002,0.077,0.005,0.153,0.007,0.23c-0.011,0.018-0.025,0.033-0.036,0.051c-0.08,0.13-0.038,0.246,0.047,0.316
						c0.043,1.392,0.086,2.784,0.142,4.175c0.004,0.087,0.01,0.174,0.013,0.261c-3.429-0.63-8.641-1.914-9.948-5.377
						c-0.125-0.33-0.607-0.107-0.441,0.22c1.929,3.806,6.816,4.473,10.427,5.902c0.076,1.57,0.178,3.138,0.305,4.704
						c-2.158-0.181-4.259-0.549-6.261-1.454c-1.821-0.822-4.332-1.735-5.487-3.43c-0.036-0.053-0.114,0.007-0.079,0.06
						c1.101,1.697,3.348,2.487,5.067,3.399c2.183,1.159,4.345,2.064,6.792,2.13c-0.001,0.07,0.012,0.139,0.045,0.202
						c0.084,0.992,0.174,1.983,0.269,2.974c-3.805,0.656-9.744-0.858-12.366-3.2c-0.012-0.011-0.027,0.008-0.016,0.019
						c1.845,1.825,4.131,2.588,6.624,3.12c1.863,0.398,3.897,0.911,5.806,0.577c0.178,1.834,0.366,3.667,0.549,5.501
						c-1.772-0.194-3.561-0.05-5.326-0.287c-2.624-0.352-4.875-1.605-6.811-3.356c-0.117-0.106-0.302,0.055-0.185,0.166
						c3.623,3.456,7.645,3.721,12.389,4.159c0.149,1.505,0.288,3.011,0.414,4.517c-3.737,0.218-8.897-0.793-11.482-3.433
						c-0.19-0.194-0.504,0.087-0.314,0.283c1.641,1.696,3.921,2.454,6.178,2.96c1.626,0.364,3.917,1.069,5.667,0.764
						c0.004,0.049,0.009,0.099,0.013,0.148c0.174,2.171,0.286,4.346,0.363,6.522c-4.235,0.006-7.554-2.294-11.145-4.324
						c-0.25-0.141-0.49,0.231-0.241,0.377c3.681,2.156,7.04,4.547,11.408,4.584c0.057,1.773,0.09,3.546,0.106,5.32
						c-3.63-0.092-7.596-1.649-10.488-3.86c-0.205-0.157-0.411,0.178-0.214,0.335c3.038,2.423,6.896,3.857,10.709,4.212
						c0.013,1.905,0.01,3.809,0.001,5.713c-3.618,0.35-6.853-1.153-9.695-3.367c-0.066-0.052-0.157,0.061-0.092,0.115
						c2.576,2.171,6.234,4.505,9.784,3.949c-0.003,0.608-0.006,1.216-0.009,1.823c-0.002,0.367-0.007,0.739-0.012,1.115
						c-2.823-0.11-5.499-0.436-8.115-1.659c-0.073-0.034-0.119,0.078-0.049,0.115c2.529,1.334,5.312,1.961,8.153,2.106
						c-0.021,1.148-0.051,2.33-0.072,3.532c-0.728-0.139-1.444-0.312-2.21-0.345c-1.406-0.062-2.461-0.676-3.771-1.072
						c-0.12-0.036-0.201,0.141-0.078,0.183c1.163,0.399,2.077,1.061,3.324,1.202c0.924,0.105,1.822,0.309,2.728,0.464
						c-0.07,4.766,0.07,9.777,1.727,13.917c0.368,0.918,2.025,0.767,2.016-0.306C369.442,369.295,368.565,365.986,368.117,362.723z"
						/>
				</g>
				<polygon style="fill:#95A8B5;" points="384.335,366.66 383.871,375.203 383.145,388.506 381.955,410.363 352.363,410.363 
					351.173,388.506 350.448,375.203 349.984,366.66 				"/>
				<polygon style="fill:#A5B7C6;" points="383.871,375.203 383.776,376.916 383.68,378.689 383.145,388.506 351.173,388.506 
					350.638,378.689 350.543,376.916 350.448,375.203 				"/>
				<polygon style="fill:#95A8B5;" points="383.776,376.916 383.68,378.689 350.638,378.689 350.543,376.916 				"/>
			</g>
		</g>
	</g>
</g>
<g id="Designed_By_Freepik">
	<g>
		<g id="XMLID_319_">
			<g id="XMLID_338_">
				<path id="XMLID_346_" style="fill:#A5B7C6;" d="M260.104,467.949c-0.432,0.443-0.803,0.931-1.108,1.453l-0.465-0.241
					c-0.067-0.298-0.349-0.503-0.659-0.466c-0.331,0.039-0.568,0.339-0.529,0.67c0.039,0.331,0.339,0.568,0.67,0.529
					c0.066-0.008,0.127-0.026,0.184-0.052l0.451,0.234c-0.251,0.554-0.433,1.139-0.539,1.744l0.746,0.132
					c0.23-1.306,0.85-2.507,1.792-3.473L260.104,467.949z"/>
				<path id="XMLID_345_" style="fill:#A5B7C6;" d="M265.592,465.647c-0.171,0-0.341,0.006-0.51,0.017l-0.074-0.626
					c0.188-0.149,0.296-0.389,0.266-0.645c-0.046-0.393-0.402-0.674-0.795-0.628c-0.393,0.046-0.674,0.402-0.628,0.795
					c0.03,0.254,0.189,0.461,0.404,0.564l0.074,0.624c-0.714,0.116-1.403,0.332-2.06,0.646l0.327,0.684
					c0.934-0.447,1.942-0.673,2.995-0.673c0.496,0,0.993,0.053,1.475,0.158l0.161-0.741
					C266.692,465.706,266.142,465.647,265.592,465.647z"/>
				<path id="XMLID_344_" style="fill:#A5B7C6;" d="M272.194,468.194c0.331-0.04,0.566-0.342,0.525-0.672
					c-0.04-0.331-0.341-0.566-0.672-0.526c-0.309,0.038-0.535,0.304-0.53,0.609l-0.416,0.363c-0.418-0.43-0.889-0.813-1.408-1.139
					l-0.404,0.641c1.134,0.715,2.021,1.726,2.563,2.925l0.69-0.313c-0.251-0.554-0.568-1.072-0.942-1.545l0.402-0.351
					C272.065,468.199,272.129,468.202,272.194,468.194z"/>
				<path id="XMLID_343_" style="fill:#A5B7C6;" d="M265.044,475.855c-0.386,0.023-0.775,0.035-1.157,0.035
					c-0.88,0-1.733-0.061-2.478-0.179c-0.39-0.062-0.846-0.155-1.27-0.292c1.046,1.861,3.069,3.125,5.388,3.125
					c2.855,0,5.262-1.916,5.95-4.504c-0.682,0.449-1.505,0.825-2.459,1.123C267.839,475.53,266.463,475.77,265.044,475.855z"/>
				<path id="XMLID_339_" style="fill:#A5B7C6;" d="M265.592,467.163c-3.352,0-6.08,2.666-6.08,5.943
					c0,0.426,0.046,0.849,0.137,1.261c0.674,0.483,2.706,0.89,5.348,0.731c2.879-0.173,5.297-0.957,6.672-2.159
					c-0.006-0.195-0.021-0.39-0.045-0.582C271.244,469.396,268.65,467.163,265.592,467.163z M263.432,473.678
					c-1.02,0-1.85-0.83-1.85-1.85c0-1.02,0.83-1.85,1.85-1.85c1.02,0,1.85,0.83,1.85,1.85
					C265.282,472.848,264.452,473.678,263.432,473.678z M268.17,472.769c-0.75,0-1.36-0.61-1.36-1.36c0-0.75,0.61-1.361,1.36-1.361
					c0.75,0,1.361,0.61,1.361,1.361C269.53,472.159,268.92,472.769,268.17,472.769z"/>
			</g>
			<path id="XMLID_336_" style="fill:#A5B7C6;" d="M281.595,469.03c-0.295-0.116-0.806-0.309-1.382-0.237
				c-0.551,0.069-0.844,0.341-0.844,1.007v0.866h2.228v1.717h-2.228v5.455h-1.932v-5.455h-1.34v-1.717h1.34v-0.888
				c0-1.68,0.895-2.783,2.568-2.783c0.642,0,1.157,0.122,1.59,0.308L281.595,469.03z"/>
			<path id="XMLID_334_" style="fill:#A5B7C6;" d="M286.298,472.362c-0.177-0.03-0.358-0.046-0.526-0.046
				c-0.896,0-1.51,0.548-1.51,1.613v3.908h-1.932v-7.172h1.873v0.785c0.451-0.673,1.14-0.977,2.021-0.977
				c0.414,0,0.848,0.128,1.094,0.337L286.298,472.362z"/>
			<path id="XMLID_331_" style="fill:#A5B7C6;" d="M293.965,474.24c0,0.222-0.015,0.489-0.037,0.651h-5.085
				c0.207,1.036,0.933,1.488,1.843,1.488c0.622,0,1.295-0.252,1.813-0.688l1.133,1.243c-0.814,0.748-1.85,1.088-3.057,1.088
				c-2.198,0-3.723-1.495-3.723-3.753c0-2.258,1.48-3.797,3.627-3.797C292.544,470.473,293.958,472.005,293.965,474.24z
				 M288.851,473.574h3.175c-0.178-0.918-0.733-1.436-1.562-1.436C289.554,472.138,289.021,472.686,288.851,473.574z"/>
			<path id="XMLID_328_" style="fill:#A5B7C6;" d="M301.618,474.24c0,0.222-0.015,0.489-0.037,0.651h-5.085
				c0.207,1.036,0.932,1.488,1.843,1.488c0.622,0,1.295-0.252,1.814-0.688l1.132,1.243c-0.814,0.748-1.85,1.088-3.057,1.088
				c-2.198,0-3.723-1.495-3.723-3.753c0-2.258,1.48-3.797,3.627-3.797C300.197,470.473,301.611,472.005,301.618,474.24z
				 M296.504,473.574h3.175c-0.178-0.918-0.733-1.436-1.562-1.436C297.207,472.138,296.674,472.686,296.504,473.574z"/>
			<path id="XMLID_325_" style="fill:#A5B7C6;" d="M309.964,474.248c0,2.154-1.495,3.775-3.471,3.775
				c-0.962,0-1.643-0.378-2.109-0.933v3.708h-1.924v-10.133h1.887v0.792c0.466-0.585,1.155-0.984,2.139-0.984
				C308.469,470.473,309.964,472.094,309.964,474.248z M304.287,474.248c0,1.132,0.747,1.976,1.843,1.976
				c1.14,0,1.85-0.881,1.85-1.976c0-1.095-0.711-1.976-1.85-1.976C305.035,472.271,304.287,473.115,304.287,474.248z"/>
			<path id="XMLID_322_" style="fill:#A5B7C6;" d="M313.067,468.319c0,0.696-0.54,1.229-1.236,1.229
				c-0.696,0-1.229-0.533-1.229-1.229c0-0.696,0.533-1.243,1.229-1.243C312.527,467.076,313.067,467.623,313.067,468.319z
				 M312.808,477.837h-1.932v-7.172h1.932V477.837z"/>
			<path id="XMLID_320_" style="fill:#A5B7C6;" d="M316.032,473.219l2.702-2.554h2.368l-3.479,3.375l3.501,3.797h-2.376
				l-2.716-2.901v2.901H314.1v-10.658h1.932V473.219z"/>
		</g>
		<g>
			<path style="fill:#A5B7C6;" d="M184.412,477.772v-1.055c-0.527,0.718-1.391,1.23-2.388,1.23c-1.846,0-3.149-1.406-3.149-3.706
				c0-2.256,1.289-3.721,3.149-3.721c0.952,0,1.816,0.469,2.388,1.245v-3.765h1.099v9.77H184.412z M184.412,475.853v-3.208
				c-0.395-0.615-1.245-1.143-2.124-1.143c-1.421,0-2.27,1.172-2.27,2.739c0,1.567,0.85,2.724,2.27,2.724
				C183.168,476.967,184.017,476.469,184.412,475.853z"/>
			<path style="fill:#A5B7C6;" d="M186.932,474.228c0-2.051,1.465-3.706,3.486-3.706c2.139,0,3.398,1.67,3.398,3.794v0.279h-5.727
				c0.088,1.333,1.025,2.446,2.549,2.446c0.805,0,1.626-0.322,2.182-0.893l0.527,0.718c-0.703,0.703-1.655,1.084-2.812,1.084
				C188.44,477.948,186.932,476.439,186.932,474.228z M190.403,471.43c-1.509,0-2.256,1.274-2.314,2.358h4.643
				C192.718,472.733,192.015,471.43,190.403,471.43z"/>
			<path style="fill:#A5B7C6;" d="M194.607,476.835l0.571-0.791c0.469,0.542,1.362,1.011,2.329,1.011c1.084,0,1.67-0.513,1.67-1.216
				c0-1.714-4.38-0.659-4.38-3.281c0-1.098,0.952-2.036,2.636-2.036c1.201,0,2.051,0.454,2.622,1.025l-0.513,0.762
				c-0.424-0.513-1.201-0.894-2.109-0.894c-0.967,0-1.567,0.483-1.567,1.113c0,1.552,4.38,0.527,4.38,3.281
				c0,1.187-0.952,2.138-2.783,2.138C196.306,477.948,195.325,477.596,194.607,476.835z"/>
			<path style="fill:#A5B7C6;" d="M201.477,468.954c0-0.41,0.337-0.747,0.732-0.747c0.41,0,0.747,0.337,0.747,0.747
				c0,0.41-0.337,0.732-0.747,0.732C201.814,469.686,201.477,469.365,201.477,468.954z M201.667,477.772v-7.075h1.099v7.075H201.667
				z"/>
			<path style="fill:#A5B7C6;" d="M204.582,479.589l0.556-0.82c0.586,0.703,1.289,0.967,2.3,0.967c1.172,0,2.27-0.571,2.27-2.124
				V476.6c-0.513,0.718-1.377,1.26-2.373,1.26c-1.845,0-3.149-1.377-3.149-3.662c0-2.27,1.289-3.676,3.149-3.676
				c0.952,0,1.802,0.469,2.373,1.245v-1.069h1.098v6.87c0,2.344-1.641,3.076-3.369,3.076
				C206.237,480.643,205.417,480.409,204.582,479.589z M209.709,475.736v-3.091c-0.381-0.615-1.23-1.143-2.109-1.143
				c-1.421,0-2.27,1.128-2.27,2.695c0,1.553,0.849,2.695,2.27,2.695C208.478,476.893,209.328,476.352,209.709,475.736z"/>
			<path style="fill:#A5B7C6;" d="M217.413,477.772v-4.629c0-1.245-0.63-1.641-1.582-1.641c-0.865,0-1.685,0.527-2.095,1.099v5.17
				h-1.099v-7.075h1.099v1.025c0.498-0.586,1.465-1.201,2.519-1.201c1.48,0,2.256,0.747,2.256,2.285v4.966H217.413z"/>
			<path style="fill:#A5B7C6;" d="M219.932,474.228c0-2.051,1.465-3.706,3.486-3.706c2.139,0,3.398,1.67,3.398,3.794v0.279h-5.727
				c0.088,1.333,1.025,2.446,2.549,2.446c0.806,0,1.626-0.322,2.183-0.893l0.527,0.718c-0.703,0.703-1.655,1.084-2.812,1.084
				C221.441,477.948,219.932,476.439,219.932,474.228z M223.404,471.43c-1.509,0-2.256,1.274-2.314,2.358h4.643
				C225.718,472.733,225.015,471.43,223.404,471.43z"/>
			<path style="fill:#A5B7C6;" d="M233.35,477.772v-1.055c-0.527,0.718-1.392,1.23-2.388,1.23c-1.846,0-3.149-1.406-3.149-3.706
				c0-2.256,1.289-3.721,3.149-3.721c0.952,0,1.817,0.469,2.388,1.245v-3.765h1.098v9.77H233.35z M233.35,475.853v-3.208
				c-0.396-0.615-1.245-1.143-2.124-1.143c-1.421,0-2.27,1.172-2.27,2.739c0,1.567,0.849,2.724,2.27,2.724
				C232.105,476.967,232.954,476.469,233.35,475.853z"/>
			<path style="fill:#A5B7C6;" d="M239.692,477.772v-9.77h1.098v3.765c0.572-0.776,1.421-1.245,2.388-1.245
				c1.845,0,3.149,1.465,3.149,3.721c0,2.299-1.304,3.706-3.149,3.706c-0.996,0-1.86-0.513-2.388-1.23v1.055H239.692z
				 M242.9,476.967c1.436,0,2.285-1.157,2.285-2.724c0-1.568-0.85-2.739-2.285-2.739c-0.864,0-1.728,0.527-2.109,1.143v3.208
				C241.171,476.469,242.036,476.967,242.9,476.967z"/>
			<path style="fill:#A5B7C6;" d="M247.528,479.545c0.161,0.073,0.425,0.117,0.601,0.117c0.483,0,0.805-0.161,1.055-0.747
				l0.469-1.069l-2.959-7.148h1.187l2.358,5.801l2.344-5.801h1.201l-3.545,8.51c-0.425,1.025-1.143,1.421-2.08,1.435
				c-0.234,0-0.601-0.044-0.805-0.103L247.528,479.545z"/>
		</g>
	</g>
</g>
</svg>
