<?xml version="1.0" encoding="utf-8"?>
<!-- Generator: Adobe Illustrator 27.5.0, SVG Export Plug-In . SVG Version: 6.00 Build 0)  -->
<svg version="1.1" id="Ñëîé_1" xmlns="http://www.w3.org/2000/svg" xmlns:xlink="http://www.w3.org/1999/xlink" x="0px" y="0px"
	 viewBox="0 0 2695.12 2500" style="enable-background:new 0 0 2695.12 2500;" xml:space="preserve">
<g>
	<rect x="0" style="fill:#FFFFFF;" width="2695.12" height="2500"/>
</g>
<g>
	<g>
		<path style="fill:#404059;" d="M1145.311,250.309c-6.535,3.268-19.606,6.535-36.349,6.535c-38.807,0-68.011-24.508-68.011-69.642
			c0-43.093,29.204-72.296,71.889-72.296c17.154,0,27.983,3.675,32.677,6.128l-4.288,14.499c-6.741-3.268-16.338-5.72-27.772-5.72
			c-32.272,0-53.714,20.63-53.714,56.776c0,33.697,19.401,55.348,52.893,55.348c10.824,0,21.853-2.247,29.004-5.72L1145.311,250.309
			z"/>
		<path style="fill:#404059;" d="M1255.197,204.562c0,36.557-25.326,52.488-49.22,52.488c-26.751,0-47.378-19.606-47.378-50.854
			c0-33.084,21.647-52.485,49.015-52.485C1236.002,153.711,1255.197,174.338,1255.197,204.562z M1176.773,205.583
			c0,21.651,12.461,37.989,30.025,37.989c17.154,0,30.019-16.136,30.019-38.396c0-16.746-8.372-37.986-29.614-37.986
			C1185.966,167.189,1176.773,186.795,1176.773,205.583z"/>
		<path style="fill:#404059;" d="M1364.268,109.8v119.475c0,8.782,0.205,18.788,0.815,25.528h-16.133l-0.816-17.157h-0.411
			c-5.515,11.029-17.564,19.404-33.697,19.404c-23.894,0-42.274-20.219-42.274-50.241c-0.205-32.879,20.216-53.098,44.316-53.098
			c15.112,0,25.326,7.148,29.82,15.112h0.405V109.8H1364.268z M1346.293,196.191c0-2.247-0.199-5.312-0.815-7.559
			c-2.652-11.434-12.455-20.829-25.936-20.829c-18.585,0-29.614,16.338-29.614,38.191c0,20.014,9.803,36.557,29.204,36.557
			c12.05,0,23.079-7.967,26.347-21.445c0.616-2.452,0.815-4.901,0.815-7.761V196.191z"/>
		<path style="fill:#404059;" d="M1415.131,128.183c0.205,6.125-4.288,11.026-11.44,11.026c-6.33,0-10.824-4.902-10.824-11.026
			c0-6.333,4.699-11.234,11.234-11.234C1410.842,116.948,1415.131,121.85,1415.131,128.183z M1395.114,254.803v-98.848h17.975
			v98.848H1395.114z"/>
		<path style="fill:#404059;" d="M1443.93,182.709c0-10.211-0.205-18.582-0.815-26.754h15.928l1.027,16.338h0.405
			c4.905-9.392,16.338-18.582,32.677-18.582c13.687,0,34.923,8.169,34.923,42.069v59.023h-17.969v-56.979
			c0-15.931-5.925-29.207-22.874-29.207c-11.85,0-21.037,8.374-24.1,18.383c-0.821,2.244-1.226,5.309-1.226,8.372v59.431h-17.975
			V182.709z"/>
		<path style="fill:#404059;" d="M1643.474,155.955c-0.405,7.148-0.815,15.115-0.815,27.165v57.387
			c0,22.671-4.494,36.557-14.092,45.134c-9.598,8.987-23.49,11.848-35.944,11.848c-11.845,0-24.915-2.86-32.882-8.169l4.494-13.684
			c6.535,4.083,16.743,7.758,28.998,7.758c18.38,0,31.861-9.598,31.861-34.513v-11.029h-0.411
			c-5.515,9.19-16.133,16.544-31.451,16.544c-24.505,0-42.069-20.832-42.069-48.199c0-33.492,21.853-52.485,44.521-52.485
			c17.154,0,26.552,8.985,30.84,17.154h0.405l0.821-14.91H1643.474z M1624.889,194.965c0-3.065-0.205-5.72-1.021-8.169
			c-3.268-10.416-12.05-18.993-25.12-18.993c-17.154,0-29.409,14.499-29.409,37.373c0,19.401,9.803,35.537,29.204,35.537
			c11.029,0,21.037-6.943,24.921-18.38c1.021-3.065,1.426-6.535,1.426-9.601V194.965z"/>
	</g>
	<g>
		<g>
			<g>
				<g>
					<g>
						<g>
							<path style="fill:#F0F0F0;" d="M1080.347,1594.833c-23.323-0.262-46.479-1.152-68.825-2.645l0.697-10.415
								c22.155,1.48,45.114,2.363,68.244,2.621L1080.347,1594.833z M1149.184,1593.868l-0.401-10.432
								c22.351-0.858,45.305-2.268,68.222-4.186l0.87,10.401C1194.803,1591.585,1171.692,1593.004,1149.184,1593.868z
								 M942.938,1585.474c-23.354-3.055-46.239-6.891-68.016-11.402l2.117-10.221c21.528,4.458,44.154,8.252,67.252,11.273
								L942.938,1585.474z M1286.304,1582.458l-1.308-10.357c22.314-2.815,45.079-6.147,67.661-9.9l1.713,10.296
								C1331.651,1576.274,1308.751,1579.626,1286.304,1582.458z M1421.995,1559.945l-2.097-10.226
								c22.087-4.526,44.545-9.55,66.752-14.934l2.46,10.146C1466.783,1550.343,1444.201,1555.395,1421.995,1559.945z
								 M807.996,1557.159c-22.841-6.908-44.71-14.823-65.002-23.527l4.115-9.592c19.937,8.551,41.44,16.332,63.908,23.13
								L807.996,1557.159z M1555.651,1527.566l-2.81-10.054c21.786-6.086,43.855-12.659,65.595-19.535l3.146,9.953
								C1599.732,1514.841,1577.549,1521.447,1555.651,1527.566z M681.355,1502.046c-20.605-12.581-39.379-26.482-55.799-41.319
								l7-7.744c15.938,14.401,34.187,27.911,54.24,40.153L681.355,1502.046z M1686.806,1486.101l-3.476-9.844
								c21.478-7.586,43.053-15.619,64.122-23.872l3.807,9.718C1730.08,1470.401,1708.396,1478.475,1686.806,1486.101z
								 M1814.86,1435.917l-4.142-9.582c20.991-9.078,41.953-18.585,62.303-28.261l4.482,9.426
								C1857.042,1417.229,1835.967,1426.79,1814.86,1435.917z M579.582,1408.435c-13.289-19.504-23.758-40.498-31.117-62.403
								l9.895-3.323c7.054,20.997,17.097,41.134,29.849,59.848L579.582,1408.435z M1939.077,1376.814l-4.832-9.253
								c20.34-10.624,40.527-21.669,59.999-32.829l5.192,9.055C1979.845,1355.016,1959.537,1366.127,1939.077,1376.814z
								 M2058.422,1308.339l-5.566-8.831c19.479-12.279,38.658-24.973,57.005-37.729l5.96,8.57
								C2097.345,1283.194,2078.035,1295.975,2058.422,1308.339z M535.596,1277.433c-0.221-4.446-0.333-8.974-0.333-13.454
								c0-18.191,1.831-37.012,5.442-55.942l10.255,1.957c-3.49,18.284-5.258,36.448-5.258,53.985c0,4.309,0.107,8.661,0.319,12.938
								L535.596,1277.433z M2171.38,1229.67l-6.378-8.264c18.322-14.139,36.125-28.668,52.919-43.183l6.826,7.897
								C2207.807,1200.76,2189.852,1215.412,2171.38,1229.67z M569.998,1145.282l-9.711-3.826
								c8.084-20.51,18.221-41.487,30.133-62.349l9.066,5.175C587.82,1104.714,577.898,1125.238,569.998,1145.282z
								 M2275.47,1139.465l-7.312-7.448c16.624-16.32,32.406-32.972,46.908-49.494l7.846,6.886
								C2308.24,1106.123,2292.278,1122.964,2275.47,1139.465z M2366.166,1035.605l-8.43-6.157
								c13.847-18.96,26.324-38.121,37.087-56.949l9.062,5.182C2392.931,996.844,2380.24,1016.332,2366.166,1035.605z
								 M636.545,1027.316l-8.434-6.154c13.06-17.897,27.605-36.005,43.232-53.82l7.846,6.884
								C663.769,991.808,649.421,1009.669,636.545,1027.316z M726.084,924.721l-7.316-7.448
								c15.945-15.659,33.006-31.361,50.712-46.671l6.826,7.897C758.768,893.664,741.871,909.214,726.084,924.721z
								 M2434.053,915.349l-9.708-3.833c8.626-21.844,15.049-43.611,19.093-64.697l10.251,1.964
								C2449.526,870.509,2442.918,892.904,2434.053,915.349z M829.216,835.301l-6.378-8.264
								c17.792-13.736,36.48-27.425,55.546-40.687l5.96,8.57C865.421,808.083,846.872,821.668,829.216,835.301z M2448.447,779.899
								c-1.099-22.635-5.224-44.776-12.261-65.808l9.694-3.914l0.105,0.311c7.44,22.229,11.743,45.315,12.887,68.905
								L2448.447,779.899z M941.344,757.177l-5.568-8.831c19.093-12.039,38.937-23.969,58.976-35.461l5.192,9.056
								C980.031,733.36,960.315,745.215,941.344,757.177z M1059.942,689.103l-4.832-9.253
								c20.058-10.477,40.772-20.805,61.565-30.697l4.485,9.426C1100.483,668.417,1079.886,678.687,1059.942,689.103z
								 M2406.076,653.724c-12.204-17.866-27.143-34.817-44.399-50.383l6.991-7.751c17.871,16.118,33.357,33.696,46.028,52.245
								L2406.076,653.724z M1183.459,630.311l-4.145-9.58c20.846-9.015,42.243-17.831,63.596-26.198l3.809,9.718
								C1225.478,612.575,1204.193,621.344,1183.459,630.311z M1310.839,580.368l-3.479-9.842
								c10.897-3.852,21.973-7.662,32.921-11.325c10.669-3.571,21.536-7.109,32.299-10.513l3.15,9.952
								c-10.709,3.388-21.521,6.906-32.136,10.459C1332.701,572.745,1321.68,576.535,1310.839,580.368z M2307.402,563.234
								c-18.398-11.215-38.696-21.599-60.332-30.865l4.108-9.596c22.092,9.461,42.836,20.075,61.657,31.548L2307.402,563.234z
								 M1441.321,539.095l-2.81-10.055c22.09-6.176,44.475-12.02,66.538-17.372l2.46,10.143
								C1485.563,527.136,1463.295,532.951,1441.321,539.095z M2183.146,509.27c-20.923-6.318-43.138-11.923-66.03-16.657
								l2.114-10.221c23.196,4.796,45.716,10.476,66.934,16.884L2183.146,509.27z M1574.256,506.867l-2.097-10.224
								c22.498-4.614,45.25-8.841,67.624-12.567l1.716,10.296C1619.252,498.077,1596.628,502.28,1574.256,506.867z
								 M1709.159,484.461l-1.308-10.357c22.931-2.895,45.954-5.321,68.426-7.207l0.873,10.401
								C1754.822,479.174,1731.946,481.583,1709.159,484.461z M2049.861,481.364c-21.913-2.861-44.768-5.092-67.928-6.633
								l0.693-10.415c23.379,1.554,46.455,3.807,68.587,6.697L2049.861,481.364z M1845.37,473.097l-0.404-10.432
								c18.152-0.702,36.332-1.057,54.036-1.057c0.066,0,0.134,0,0.195,0c4.89,0,9.757,0.027,14.606,0.08l-0.112,10.438
								c-4.869-0.054-9.781-0.131-14.671-0.08C1881.443,472.047,1863.395,472.4,1845.37,473.097z"/>
						</g>
					</g>
				</g>
				<g>
					<g>
						<g>
							<path style="fill:#F0F0F0;" d="M1636.67,2091.633c-0.034,0-0.065,0-0.099,0c-7.263,0-14.553-0.049-21.869-0.15l0.143-10.438
								c7.3,0.1,14.54,0.056,21.827,0.149c22.214,0,44.538-0.484,66.36-1.437l0.455,10.428
								C1681.515,2091.147,1659.035,2091.633,1636.67,2091.633z M1525.982,2087.846c-29.176-1.976-58.913-4.76-88.385-8.274
								l1.237-10.364c29.295,3.491,58.854,6.259,87.855,8.223L1525.982,2087.846z M1792.091,2083.581l-1.104-10.381
								c29.608-3.148,58.981-7.277,87.306-12.267l1.811,10.279C1851.546,2076.245,1821.933,2080.406,1792.091,2083.581z
								 M1349.748,2066.903c-28.899-4.886-58.213-10.563-87.13-16.871l2.226-10.199c28.755,6.274,57.908,11.918,86.644,16.777
								L1349.748,2066.903z M1967.025,2052.507l-2.593-10.112c28.993-7.436,57.347-16.016,84.274-25.5l3.468,9.846
								C2024.959,2036.325,1996.311,2044.994,1967.025,2052.507z M1176.377,2029.126c-14.341-3.828-28.877-7.885-43.206-12.061
								c-14.073-4.101-28.21-8.395-42.021-12.761l3.146-9.953c13.736,4.343,27.798,8.614,41.794,12.693
								c14.253,4.152,28.713,8.189,42.977,11.996L1176.377,2029.126z M2134.568,1993.043l-4.451-9.443
								c27.195-12.822,53.142-26.968,77.119-42.044l5.556,8.838C2188.461,1965.692,2162.142,1980.041,2134.568,1993.043z
								 M1007.138,1975.631c-27.804-10.213-55.592-21.169-82.594-32.563l4.057-9.616c26.85,11.329,54.486,22.224,82.135,32.379
								L1007.138,1975.631z M843.599,1906.578c-26.794-12.881-53.385-26.504-79.034-40.49l4.998-9.164
								c25.493,13.901,51.924,27.442,78.559,40.245L843.599,1906.578z M2284.779,1897.752l-6.772-7.944
								c22.781-19.417,43.505-40.315,61.601-62.111l8.033,6.667C2329.162,1856.62,2308.014,1877.947,2284.779,1897.752z
								 M687.748,1821.511c-25.391-15.671-50.369-32.083-74.24-48.782l5.984-8.553c23.707,16.584,48.517,32.887,73.738,48.453
								L687.748,1821.511z M2397.782,1760.413l-9.185-4.961c13.872-25.687,25.019-52.816,33.128-80.636l0.381-1.31l10.031,2.893
								l-0.396,1.359C2423.431,1706.263,2412.004,1734.079,2397.782,1760.413z M542.3,1719.592
								c-23.483-18.706-46.234-38.115-67.619-57.685l7.047-7.7c21.21,19.411,43.777,38.662,67.075,57.219L542.3,1719.592z
								 M411.383,1599.465c-20.682-22.061-40.201-44.751-58.016-67.439l8.209-6.446c17.629,22.448,36.949,44.905,57.422,66.745
								L411.383,1599.465z M2447.629,1588.277l-10.415-0.714c0.664-9.676,1.001-19.536,1.001-29.309
								c-0.002-19.045-1.276-38.543-3.79-57.95l10.354-1.34c2.569,19.849,3.874,39.797,3.875,59.291
								C2448.654,1568.265,2448.309,1578.365,2447.629,1588.277z M301.92,1459.382c-16.286-25.751-30.799-51.976-43.135-77.947
								l9.429-4.478c12.156,25.593,26.465,51.448,42.527,76.846L301.92,1459.382z M2415.609,1414.894
								c-8.366-27.014-19.157-54.464-32.075-81.588l9.426-4.489c13.131,27.576,24.107,55.498,32.62,82.988L2415.609,1414.894z
								 M226.26,1298.41c-8.991-29.164-15.413-58.499-19.085-87.187l10.354-1.325c3.597,28.096,9.891,56.842,18.707,85.438
								L226.26,1298.41z M2340.936,1256.5c-15.214-24.01-32.336-48.145-50.891-71.739l8.206-6.453
								c18.772,23.87,36.1,48.298,51.502,72.605L2340.936,1256.5z M214.877,1122.635l-10.411-0.734
								c2.103-29.89,7.365-59.527,15.637-88.09l10.027,2.905C222.062,1064.571,216.93,1093.479,214.877,1122.635z
								 M2232.578,1118.053c-19.613-20.896-40.731-41.703-62.767-61.842l7.042-7.706c22.231,20.32,43.541,41.317,63.336,62.406
								L2232.578,1118.053z M2102.702,999.027c-22.566-17.958-46.358-35.695-70.716-52.719l5.98-8.556
								c24.535,17.146,48.502,35.014,71.236,53.106L2102.702,999.027z M263.123,956.024l-9.191-4.944
								c13.86-25.767,30.693-50.673,50.029-74.031l8.039,6.656C293.104,906.533,276.658,930.864,263.123,956.024z M1958.229,897.889
								c-24.686-15.223-50.374-30.114-76.35-44.261l4.991-9.168c26.14,14.237,51.992,29.224,76.836,44.543L1958.229,897.889z
								 M373.518,821.514l-6.782-7.936c21.879-18.695,46.079-36.434,71.927-52.724l5.566,8.831
								C418.804,785.706,395.013,803.145,373.518,821.514z M1803.304,813.411c-26.239-12.601-53.322-24.798-80.494-36.251
								l4.054-9.62c27.328,11.519,54.567,23.786,80.959,36.462L1803.304,813.411z M1640.662,744.812
								c-27.392-10.051-55.509-19.638-83.57-28.492l3.141-9.956c28.213,8.903,56.482,18.541,84.024,28.648L1640.662,744.812z
								 M521.308,727.571l-4.458-9.438c26.025-12.297,53.738-23.656,82.367-33.763l3.476,9.844
								C574.397,704.202,547.015,715.425,521.308,727.571z M1472.312,691.662c-28.417-7.571-57.279-14.555-85.782-20.761
								l2.222-10.201c28.658,6.24,57.677,13.264,86.248,20.875L1472.312,691.662z M686.948,668.656l-2.599-10.109
								c28.013-7.205,57.253-13.517,86.911-18.76l1.818,10.279C743.682,655.263,714.704,661.517,686.948,668.656z M1299.877,654.156
								c-29.052-4.901-58.441-9.128-87.347-12.562l1.23-10.367c29.076,3.454,58.635,7.707,87.853,12.637L1299.877,654.156z
								 M860.373,637.752l-1.108-10.381c28.906-3.089,58.716-5.325,88.599-6.645l0.462,10.428
								C918.658,632.467,889.065,634.685,860.373,637.752z M1124.67,633.404c-29.513-1.986-59.173-3.189-88.159-3.576l0.139-10.438
								c29.173,0.391,59.022,1.602,88.72,3.6L1124.67,633.404z"/>
						</g>
					</g>
				</g>
			</g>
			<g>
				<g>
					<path style="fill:#F0F0F0;" d="M736.304,1600.698c-433.664,97.436-391.561,204.438-431.645,286.798
						c-40.084,82.359-172.861,214.584,80.167,311.311c253.028,96.727,371.321-66.087,480.024-21.005
						s-39.689,129.702,127.201,196.369c166.89,66.667,354.841-96.173,466.294-96.173c111.453,0,632.349,105.219,814.073,0
						s80.899-260.322,130.059-325.569c49.16-65.246,156.885-79.875,131.833-205.338s-464.821-181.755-965.189-204.966
						S778.331,1591.255,736.304,1600.698z"/>
				</g>
			</g>
			<g>
				<g>
					
						<ellipse transform="matrix(0.2298 -0.9732 0.9732 0.2298 1051.7838 2463.6685)" style="fill:#E5E5E5;" cx="2082.382" cy="567.341" rx="49.677" ry="49.677"/>
				</g>
			</g>
			<g>
				<g>
					<circle style="fill:#E5E5E5;" cx="2224.747" cy="801.135" r="21.236"/>
				</g>
			</g>
			<g>
				<g>
					<circle style="fill:#E5E5E5;" cx="2512.254" cy="929.146" r="35.515"/>
				</g>
			</g>
			<g>
				<g>
					<circle style="fill:#E5E5E5;" cx="1158.058" cy="484.076" r="35.515"/>
				</g>
			</g>
			<g>
				<g>
					<circle style="fill:#E5E5E5;" cx="1231.357" cy="753.842" r="14.802"/>
				</g>
			</g>
			<g>
				<g>
					<circle style="fill:#E5E5E5;" cx="134.345" cy="1368.509" r="14.802"/>
				</g>
			</g>
			<g>
				<g>
					<circle style="fill:#E5E5E5;" cx="306.465" cy="1134.51" r="14.802"/>
				</g>
			</g>
			<g>
				<g>
					<circle style="fill:#E5E5E5;" cx="291.662" cy="801.135" r="14.802"/>
				</g>
			</g>
			<g>
				<g>
					<circle style="fill:#E5E5E5;" cx="523.769" cy="563.234" r="14.802"/>
				</g>
			</g>
			<g>
				<g>
					<circle style="fill:#E5E5E5;" cx="2278.007" cy="1547.365" r="14.802"/>
				</g>
			</g>
			<g>
				<g>
					<path style="fill:#E5E5E5;" d="M2484.607,1665.798l-32.776-124.189l-116.949-53.11l263.367-70.542L2484.607,1665.798z
						 M2370.385,1491.426l91.606,41.6l25.678,97.279l89.013-194.133L2370.385,1491.426z"/>
				</g>
				<g>
					
						<rect x="2436.748" y="1476.182" transform="matrix(0.7639 -0.6453 0.6453 0.7639 -361.042 1977.476)" style="fill:#E5E5E5;" width="170.88" height="12.018"/>
				</g>
			</g>
			<g>
				<g>
					<circle style="fill:#E5E5E5;" cx="1586.754" cy="544.488" r="27.874"/>
				</g>
				<g>
					
						<ellipse transform="matrix(0.9239 -0.3827 0.3827 0.9239 -106.2538 701.0681)" style="fill:#E5E5E5;" cx="1709.126" cy="617.621" rx="27.874" ry="27.874"/>
				</g>
				<g>
					<circle style="fill:#E5E5E5;" cx="1828.792" cy="567.341" r="27.874"/>
				</g>
				<g>
					
						<ellipse transform="matrix(0.9239 -0.3827 0.3827 0.9239 -119.8648 785.9817)" style="fill:#E5E5E5;" cx="1915.765" cy="694.291" rx="27.874" ry="27.874"/>
				</g>
				<g>
					<polygon style="fill:#E5E5E5;" points="1910.807,697.686 1826.581,574.741 1705.607,624.334 1583.618,549.609 
						1589.895,539.366 1706.686,610.906 1831.004,559.94 1920.721,690.899 					"/>
				</g>
			</g>
			<g>
				<g>
					<path style="fill:#E5E5E5;" d="M169.594,1655.616l-72.722-172.482l251.106-105.876l72.722,172.482L169.594,1655.616z
						 M112.606,1489.534L176,1639.876l228.965-96.537l-63.394-150.342L112.606,1489.534z"/>
				</g>
				<g>
					<polygon style="fill:#E5E5E5;" points="273.062,1550.297 102.791,1492.019 106.687,1480.65 266.808,1535.455 339.348,1382.552 
						350.201,1387.703 					"/>
				</g>
			</g>
			<g>
				<g>
					<path style="fill:#E5E5E5;" d="M782.149,600.189c0,2.479-0.876,4.522-2.624,6.124c-1.748,1.602-3.791,2.406-6.124,2.406
						c-1.457,0-2.769-0.363-3.936-1.094l-85.071-51.172c-3.06-1.753-4.589-4.299-4.589-7.654c0-2.769,1.53-5.321,4.589-7.654
						l85.071-51.178c1.457-0.726,2.914-1.094,4.377-1.094c2.328,0,4.294,0.736,5.901,2.188c1.602,1.462,2.406,3.355,2.406,5.689
						c0,3.355-1.385,5.901-4.154,7.654l-74.134,44.172l74.134,44.177C780.765,594.651,782.149,597.129,782.149,600.189z"/>
				</g>
				<g>
					<path style="fill:#E5E5E5;" d="M871.924,455.856c1.379-0.876,2.951-1.312,4.698-1.312c2.479,0,4.486,0.84,6.015,2.515
						s2.297,3.682,2.297,6.01c0,1.172-0.218,2.333-0.658,3.5l-68.669,171.454c-1.167,3.205-3.791,4.807-7.872,4.807
						c-2.334,0-4.299-0.799-5.901-2.401c-1.608-1.607-2.406-3.578-2.406-5.906c0-1.167,0.218-2.406,0.653-3.718l68.669-171.236
						C869.476,457.966,870.534,456.727,871.924,455.856z"/>
				</g>
				<g>
					<path style="fill:#E5E5E5;" d="M1004.335,548.799c0,3.355-1.53,5.901-4.594,7.654l-85.066,51.172
						c-1.022,0.731-2.333,1.094-3.936,1.094c-2.334,0-4.377-0.804-6.124-2.406c-1.753-1.602-2.624-3.646-2.624-6.124
						c0-3.06,1.385-5.538,4.154-7.436l74.134-44.177l-74.134-44.172c-2.769-1.753-4.154-4.299-4.154-7.654
						c0-2.334,0.799-4.226,2.406-5.689c1.602-1.452,3.568-2.188,5.901-2.188c1.457,0,2.914,0.368,4.377,1.094l85.066,51.178
						C1002.805,543.478,1004.335,546.03,1004.335,548.799z"/>
				</g>
			</g>
		</g>
		<g>
			<g>
				<path style="fill:#FEDE8C;" d="M2512.254,1296.971c-65.396,73.93-265.254,130.241-406.332,254.051
					c-141.078,123.81-196.209,254.989-258.046,276.698s-180.234-23.868-271.249-165.513s-69.762-183.197-56.716-200.448
					c13.046-17.252,151.974-89.809,324.592-231.122s398.719-325.565,398.719-325.565L2512.254,1296.971z"/>
			</g>
			<g>
				<path style="fill:#FFEDC7;" d="M2280.468,1167.795c-18.763-27.333-33.817-55.137-44.964-82.283
					c-33.262-80.178-32.459-152.86,7.718-180.441c118.576-57.894,207.014,167.615,207.014,167.615s22.722-3.155,38.095-17.856
					c0,0-0.054-0.078-0.029-0.211c62.837,102.277,74.31,207.782,23.952,242.352c-37.279,25.591-98.602,5.583-157.605-45.286
					C2328.68,1229.298,2303.21,1200.923,2280.468,1167.795z"/>
			</g>
			<g>
				<path style="fill:#FFFFFF;" d="M2280.468,1167.795c-18.763-27.333-33.817-55.137-44.964-82.283
					c29.084-25.612,105.525-68.178,105.525-68.178s-21.288,50.564,13.079,111.2c34.313,60.559,81.46,57.231,99.37,31.455
					c18.012-25.962,4.699-67.176-0.957-81.961c18.658,44.804,23.983,77.906,8.298,98.698
					c-11.233,14.855-70.268,52.732-106.17,74.958C2328.68,1229.298,2303.21,1200.923,2280.468,1167.795z"/>
			</g>
			<g>
				<g>
					<g>
						<path style="fill:#EC321E;" d="M1846.952,1219.455c1.411-0.969,3.172-1.435,5-1.182c3.898,0.531,6.625,4.127,6.088,8.024
							c-4.474,32.626,39.179,138.087,108.665,216.925c35.811,40.635,91.552,88.935,153.723,88.289
							c3.931-0.043,7.157,3.115,7.197,7.049c0.045,3.942-3.116,7.164-7.049,7.197c-67.563,0.708-126.78-50.247-164.562-93.113
							c-69.885-79.296-117.64-187.832-112.085-228.283C1844.21,1222.288,1845.357,1220.55,1846.952,1219.455z"/>
					</g>
				</g>
				<g>
					<g>
						<path style="fill:#EC321E;" d="M2089.494,1302.234c24.294-16.678,48.462-27.901,69.541-27.929
							c16.293-0.017,29.768,6.441,40.055,19.206c13.814,17.14,15.473,37.218,4.788,58.067
							c-26.489,51.722-134.673,105.318-239.797,99.583c-4.03-0.215-7.557-2.649-9.209-6.343c-1.647-3.686-1.102-7.925,1.415-11.059
							l0,0C1977.18,1407.709,2033.647,1340.572,2089.494,1302.234z M2150.554,1386.919c19.063-13.086,33.314-27.528,40.645-41.838
							c8.037-15.683,6.956-30.026-3.197-42.629c-7.55-9.367-17.021-13.909-28.946-13.898
							c-61.082,0.084-158.872,113.98-187.239,148.672C2039.509,1439.199,2107.365,1416.568,2150.554,1386.919z"/>
					</g>
				</g>
				<g>
					<g>
						<path style="fill:#EC321E;" d="M1956.814,1238.247c11.889-8.162,27.006-9.712,39.202-7.861
							c18.548,2.818,32.499,12.927,36.414,26.392c11.031,37.927-27.37,112.325-50.315,156.776c-4.11,7.97-7.623,14.77-10.075,19.902
							c-1.857,3.925-6.009,6.179-10.319,5.621c-4.296-0.562-7.726-3.805-8.529-8.081l-0.004,0.003
							c-19.035-100.948-21.52-160.258-7.6-181.32C1948.728,1244.924,1952.566,1241.164,1956.814,1238.247z M1964.888,1415.889
							c1.414-2.76,2.946-5.724,4.568-8.869c20.527-39.77,58.732-113.797,49.291-146.26c-2.274-7.829-12.267-14.37-24.866-16.282
							c-12.209-1.853-28.177,0.597-36.408,13.055C1951.16,1267.087,1944.011,1300.406,1964.888,1415.889z"/>
					</g>
				</g>
				<g>
					<g>
						<path style="fill:#EC321E;" d="M1787.077,1396.228c0.937-0.643,2.038-1.072,3.246-1.205c3.91-0.434,7.433,2.386,7.863,6.299
							c1.969,17.8,9.341,30.49,22.533,38.791c43.533,27.379,133.057-3.578,133.953-3.895l15.729-5.526l-6.876,15.185
							c-6.234,13.777-62.571,134.121-120.19,118.899c-10.968-2.896-18.961-9.123-23.76-18.499
							c-11.769-23.011,1.066-57.022,1.62-58.46c1.412-3.664,5.527-5.505,9.198-4.092c3.672,1.407,5.508,5.524,4.108,9.197
							c-3.12,8.167-9.6,32.51-2.228,46.888c2.919,5.687,7.727,9.346,14.703,11.19c34.291,9.064,76.28-57.001,96.517-96.464
							c-29.474,8.148-92.691,21.327-130.361-2.363c-16.872-10.613-26.67-27.196-29.109-49.287
							C1783.727,1400.182,1784.982,1397.667,1787.077,1396.228z"/>
					</g>
				</g>
			</g>
		</g>
		<g>
			<g>
				<path style="fill:#BBEFEC;" d="M481.505,1039.964c80.067,58.635,97.439,171.058,38.804,251.125
					c-58.635,80.067-171.093,97.487-251.16,38.852c-62.619-45.858-86.877-124.678-66.39-195.155l117.678,86.178l81.128-16.834
					l-8.474-82.377l-117.678-86.178C336.37,994.736,418.837,994.071,481.505,1039.964z"/>
			</g>
			<g>
				<path style="fill:#BBEFEC;" d="M997.33,1863.204c-80.067-58.635-97.439-171.058-38.804-251.125
					c58.635-80.067,171.093-97.487,251.16-38.852c62.619,45.858,86.877,124.678,66.39,195.155l-117.678-86.178l-81.128,16.834
					l8.474,82.377l117.678,86.178C1142.465,1908.432,1059.998,1909.097,997.33,1863.204z"/>
			</g>
			<g>
				
					<rect x="697.41" y="1128.337" transform="matrix(0.5908 -0.8068 0.8068 0.5908 -874.8049 1228.4498)" style="fill:#BBEFEC;" width="152.626" height="696.712"/>
			</g>
		</g>
		<g>
			<g>
				<path style="fill:#8A66AA;" d="M778.201,943.315c-51.462,80.801-174.859,123.258-197.466,121.933
					c-22.607-1.325-44.058-146.001,1.551-167.507C627.895,876.234,778.201,943.315,778.201,943.315z"/>
			</g>
			<g>
				<path style="fill:#8A66AA;" d="M855.091,834.155c-1.076,5.755-48.73,40.554-71.83,57.133c-0.13,0.112-0.282,0.193-0.412,0.305
					c-7.194,5.157-11.882,8.46-11.882,8.46l-43.051,33.857l-100.308-18.762c-0.857,0.495-1.689,0.995-2.525,1.522
					c-6.571,4.017-12.87,8.193-18.89,12.477l-19.088,102.05c-4.817-1.12-10.755-2.531-17.523-4.179
					c-11.263-2.735-24.789-6.084-39.098-9.772c-3.778-0.98-7.635-1.974-11.514-3c-52.823-13.951-110.992-31.607-106.02-40.512
					c56.137-100.311,197.302-230.015,218.626-227.611C671.07,750.558,856.513,826.553,855.091,834.155z"/>
			</g>
			<g>
				<path style="fill:#B292CA;" d="M787.697,901.898l-0.031,0.022l-56.741,32.553l-103.317-19.325
					c-0.857,0.495-1.689,0.995-2.525,1.522c-6.571,4.017-12.87,8.193-18.89,12.477l-16.111,86.133l-20.5,11.738l-37.004,21.246
					c-0.969-2.121-1.988-4.415-3.035-6.851c-0.021-0.031-0.043-0.063-0.033-0.115c-3.369-7.843-7.061-17.167-10.54-27.052
					c-8.775-24.946-16.408-53.666-14.864-72.147c5.248-63.112,175.458-151.648,218.279-115.335
					c38.653,32.747,54.442,53.35,60.876,64.525C787.488,898.635,787.697,901.898,787.697,901.898z"/>
			</g>
			<g>
				<path style="fill:#8A66AA;" d="M530.484,1017.245c7.884-26.665,35.707-59.737,75.709-88.099l-25.457,136.102
					c-22.832,1.275-40.308-4.179-48.158-16.986c-1.322-2.132-2.315-4.422-3.035-6.851c-0.021-0.031-0.043-0.063-0.033-0.115
					C527.441,1034.243,527.871,1026.1,530.484,1017.245z"/>
			</g>
			<g>
				<path style="fill:#8A66AA;" d="M778.201,943.315l-150.594-28.168c67.035-40.408,135.115-50.623,155.241-23.554
					c0.503,0.668,0.976,1.357,1.416,2.068c1.575,2.535,2.695,5.312,3.4,8.259C790.533,913.466,786.968,927.853,778.201,943.315z"/>
			</g>
			<g>
				<g>
					<g>
						<path style="fill:#FCCE3A;" d="M490.012,1006.422v99.037h7.394v-97.026C494.941,1007.784,492.477,1007.07,490.012,1006.422z"
							/>
					</g>
				</g>
				<g>
					<g>
						<path style="fill:#FCCE3A;" d="M520.891,1229.938c0,0-8.735,4.027-21.63,4.027c-11.68,0-21.423-1.858-21.423-1.858
							l4.336-65.665l-10.221,64.426l-8.931-4.027l19.514-102.833c0.31-6.195-4.801-27.154,10.945-27.877
							c16.623-0.774,11.047,28.187,11.047,28.187L520.891,1229.938z"/>
					</g>
					<g>
						<path style="fill:#FD9724;" d="M504.526,1124.317c-2.323,1.858-17.861,2.426-21.992-0.309
							c0.31-6.195-4.801-27.154,10.945-27.877C510.102,1095.356,504.526,1124.317,504.526,1124.317z"/>
					</g>
				</g>
			</g>
		</g>
		<g>
			<g>
				<path style="fill:#0071A1;" d="M379.286,1934.749c0,0,15.314,51.048,38.286,61.258
					c22.972,10.21,1824.973,28.077,1842.839,15.315c17.867-12.762,33.181-56.153,33.181-56.153s-791.247-63.81-1082.222-74.02
					S379.286,1934.749,379.286,1934.749z"/>
			</g>
			<g>
				<path style="fill:#0C87B3;" d="M677.918,1722.899c-153.144,89.334-313.946,183.774-298.632,211.85
					c15.314,28.076,1896.44,48.496,1914.307,20.419c17.867-28.076-288.422-232.269-288.422-232.269l-614.386-12.762
					L677.918,1722.899z"/>
			</g>
			<g>
				<path style="fill:#0071A1;" d="M677.918,1722.899c0,0-104.649-763.17-71.467-793.799
					c33.181-30.629,1444.664-17.867,1477.845,25.524c33.181,43.391-79.125,768.275-79.125,768.275H677.918z"/>
			</g>
			<g>
				<path style="fill:#BBEFEC;" d="M1997.681,1070.384c-0.058,2.505-0.058,5.067-0.117,7.745c-0.058,1.281-0.117,2.505-0.117,3.844
					c-0.932,25.566-3.261,57.479-6.581,93.177c-0.35,3.261-0.582,6.522-0.99,9.901c-9.609,100.165-26.381,227.469-40.648,329.09
					c-0.466,3.377-0.933,6.639-1.398,9.901c-13.511,95.274-24.401,165.681-24.401,165.681H766.226c0,0-9.608-70.058-21.664-165.681
					c-0.407-3.261-0.756-6.581-1.223-9.901c-0.35-2.854-0.757-5.824-1.106-8.735c-11.997-96.963-25.915-215.822-34.767-314.182
					c-0.35-3.319-0.583-6.639-0.933-9.901c-3.261-37.096-5.765-70.989-7.163-99.35c-0.058-1.282-0.117-2.563-0.117-3.844
					c-0.64-14.093-0.99-26.73-0.99-37.562c0.058-24.051,1.747-39.542,5.649-43.211c4.193-3.785,32.496-6.814,78.153-9.084
					c16.072-0.815,34.301-1.514,54.45-2.097c3.203-0.117,6.522-0.233,9.842-0.349c15.666-0.407,32.263-0.815,49.85-1.223
					c67.496-1.398,148.152-1.979,234.807-1.863c3.261-0.058,6.58-0.058,9.841,0c25.566,0.058,51.597,0.175,77.92,0.291
					c94.458,0.641,192.76,1.98,286.404,4.019c3.261,0.116,6.58,0.174,9.842,0.291c61.556,1.456,120.897,3.144,175.58,5.125
					c21.955,0.873,43.212,1.631,63.536,2.62c26.031,1.107,50.548,2.388,73.318,3.727c3.378,0.233,6.581,0.407,9.842,0.582
					c1.223,0.117,2.388,0.233,3.552,0.292c40.299,2.504,74.192,5.183,99.7,8.211c30.224,3.553,48.626,7.454,51.888,11.764
					c2.795,3.728,4.484,13.161,5.125,27.08C1997.797,1053.554,1997.855,1061.474,1997.681,1070.384z"/>
			</g>
			<g>
				<g>
					<polygon style="fill:#5EBAB3;" points="735.347,1788.529 835.21,1788.529 812.292,1834.526 686.426,1832.771 					"/>
				</g>
				<g>
					<polygon style="fill:#5EBAB3;" points="872.326,1788.529 993.246,1788.529 983.515,1836.866 859.936,1835.164 					"/>
				</g>
				<g>
					<polygon style="fill:#5EBAB3;" points="1025.843,1788.529 1142.988,1788.529 1139.904,1839.046 1024.035,1837.451 					"/>
				</g>
				<g>
					<polygon style="fill:#5EBAB3;" points="1176.488,1788.529 1291.772,1788.529 1291.772,1841.12 1179.945,1839.578 					"/>
				</g>
				<g>
					<polygon style="fill:#5EBAB3;" points="1449.703,1788.529 1465.762,1843.513 1324.475,1841.599 1315.808,1788.529 					"/>
				</g>
				<g>
					<polygon style="fill:#5EBAB3;" points="1618.853,1788.529 1644.696,1846.012 1507.397,1844.098 1486.499,1788.529 					"/>
				</g>
				<g>
					<polygon style="fill:#5EBAB3;" points="1794.544,1788.529 1832.351,1848.618 1682.344,1846.544 1648.524,1788.529 					"/>
				</g>
				<g>
					<polygon style="fill:#5EBAB3;" points="2010.807,1851.063 1870.371,1849.149 1870.318,1849.149 1821.025,1788.529 
						1949.017,1788.529 					"/>
				</g>
			</g>
			<g>
				<path style="fill:#5EBAB3;" d="M1821.025,1773.308v15.221c0,0,21.43,11.26,21.111,0.732
					C1841.816,1778.733,1821.025,1773.308,1821.025,1773.308z"/>
			</g>
			<g>
				<path style="fill:#5EBAB3;" d="M2010.807,1835.843v15.221c0,0-27.97-10.222-23.504-17.667
					C1991.77,1825.952,2010.807,1835.843,2010.807,1835.843z"/>
			</g>
			<g>
				<path style="fill:#5EBAB3;" d="M1648.524,1773.308v15.221c0,0,24.195,12.537,22.281,2.008
					C1668.891,1780.009,1648.524,1773.308,1648.524,1773.308z"/>
			</g>
			<g>
				<path style="fill:#5EBAB3;" d="M1832.351,1833.397v15.221c0,0-28.183-9.584-23.078-18.199
					C1814.378,1821.804,1832.351,1833.397,1832.351,1833.397z"/>
			</g>
			<g>
				<path style="fill:#5EBAB3;" d="M1486.499,1773.308v15.221c0,0,10.742,13.813,15.208,3.603
					C1506.175,1781.923,1486.499,1773.308,1486.499,1773.308z"/>
			</g>
			<g>
				<path style="fill:#5EBAB3;" d="M1644.696,1830.791v15.221c0,0-21.11-18.303-18.239-23.808S1644.696,1830.791,1644.696,1830.791z
					"/>
			</g>
			<g>
				<path style="fill:#5EBAB3;" d="M1315.808,1773.308v15.221c0,0,5.955,15.408,10.103,3.922S1315.808,1773.308,1315.808,1773.308z"
					/>
			</g>
			<g>
				<path style="fill:#5EBAB3;" d="M1465.762,1828.292v15.221c0,0-17.654-7.032-16.378-17.241
					C1450.66,1816.062,1465.762,1828.292,1465.762,1828.292z"/>
			</g>
			<g>
				<path style="fill:#5EBAB3;" d="M1176.488,1773.308v15.221c0,0,9.997,11.26,10.954,0.732
					C1188.4,1778.733,1176.488,1773.308,1176.488,1773.308z"/>
			</g>
			<g>
				<path style="fill:#5EBAB3;" d="M1142.988,1773.308v15.221c0,0-10.742,11.26-12.018,3.284
					C1129.694,1783.837,1142.988,1773.308,1142.988,1773.308z"/>
			</g>
			<g>
				<path style="fill:#5EBAB3;" d="M1024.035,1822.23v15.221c0,0,13.772-8.946,11.539-15.806
					C1033.341,1814.785,1024.035,1822.23,1024.035,1822.23z"/>
			</g>
			<g>
				<path style="fill:#5EBAB3;" d="M859.936,1819.943v15.221c0,0,23.131-10.169,19.622-19.103
					C876.048,1807.128,859.936,1819.943,859.936,1819.943z"/>
			</g>
			<g>
				<path style="fill:#5EBAB3;" d="M993.246,1773.308v15.221c0,0-6.806,11.58-10.635,2.965
					C978.783,1782.88,993.246,1773.308,993.246,1773.308z"/>
			</g>
			<g>
				<path style="fill:#5EBAB3;" d="M686.426,1817.55v15.221c0,0,27.864-10.675,27.226-20.074
					C713.013,1803.3,686.426,1817.55,686.426,1817.55z"/>
			</g>
			<g>
				<path style="fill:#5EBAB3;" d="M835.21,1773.308v15.221c0,0-14.676,15.408-20.419,5.518
					C809.048,1784.156,835.21,1773.308,835.21,1773.308z"/>
			</g>
			<g>
				<polygon style="fill:#74C9C2;" points="735.347,1773.308 835.21,1773.308 812.292,1819.305 686.426,1817.55 				"/>
			</g>
			<g>
				<polygon style="fill:#74C9C2;" points="872.326,1773.308 993.246,1773.308 983.515,1821.645 859.936,1819.943 				"/>
			</g>
			<g>
				<polygon style="fill:#74C9C2;" points="1025.843,1773.308 1142.988,1773.308 1139.904,1823.825 1024.035,1822.23 				"/>
			</g>
			<g>
				<polygon style="fill:#74C9C2;" points="1176.488,1773.308 1291.772,1773.308 1291.772,1825.899 1179.945,1824.357 				"/>
			</g>
			<g>
				<polygon style="fill:#74C9C2;" points="1449.703,1773.308 1465.762,1828.292 1324.475,1826.378 1315.808,1773.308 				"/>
			</g>
			<g>
				<polygon style="fill:#74C9C2;" points="1618.853,1773.308 1644.696,1830.791 1507.397,1828.877 1486.499,1773.308 				"/>
			</g>
			<g>
				<polygon style="fill:#74C9C2;" points="1794.544,1773.308 1832.351,1833.397 1682.344,1831.323 1648.524,1773.308 				"/>
			</g>
			<g>
				<polygon style="fill:#74C9C2;" points="2010.807,1835.843 1870.371,1833.928 1870.318,1833.928 1821.025,1773.308 
					1949.017,1773.308 				"/>
			</g>
			<g>
				<g>
					<polygon style="fill:#5EBAB3;" points="654.787,1861.712 797.137,1865.115 772.038,1915.472 599.963,1911.324 					"/>
				</g>
				<g>
					<polygon style="fill:#5EBAB3;" points="851.748,1866.392 977.028,1869.37 966.765,1920.205 838.241,1917.068 					"/>
				</g>
				<g>
					<polygon style="fill:#5EBAB3;" points="1022.812,1870.433 1137.777,1873.198 1134.64,1924.246 1020.898,1921.481 					"/>
				</g>
				<g>
					<polygon style="fill:#5EBAB3;" points="1182.284,1874.261 1291.772,1876.867 1291.772,1928.022 1185.794,1925.469 					"/>
				</g>
				<g>
					<polygon style="fill:#5EBAB3;" points="1476.663,1881.228 1491.71,1932.861 1338.673,1929.192 1330.324,1877.771 					"/>
				</g>
				<g>
					<polygon style="fill:#5EBAB3;" points="1662.457,1885.641 1685.8,1937.54 1541.11,1934.03 1541.057,1934.03 1521.649,1882.291 
											"/>
				</g>
				<g>
					<polygon style="fill:#5EBAB3;" points="1858.407,1890.321 1891.27,1942.486 1735.892,1938.763 1705.528,1886.651 					"/>
				</g>
				<g>
					<polygon style="fill:#5EBAB3;" points="2105.99,1947.697 1947.157,1943.868 1904.51,1891.384 2053.879,1894.947 					"/>
				</g>
			</g>
			<g>
				<path style="fill:#5EBAB3;" d="M1904.51,1875.884v15.5c0,0,20.1,7.79,20.579,1.09
					C1925.567,1885.774,1904.51,1875.884,1904.51,1875.884z"/>
			</g>
			<g>
				<path style="fill:#5EBAB3;" d="M2105.99,1932.196v15.5c0,0-21.057-6.844-23.928-17.633
					C2079.19,1919.275,2105.99,1932.196,2105.99,1932.196z"/>
			</g>
			<g>
				<path style="fill:#5EBAB3;" d="M1705.528,1871.151v15.5c0,0,19.037,18.797,21.908,7.764
					C1730.308,1883.381,1705.528,1871.151,1705.528,1871.151z"/>
			</g>
			<g>
				<path style="fill:#5EBAB3;" d="M1891.27,1926.985v15.5c0,0-29.832-7.897-26.482-20.34
					C1868.138,1909.703,1891.27,1926.985,1891.27,1926.985z"/>
			</g>
			<g>
				<path style="fill:#5EBAB3;" d="M1521.649,1866.791v15.5c0,0,10.05,24.594,16.75,12.124
					C1545.099,1881.946,1521.649,1866.791,1521.649,1866.791z"/>
			</g>
			<g>
				<path style="fill:#5EBAB3;" d="M1685.8,1922.04v15.5c0,0-33.5-8.694-28.714-20.18S1685.8,1922.04,1685.8,1922.04z"/>
			</g>
			<g>
				<path style="fill:#5EBAB3;" d="M1330.324,1862.271v15.5c0,0,9.734,26.242,14.864,16.644
					C1350.318,1884.817,1330.324,1862.271,1330.324,1862.271z"/>
			</g>
			<g>
				<path style="fill:#5EBAB3;" d="M1491.71,1917.36v15.5c0,0-21.748-13.693-18.398-20.34
					C1476.662,1905.875,1491.71,1917.36,1491.71,1917.36z"/>
			</g>
			<g>
				<path style="fill:#5EBAB3;" d="M838.241,1901.567v15.5c0,0,20.1-11.034,17.229-19.728
					C852.598,1888.646,838.241,1901.567,838.241,1901.567z"/>
			</g>
			<g>
				<path style="fill:#5EBAB3;" d="M977.028,1853.869v15.5c0,0-3.829,17.382-10.529,10.672
					C959.799,1873.331,977.028,1853.869,977.028,1853.869z"/>
			</g>
			<g>
				<path style="fill:#5EBAB3;" d="M797.137,1849.615v15.5c0,0-17.282,13.958-22.547,7.976S797.137,1849.615,797.137,1849.615z"/>
			</g>
			<g>
				<path style="fill:#5EBAB3;" d="M599.963,1911.324v-15.5c0,0,18.726-15.223,25.12-7.232
					C631.477,1896.584,599.963,1911.324,599.963,1911.324z"/>
			</g>
			<g>
				<path style="fill:#5EBAB3;" d="M1182.284,1858.761v15.5c0,0,3.609,5.763,6.085,1.961
					C1190.845,1872.421,1182.284,1858.761,1182.284,1858.761z"/>
			</g>
			<g>
				<path style="fill:#5EBAB3;" d="M1137.777,1857.698v15.5c0,0,0.458,5.943-4.935,1.698
					C1127.448,1870.652,1137.777,1857.698,1137.777,1857.698z"/>
			</g>
			<g>
				<g>
					<polygon style="fill:#74C9C2;" points="654.787,1846.212 797.137,1849.615 772.038,1899.972 599.963,1895.824 					"/>
				</g>
				<g>
					<polygon style="fill:#74C9C2;" points="851.748,1850.891 977.028,1853.869 966.765,1904.704 838.241,1901.567 					"/>
				</g>
				<g>
					<polygon style="fill:#74C9C2;" points="1022.812,1854.933 1137.777,1857.698 1134.64,1908.746 1020.898,1905.981 					"/>
				</g>
				<g>
					<polygon style="fill:#74C9C2;" points="1182.284,1858.761 1291.772,1861.367 1291.772,1912.521 1185.794,1909.969 					"/>
				</g>
				<g>
					<polygon style="fill:#74C9C2;" points="1476.663,1865.727 1491.71,1917.36 1338.673,1913.692 1330.324,1862.271 					"/>
				</g>
				<g>
					<polygon style="fill:#74C9C2;" points="1662.457,1870.141 1685.8,1922.04 1541.11,1918.53 1541.057,1918.53 1521.649,1866.791 
											"/>
				</g>
				<g>
					<polygon style="fill:#74C9C2;" points="1858.407,1874.82 1891.27,1926.985 1735.892,1923.263 1705.528,1871.151 					"/>
				</g>
				<g>
					<polygon style="fill:#74C9C2;" points="2105.99,1932.196 1947.157,1928.368 1904.51,1875.884 2053.879,1879.446 					"/>
				</g>
			</g>
			<g>
				<g>
					
						<ellipse transform="matrix(0.7071 -0.7071 0.7071 0.7071 -539.7312 1332.1464)" style="fill:#76D8D4;" cx="1338.177" cy="1317.586" rx="225.458" ry="225.458"/>
				</g>
				<g>
					<g>
						<path style="fill:#0C87B3;" d="M1278.257,1369.088c0,2.479-0.876,4.522-2.624,6.124c-1.748,1.602-3.791,2.406-6.124,2.406
							c-1.457,0-2.769-0.363-3.936-1.094l-85.071-51.172c-3.06-1.753-4.589-4.299-4.589-7.654c0-2.769,1.53-5.32,4.589-7.654
							l85.071-51.177c1.457-0.726,2.914-1.094,4.377-1.094c2.328,0,4.294,0.736,5.901,2.188c1.602,1.462,2.406,3.355,2.406,5.689
							c0,3.355-1.385,5.901-4.154,7.654l-74.135,44.172l74.135,44.177C1276.872,1363.55,1278.257,1366.028,1278.257,1369.088z"/>
					</g>
					<g>
						<path style="fill:#0C87B3;" d="M1368.031,1224.755c1.379-0.876,2.951-1.312,4.698-1.312c2.479,0,4.486,0.84,6.015,2.515
							c1.53,1.675,2.297,3.682,2.297,6.01c0,1.172-0.218,2.334-0.659,3.5l-68.669,171.454c-1.167,3.205-3.791,4.807-7.872,4.807
							c-2.334,0-4.299-0.799-5.901-2.401c-1.608-1.608-2.406-3.578-2.406-5.907c0-1.167,0.218-2.406,0.653-3.718l68.669-171.236
							C1365.584,1226.865,1366.641,1225.626,1368.031,1224.755z"/>
					</g>
					<g>
						<path style="fill:#0C87B3;" d="M1500.442,1317.698c0,3.355-1.53,5.901-4.594,7.654l-85.066,51.172
							c-1.022,0.731-2.334,1.094-3.936,1.094c-2.334,0-4.377-0.804-6.124-2.406c-1.753-1.602-2.624-3.646-2.624-6.124
							c0-3.059,1.385-5.538,4.154-7.436l74.135-44.177l-74.135-44.172c-2.769-1.753-4.154-4.299-4.154-7.654
							c0-2.334,0.799-4.226,2.406-5.689c1.602-1.452,3.568-2.188,5.901-2.188c1.457,0,2.914,0.368,4.377,1.094l85.066,51.177
							C1498.913,1312.377,1500.442,1314.929,1500.442,1317.698z"/>
					</g>
				</g>
			</g>
			<g>
				<g>
					<circle style="fill:#76D8D4;" cx="1849.058" cy="1250.047" r="200.004"/>
				</g>
				<g>
					<g>
						<path style="fill:#0C87B3;" d="M1807.038,1219.145c-3.54,0-6.194-2.074-7.964-6.222c-1.549-3.54-2.986-5.697-4.314-6.471
							c-1.161-0.608-4.037-0.913-8.628-0.913c-8.02,0-16.924,6.139-26.713,18.417c-13.274,16.481-19.911,32.106-19.911,46.873
							c0,7.135,2.295,13.274,6.886,18.417c4.701,5.309,10.37,7.964,17.007,7.964c5.697,0,11.421-1.466,17.173-4.397
							c3.208-1.659,8.13-4.922,14.767-9.789c3.152-2.323,5.531-3.484,7.135-3.484c2.378,0,4.369,0.899,5.973,2.696
							s2.406,3.802,2.406,6.015c0,2.489-1.051,4.673-3.152,6.554c-14.601,12.942-29.368,19.413-44.301,19.413
							c-11.448,0-21.127-4.397-29.036-13.191c-7.632-8.517-11.448-18.583-11.448-30.198c0-18.749,7.854-37.968,23.561-57.657
							c13.108-16.426,26.326-24.639,39.655-24.639c2.71,0,5.144,0.124,7.3,0.373c2.157,0.249,4.065,0.65,5.724,1.203
							c1.936-2.821,4.452-4.231,7.549-4.231c3.816,0,6.222,2.516,7.217,7.549c0.885,4.48,1.327,9.983,1.327,16.509
							c0,2.268-0.608,4.259-1.825,5.973C1811.933,1218.066,1809.804,1219.145,1807.038,1219.145z"/>
					</g>
					<g>
						<path style="fill:#0C87B3;" d="M1893.566,1258.883c0,2.046-0.677,3.83-2.032,5.351c-1.355,1.521-3.056,2.281-5.102,2.281
							c-0.664,0-1.659-0.111-2.987-0.332c-1.327-0.221-2.35-0.332-3.069-0.332l-8.296,0.166c-3.374,0.111-6.139,0.111-8.296,0
							v19.495c0,4.978-2.461,7.467-7.383,7.467c-2.433,0-4.272-0.622-5.517-1.867c-1.244-1.244-1.867-3.111-1.867-5.6l-0.083-9.54
							l-0.083-9.623c-6.692,0.387-11.421,0.581-14.186,0.581c-8.573,0-12.859-2.544-12.859-7.632c0-3.595,1.521-5.835,4.563-6.72
							c1.051-0.276,3.816-0.415,8.296-0.415c2.765,0,7.494-0.194,14.186-0.581l-0.083-9.706c0-5.033,0.249-8.517,0.747-10.453
							c0.553-1.991,1.41-3.484,2.572-4.48c1.161-0.996,2.655-1.493,4.48-1.493c2.102,0,3.885,0.677,5.351,2.032
							c1.466,1.355,2.198,3.083,2.198,5.185c0,0.94-0.097,2.433-0.29,4.48c-0.194,2.046-0.29,3.595-0.29,4.646l0.083,9.457
							l6.222,0.249c1.106,0,2.793-0.069,5.061-0.207s3.954-0.207,5.061-0.207
							C1889.031,1251.084,1893.566,1253.684,1893.566,1258.883z"/>
					</g>
					<g>
						<path style="fill:#0C87B3;" d="M1975.199,1258.883c0,2.046-0.678,3.83-2.033,5.351c-1.355,1.521-3.056,2.281-5.102,2.281
							c-0.664,0-1.659-0.111-2.987-0.332s-2.351-0.332-3.07-0.332l-8.296,0.166c-3.374,0.111-6.139,0.111-8.296,0v19.495
							c0,4.978-2.461,7.467-7.384,7.467c-2.433,0-4.272-0.622-5.517-1.867c-1.245-1.244-1.867-3.111-1.867-5.6l-0.083-9.54
							l-0.083-9.623c-6.692,0.387-11.421,0.581-14.186,0.581c-8.573,0-12.859-2.544-12.859-7.632c0-3.595,1.521-5.835,4.563-6.72
							c1.051-0.276,3.816-0.415,8.296-0.415c2.765,0,7.494-0.194,14.186-0.581l-0.083-9.706c0-5.033,0.249-8.517,0.747-10.453
							c0.553-1.991,1.41-3.484,2.572-4.48c1.161-0.996,2.655-1.493,4.48-1.493c2.102,0,3.885,0.677,5.351,2.032
							s2.198,3.083,2.198,5.185c0,0.94-0.097,2.433-0.29,4.48c-0.193,2.046-0.29,3.595-0.29,4.646l0.083,9.457l6.222,0.249
							c1.106,0,2.793-0.069,5.061-0.207c2.268-0.138,3.954-0.207,5.061-0.207
							C1970.664,1251.084,1975.199,1253.684,1975.199,1258.883z"/>
					</g>
				</g>
			</g>
			<g>
				<g>
					
						<ellipse transform="matrix(0.7071 -0.7071 0.7071 0.7071 -195.5826 1301.0997)" style="fill:#76D8D4;" cx="1472.775" cy="886.639" rx="150.305" ry="150.305"/>
				</g>
				<g>
					<g>
						<path style="fill:#0C87B3;" d="M1409.696,859.044c-0.407,1.139-0.61,2.806-0.61,5.002c0,0.813,0.027,2.02,0.081,3.62
							c0.054,1.6,0.081,2.806,0.081,3.62c0,2.711-0.237,6.751-0.712,12.12s-0.712,9.408-0.712,12.12
							c0,2.061,0.149,5.152,0.447,9.273c0.298,4.121,0.447,7.226,0.447,9.313c0,1.112-0.373,2.047-1.118,2.806
							c-0.745,0.759-1.674,1.139-2.786,1.139c-1.084,0-2.006-0.38-2.766-1.139c-0.759-0.759-1.139-1.695-1.139-2.806
							c0-2.088-0.149-5.192-0.447-9.313c-0.298-4.121-0.447-7.212-0.447-9.273c0-1.979,0.068-3.986,0.203-6.019
							c-4.636,0.081-10.371,0.773-17.203,2.074l-17.081,3.335c0,2.44-0.244,5.904-0.732,10.391
							c-0.488,4.487-0.732,7.964-0.732,10.432c0,1.112-0.373,2.054-1.118,2.827c-0.745,0.773-1.674,1.159-2.786,1.159
							c-1.112,0-2.04-0.386-2.786-1.159c-0.746-0.773-1.118-1.715-1.118-2.827c0-2.874,0.237-7.165,0.712-12.872
							c0.474-5.707,0.712-9.998,0.712-12.872c0-1.491-0.054-3.742-0.163-6.751c-0.109-3.01-0.163-5.273-0.163-6.792
							c0-2.142,0.136-5.362,0.407-9.659c0.271-4.297,0.407-7.517,0.407-9.659c0-1.139,0.373-2.088,1.118-2.847
							s1.674-1.139,2.786-1.139c1.112,0,2.04,0.38,2.786,1.139c0.745,0.759,1.118,1.708,1.118,2.847
							c0,2.169-0.142,5.416-0.427,9.741c-0.285,4.324-0.427,7.571-0.427,9.74l0.244,10.29l17.447-3.294
							c6.968-1.301,12.838-1.979,17.61-2.034c0.298-3.877,0.447-9.72,0.447-17.529c0-2.061,0.339-4.148,1.017-6.263
							c0.895-2.901,2.156-4.352,3.782-4.352c1.03,0,1.952,0.373,2.766,1.119c0.813,0.746,1.22,1.688,1.22,2.826
							C1410.062,857.784,1409.94,858.339,1409.696,859.044z"/>
					</g>
					<g>
						<path style="fill:#0C87B3;" d="M1469.847,864.982c-2.006,0-5.097-0.163-9.273-0.488c-4.067-0.298-7.158-0.434-9.273-0.407
							h-2.888c0.081,3.742,0.447,9.815,1.098,18.22c0.597,7.836,0.895,13.923,0.895,18.261c0,0.949,0.095,2.386,0.285,4.311
							c0.19,1.925,0.285,3.376,0.285,4.352c0,1.844-0.298,3.43-0.895,4.758c-0.759,1.789-1.939,2.684-3.538,2.684
							c-1.085,0-2.061-0.38-2.928-1.139c-0.868-0.759-1.301-1.735-1.301-2.928c0-0.407,0.068-1.017,0.203-1.83
							c0.136-0.813,0.203-1.424,0.203-1.83c0-1.328-0.088-3.321-0.264-5.979c-0.176-2.657-0.264-4.664-0.264-6.019
							c0-3.877-0.312-9.327-0.935-16.349c-0.651-7.592-1.017-13.042-1.098-16.349l-3.701,0.041c-5.938,0-10.601-0.434-13.99-1.301
							c-2.196-0.569-3.294-1.911-3.294-4.026c0-1.112,0.353-2.088,1.057-2.928c0.813-0.949,1.857-1.383,3.132-1.301
							c0.949,0.054,3.118,0.298,6.507,0.732c2.711,0.325,4.907,0.488,6.589,0.488c1.627,0,4.094-0.034,7.402-0.102
							s5.775-0.102,7.402-0.102c2.088,0,5.185,0.149,9.293,0.447c4.108,0.298,7.205,0.447,9.293,0.447c1.166,0,2.142,0.4,2.928,1.2
							c0.786,0.8,1.179,1.796,1.179,2.989c0,1.166-0.393,2.149-1.179,2.948C1471.989,864.582,1471.013,864.982,1469.847,864.982z"/>
					</g>
					<g>
						<path style="fill:#0C87B3;" d="M1537.156,919.724c-1.464,0-2.671-0.759-3.62-2.277c-0.813-1.301-1.546-3.471-2.196-6.507
							l-1.464-6.995c-1.112-4.338-2.874-13.909-5.287-28.713l-8.134,24.524l-2.4,7.727c-0.976,3.064-1.993,5.572-3.05,7.524
							c-1.139,2.061-2.671,3.091-4.596,3.091c-1.6,0-2.86-0.868-3.782-2.603c-0.597-1.139-1.139-2.589-1.627-4.352l-1.179-4.514
							c-2.738-9.571-5.151-19.82-7.239-30.746l-1.464,7.28l-5.246,21.474c-0.217,2.522-0.895,6.25-2.034,11.184
							c-0.813,2.115-2.156,3.172-4.026,3.172c-1.329,0-2.386-0.474-3.172-1.423c-0.678-0.813-1.017-1.817-1.017-3.01
							c0-4.528,0.935-10.086,2.806-16.675l4.474-16.39l2.359-12.811c1.193-5.992,2.454-9.91,3.782-11.754
							c1.084-1.573,2.427-2.359,4.026-2.359c1.762,0,3.077,1.003,3.945,3.01c1.057,2.413,2.196,7.334,3.416,14.763
							c1.437,8.92,3.674,18.573,6.711,28.957c4.013-10.439,7.483-21.311,10.411-32.617l1.22-5.938
							c0.488-2.386,1.125-4.311,1.911-5.775c1.057-2.006,2.508-3.01,4.352-3.01c2.332,0,4.108,2.25,5.328,6.751
							c0.434,1.545,0.963,4.745,1.586,9.598c1.6,12.255,3.593,22.721,5.979,31.397l1.993,6.995c1.03,3.742,1.545,6.046,1.545,6.914
							c0,1.166-0.441,2.142-1.322,2.928S1538.267,919.724,1537.156,919.724z"/>
					</g>
					<g>
						<path style="fill:#0C87B3;" d="M1586.285,914.681c-3.064,1.437-7.876,2.725-14.438,3.864
							c-6.046,1.057-10.981,1.586-14.804,1.586c-2.739,0-4.704-0.42-5.897-1.261c-1.627-1.139-2.44-3.227-2.44-6.263l0.813-13.462
							c0.705-12.418,1.057-26.192,1.057-41.321c0-1.166,0.386-2.155,1.159-2.969c0.773-0.813,1.728-1.22,2.867-1.22
							c1.166,0,2.135,0.407,2.908,1.22s1.159,1.803,1.159,2.969c0,15.319-0.366,29.255-1.098,41.809l-0.529,6.182
							c-0.217,2.25-0.298,4.243-0.244,5.978c7.077,0.081,16.024-1.586,26.842-5.002c0.461-0.136,0.895-0.203,1.301-0.203
							c1.166,0,2.142,0.461,2.928,1.383c0.678,0.841,1.017,1.803,1.017,2.888C1588.888,912.593,1588.02,913.867,1586.285,914.681z"
							/>
					</g>
				</g>
			</g>
			<g>
				<g>
					<circle style="fill:#76D8D4;" cx="1075.498" cy="924.459" r="139.945"/>
				</g>
				<g>
					<g>
						<path style="fill:#0C87B3;" d="M1012.172,901.554c-0.469,0-1.269-0.098-2.402-0.293c-1.133-0.195-2.011-0.293-2.636-0.293
							c-1.276,0-2.773,0.039-4.491,0.117l0.195,4.647c0,19.371-1.289,33.469-3.866,42.295c-1.718,5.832-4.726,8.748-9.021,8.748
							c-4.53,0-9.021-1.64-13.474-4.921c-4.921-3.645-7.381-7.824-7.381-12.536c0-3.202,1.315-4.804,3.944-4.804
							c2.63,0,3.944,1.575,3.944,4.726c0,2.161,1.536,4.309,4.608,6.444c2.942,2.031,5.728,3.046,8.358,3.046
							c2.135,0,3.619-6.548,4.452-19.644c0.391-6.197,0.586-13.981,0.586-23.354c0-0.729-0.065-2.135-0.195-4.218l-2.382,0.039
							c-1.015,0-2.545-0.032-4.589-0.098c-2.044-0.065-3.586-0.098-4.628-0.098c-1.146,0-2.109-0.365-2.89-1.094
							s-1.172-1.718-1.172-2.968c0-2.682,1.81-4.023,5.429-4.023c0.885,0,2.2,0.039,3.944,0.117
							c1.745,0.078,3.046,0.117,3.905,0.117c1.64,0,4.094-0.098,7.362-0.293c3.268-0.195,5.721-0.293,7.362-0.293
							c5.936,0,8.904,1.51,8.904,4.53c0,1.041-0.352,1.966-1.055,2.773C1014.229,901.111,1013.292,901.554,1012.172,901.554z"/>
					</g>
					<g>
						<path style="fill:#0C87B3;" d="M1067.433,953.261c-2.395,0-4.478-3.072-6.249-9.217c-0.677-2.343-1.523-6.444-2.539-12.302
							c-2.656,0.365-6.131,1.015-10.427,1.953l-10.388,2.148c-1.302,3.411-3.528,8.397-6.678,14.958
							c-0.833,1.458-1.966,2.187-3.398,2.187c-1.042,0-1.972-0.377-2.792-1.133c-0.82-0.755-1.23-1.692-1.23-2.812
							c0-1.25,1.966-6.001,5.897-14.255c-0.443-0.677-0.664-1.458-0.664-2.343c0-2.109,1.276-3.463,3.827-4.062
							c2.968-5.572,6.717-11.977,11.248-19.215c6.17-9.868,10.011-14.802,11.521-14.802c2.057,0,3.463,1.432,4.218,4.296
							l2.46,13.122l5.819,27.142l2.226,6.171c0.755,2.109,1.133,3.515,1.133,4.218c0,1.12-0.404,2.057-1.211,2.812
							C1069.399,952.884,1068.475,953.261,1067.433,953.261z M1053.647,908.622l-11.169,18.004c3.15-0.807,7.928-1.784,14.333-2.929
							L1053.647,908.622z"/>
					</g>
					<g>
						<path style="fill:#0C87B3;" d="M1128.123,898.547c-1.614,2.421-2.929,4.96-3.944,7.615l-2.968,8.553l-10.505,28.392
							c-1.224,3.333-2.656,6.587-4.296,9.763c-0.833,1.562-2.005,2.343-3.515,2.343c-2.005,0-3.411-1.015-4.218-3.046
							c-3.15-7.915-6.652-19.306-10.505-34.172l-3.085-10.74c-1.536-5.415-2.304-8.956-2.304-10.623c0-1.172,0.417-2.135,1.25-2.89
							c0.755-0.703,1.666-1.055,2.734-1.055c1.979,0,3.255,1.068,3.827,3.202l1.445,6.795l3.749,13.278
							c2.499,9.685,4.934,18.03,7.303,25.034l0.234-0.625l10.466-28.353l3.32-9.568c1.484-3.853,3.059-6.769,4.726-8.748
							c0.859-1.041,1.875-1.562,3.046-1.562c1.042,0,1.972,0.397,2.792,1.191c0.82,0.794,1.23,1.751,1.23,2.87
							C1128.904,896.984,1128.644,897.765,1128.123,898.547z"/>
					</g>
					<g>
						<path style="fill:#0C87B3;" d="M1177.917,953.261c-2.395,0-4.478-3.072-6.249-9.217c-0.677-2.343-1.523-6.444-2.539-12.302
							c-2.656,0.365-6.131,1.015-10.427,1.953l-10.388,2.148c-1.302,3.411-3.528,8.397-6.678,14.958
							c-0.833,1.458-1.966,2.187-3.398,2.187c-1.042,0-1.972-0.377-2.792-1.133c-0.82-0.755-1.23-1.692-1.23-2.812
							c0-1.25,1.966-6.001,5.897-14.255c-0.443-0.677-0.664-1.458-0.664-2.343c0-2.109,1.276-3.463,3.827-4.062
							c2.968-5.572,6.717-11.977,11.247-19.215c6.171-9.868,10.011-14.802,11.521-14.802c2.057,0,3.463,1.432,4.218,4.296
							l2.46,13.122l5.819,27.142l2.226,6.171c0.755,2.109,1.132,3.515,1.132,4.218c0,1.12-0.403,2.057-1.211,2.812
							C1179.883,952.884,1178.958,953.261,1177.917,953.261z M1164.131,908.622l-11.169,18.004c3.15-0.807,7.928-1.784,14.333-2.929
							L1164.131,908.622z"/>
					</g>
				</g>
			</g>
			<g>
				<g>
					
						<ellipse transform="matrix(0.7071 -0.7071 0.7071 0.7071 -618.2807 962.6323)" style="fill:#76D8D4;" cx="852.86" cy="1227.647" rx="162.462" ry="162.462"/>
				</g>
				<g>
					<g>
						<path style="fill:#0C87B3;" d="M759.456,1237.698c-1.195,0-3.798-0.277-7.81-0.832c-0.341,6.445-0.512,17.733-0.512,33.866
							c0,1.707-0.555,3.148-1.664,4.321c-1.11,1.174-2.497,1.76-4.161,1.76c-1.707,0-3.116-0.587-4.225-1.76
							s-1.664-2.614-1.664-4.321v-18.822c0-6.274,0.384-15.108,1.152-26.504c0.853-12.334,1.323-21.169,1.408-26.504v-8.835
							c0-4.225,0.256-7.298,0.768-9.219c0.982-3.756,3.073-5.378,6.274-4.865c1.366-0.427,3.308-0.747,5.826-0.96
							c2.518-0.213,5.612-0.32,9.283-0.32c7.81,0,15.13,2.667,21.959,8.002c7.512,5.89,11.267,12.975,11.267,21.254
							c0,10.584-4.012,19.014-12.036,25.288C778.149,1234.881,769.528,1237.698,759.456,1237.698z M762.657,1186.867
							c-1.878,0-3.553,0.043-5.025,0.128c-1.473,0.085-2.721,0.213-3.745,0.384l-0.128,11.78l-1.344,25.479l7.042,0.832
							c7.17,0,13.209-1.814,18.117-5.442c5.378-3.969,8.066-9.325,8.066-16.069c0-4.78-2.561-8.899-7.682-12.356
							C773.22,1188.446,768.12,1186.867,762.657,1186.867z"/>
					</g>
					<g>
						<path style="fill:#0C87B3;" d="M894.472,1185.074c-0.64,1.792-0.96,4.417-0.96,7.874c0,1.28,0.043,3.18,0.128,5.698
							c0.085,2.518,0.128,4.417,0.128,5.698c0,4.268-0.373,10.627-1.12,19.078c-0.747,8.45-1.12,14.81-1.12,19.078
							c0,3.244,0.235,8.109,0.704,14.596c0.469,6.487,0.704,11.374,0.704,14.66c0,1.75-0.587,3.222-1.761,4.417
							c-1.174,1.195-2.635,1.793-4.385,1.793c-1.707,0-3.158-0.597-4.353-1.793c-1.195-1.195-1.793-2.667-1.793-4.417
							c0-3.286-0.235-8.173-0.704-14.66c-0.47-6.487-0.704-11.353-0.704-14.596c0-3.116,0.107-6.274,0.32-9.475
							c-7.298,0.128-16.325,1.216-27.08,3.265l-26.888,5.25c0,3.841-0.384,9.293-1.152,16.357
							c-0.768,7.063-1.152,12.537-1.152,16.421c0,1.75-0.587,3.233-1.76,4.449c-1.174,1.216-2.635,1.825-4.385,1.825
							c-1.75,0-3.212-0.608-4.385-1.825s-1.761-2.7-1.761-4.449c0-4.524,0.373-11.278,1.12-20.262s1.12-15.738,1.12-20.262
							c0-2.347-0.085-5.89-0.256-10.627c-0.171-4.737-0.256-8.301-0.256-10.691c0-3.372,0.213-8.44,0.64-15.205
							c0.427-6.765,0.64-11.833,0.64-15.204c0-1.793,0.587-3.286,1.761-4.481c1.174-1.195,2.635-1.792,4.385-1.792
							c1.75,0,3.212,0.598,4.385,1.792c1.174,1.195,1.76,2.689,1.76,4.481c0,3.414-0.224,8.525-0.672,15.333
							c-0.448,6.807-0.672,11.918-0.672,15.333l0.384,16.197l27.464-5.186c10.969-2.049,20.209-3.116,27.72-3.201
							c0.469-6.103,0.704-15.301,0.704-27.592c0-3.244,0.534-6.53,1.6-9.859c1.409-4.567,3.393-6.85,5.954-6.85
							c1.622,0,3.073,0.587,4.353,1.761c1.28,1.174,1.921,2.657,1.921,4.449C895.048,1183.09,894.856,1183.964,894.472,1185.074z"/>
					</g>
					<g>
						<path style="fill:#0C87B3;" d="M928.402,1237.698c-1.195,0-3.798-0.277-7.81-0.832c-0.341,6.445-0.512,17.733-0.512,33.866
							c0,1.707-0.555,3.148-1.664,4.321c-1.11,1.174-2.497,1.76-4.161,1.76c-1.707,0-3.116-0.587-4.225-1.76
							s-1.664-2.614-1.664-4.321v-18.822c0-6.274,0.384-15.108,1.152-26.504c0.854-12.334,1.323-21.169,1.409-26.504v-8.835
							c0-4.225,0.256-7.298,0.768-9.219c0.982-3.756,3.073-5.378,6.274-4.865c1.366-0.427,3.308-0.747,5.826-0.96
							c2.518-0.213,5.612-0.32,9.283-0.32c7.81,0,15.13,2.667,21.959,8.002c7.511,5.89,11.267,12.975,11.267,21.254
							c0,10.584-4.012,19.014-12.036,25.288C947.096,1234.881,938.474,1237.698,928.402,1237.698z M931.603,1186.867
							c-1.878,0-3.553,0.043-5.026,0.128c-1.472,0.085-2.721,0.213-3.745,0.384l-0.128,11.78l-1.344,25.479l7.042,0.832
							c7.17,0,13.209-1.814,18.117-5.442c5.378-3.969,8.066-9.325,8.066-16.069c0-4.78-2.561-8.899-7.682-12.356
							C942.166,1188.446,937.066,1186.867,931.603,1186.867z"/>
					</g>
				</g>
			</g>
			<g>
				<g>
					
						<ellipse transform="matrix(0.7071 -0.7071 0.7071 0.7071 -787.8444 1184.0648)" style="fill:#76D8D4;" cx="1035.37" cy="1543.045" rx="107.618" ry="107.618"/>
				</g>
				<g>
					<g>
						<path style="fill:#0C87B3;" d="M1013.268,1515.549c-0.553,0-1.498-0.115-2.835-0.346c-1.337-0.231-2.374-0.346-3.111-0.346
							c-1.506,0-3.273,0.046-5.301,0.138l0.23,5.485c0,22.863-1.521,39.503-4.563,49.92c-2.028,6.883-5.577,10.325-10.648,10.325
							c-5.347,0-10.648-1.936-15.903-5.808c-5.808-4.302-8.712-9.234-8.712-14.796c0-3.78,1.552-5.67,4.656-5.67
							s4.656,1.859,4.656,5.577c0,2.551,1.813,5.086,5.439,7.606c3.472,2.397,6.76,3.595,9.864,3.595
							c2.52,0,4.271-7.728,5.255-23.185c0.461-7.314,0.691-16.502,0.691-27.565c0-0.86-0.077-2.52-0.231-4.978l-2.812,0.046
							c-1.198,0-3.004-0.038-5.416-0.115c-2.412-0.077-4.233-0.115-5.462-0.115c-1.352,0-2.489-0.43-3.411-1.291
							c-0.922-0.86-1.383-2.028-1.383-3.503c0-3.165,2.136-4.748,6.407-4.748c1.045,0,2.597,0.046,4.656,0.138
							c2.059,0.092,3.595,0.138,4.609,0.138c1.936,0,4.832-0.115,8.689-0.346c3.857-0.23,6.753-0.346,8.689-0.346
							c7.006,0,10.51,1.782,10.51,5.347c0,1.229-0.415,2.32-1.245,3.273C1015.696,1515.027,1014.59,1515.549,1013.268,1515.549z"/>
					</g>
					<g>
						<path style="fill:#0C87B3;" d="M1062.958,1545.557c0,1.137-0.377,2.128-1.129,2.973c-0.753,0.845-1.698,1.268-2.835,1.268
							c-0.369,0-0.922-0.062-1.659-0.184c-0.738-0.123-1.306-0.184-1.706-0.184l-4.609,0.092c-1.875,0.062-3.411,0.062-4.609,0
							v10.832c0,2.766-1.367,4.149-4.102,4.149c-1.352,0-2.374-0.346-3.065-1.037s-1.037-1.729-1.037-3.111l-0.046-5.301
							l-0.046-5.347c-3.718,0.215-6.346,0.323-7.882,0.323c-4.763,0-7.145-1.413-7.145-4.241c0-1.997,0.845-3.242,2.535-3.734
							c0.584-0.154,2.12-0.23,4.609-0.23c1.536,0,4.164-0.108,7.882-0.323l-0.046-5.393c0-2.796,0.138-4.732,0.415-5.808
							c0.307-1.106,0.784-1.936,1.429-2.489c0.645-0.553,1.475-0.83,2.489-0.83c1.168,0,2.159,0.376,2.973,1.129
							c0.814,0.753,1.221,1.713,1.221,2.881c0,0.522-0.054,1.352-0.161,2.489s-0.161,1.997-0.161,2.581l0.046,5.255l3.457,0.138
							c0.615,0,1.552-0.038,2.812-0.115c1.26-0.077,2.197-0.115,2.812-0.115C1060.438,1541.224,1062.958,1542.668,1062.958,1545.557
							z"/>
					</g>
					<g>
						<path style="fill:#0C87B3;" d="M1108.315,1545.557c0,1.137-0.376,2.128-1.129,2.973c-0.753,0.845-1.698,1.268-2.835,1.268
							c-0.369,0-0.922-0.062-1.659-0.184c-0.738-0.123-1.306-0.184-1.706-0.184l-4.609,0.092c-1.875,0.062-3.411,0.062-4.609,0
							v10.832c0,2.766-1.368,4.149-4.102,4.149c-1.352,0-2.374-0.346-3.065-1.037s-1.037-1.729-1.037-3.111l-0.046-5.301
							l-0.046-5.347c-3.718,0.215-6.346,0.323-7.882,0.323c-4.763,0-7.145-1.413-7.145-4.241c0-1.997,0.845-3.242,2.535-3.734
							c0.584-0.154,2.12-0.23,4.609-0.23c1.536,0,4.164-0.108,7.882-0.323l-0.046-5.393c0-2.796,0.138-4.732,0.415-5.808
							c0.307-1.106,0.784-1.936,1.429-2.489c0.645-0.553,1.475-0.83,2.489-0.83c1.168,0,2.159,0.376,2.973,1.129
							c0.814,0.753,1.221,1.713,1.221,2.881c0,0.522-0.054,1.352-0.161,2.489s-0.161,1.997-0.161,2.581l0.046,5.255l3.457,0.138
							c0.615,0,1.552-0.038,2.812-0.115c1.26-0.077,2.197-0.115,2.812-0.115C1105.795,1541.224,1108.315,1542.668,1108.315,1545.557
							z"/>
					</g>
				</g>
			</g>
			<g>
				<g>
					<circle style="fill:#76D8D4;" cx="1579.78" cy="1566.212" r="91.858"/>
				</g>
				<g>
					<g>
						<path style="fill:#0C87B3;" d="M1543.86,1593.811c-0.04-1.695,0.535-3.077,1.725-4.146c1.19-1.069,2.653-1.604,4.388-1.604
							c1.977,0,3.712,1.13,5.205,3.389c2.058,3.067,3.894,5.145,5.508,6.234c3.43,2.26,8.413,3.389,14.949,3.389
							c6.254,0,12.064-1.352,17.431-4.055c6.859-3.47,10.289-8.292,10.289-14.465c0-5.084-2.885-9.099-8.655-12.044
							c-4.882-2.542-10.914-3.914-18.097-4.116c-6.375-0.242-11.802-1.634-16.281-4.176c-5.729-3.268-8.594-7.949-8.594-14.041
							c0-7.182,4.075-13.739,12.226-19.67c7.787-5.609,15.837-8.413,24.149-8.413c3.914,0,8.332,0.666,13.255,1.997
							c6.537,1.735,9.805,3.954,9.805,6.658c0,3.551-1.816,5.326-5.447,5.326c-1.614,0-4.438-0.434-8.473-1.301
							c-4.035-0.868-7.162-1.281-9.381-1.241c-6.294,0.081-11.641,1.634-16.039,4.66c-4.519,3.107-6.779,6.879-6.779,11.318
							c0,3.349,2.986,5.709,8.957,7.081c2.219,0.525,6.516,1.009,12.892,1.453c9.24,0.686,16.462,3.591,21.667,8.715
							c4.761,4.68,7.142,10.39,7.142,17.128c0,9.603-4.438,17.269-13.315,22.999c-7.707,4.963-16.644,7.444-26.812,7.444
							c-7.384,0-14.142-1.412-20.275-4.237C1547.794,1604.624,1543.981,1599.863,1543.86,1593.811z"/>
					</g>
				</g>
			</g>
		</g>
		<g>
			<g>
				<path style="fill:#EC321E;" d="M1989.919,939.161H1695.65c-29.007,0-52.522-23.515-52.522-52.522v0
					c0-29.007,23.515-52.522,52.522-52.522h294.269V939.161z"/>
			</g>
			<g>
				<g>
					<path style="fill:#BA0F03;" d="M2129.499,844.189v84.899h5.756v10.073h-171.957c-29.01,0-52.522-23.513-52.522-52.522
						c0-14.505,5.871-27.628,15.383-37.14s22.635-15.383,37.14-15.383h171.957v10.073H2129.499z"/>
				</g>
				<g>
					<path style="fill:#FEE4AD;" d="M2130.938,844.189v84.899h-167.352c-0.863,0-1.712-0.029-2.561-0.086
						c-22.405-1.31-40.176-19.771-40.176-42.363c0-11.713,4.777-22.333,12.519-30.017c7.18-7.123,16.893-11.728,27.657-12.346
						c0.849-0.058,1.698-0.086,2.561-0.086H2130.938z"/>
				</g>
				<g>
					<g>
						<g>
							<g>
								<rect x="1960.161" y="864.767" style="fill:#FEDE8C;" width="170.777" height="1.626"/>
							</g>
						</g>
					</g>
					<g>
						<g>
							<g>
								<rect x="1960.161" y="875.286" style="fill:#FEDE8C;" width="170.777" height="1.64"/>
							</g>
						</g>
					</g>
					<g>
						<g>
							<g>
								<rect x="1960.161" y="896.352" style="fill:#FEDE8C;" width="170.777" height="1.64"/>
							</g>
						</g>
					</g>
					<g>
						<g>
							<g>
								<rect x="1960.161" y="885.819" style="fill:#FEDE8C;" width="170.777" height="1.64"/>
							</g>
						</g>
					</g>
					<g>
						<g>
							<g>
								<rect x="1960.161" y="906.885" style="fill:#FEDE8C;" width="170.777" height="1.626"/>
							</g>
						</g>
					</g>
					<g>
						<g>
							<g>
								<rect x="1960.161" y="917.404" style="fill:#FEDE8C;" width="170.777" height="1.64"/>
							</g>
						</g>
					</g>
					<g>
						<g>
							<g>
								<rect x="1960.161" y="854.233" style="fill:#FEDE8C;" width="170.777" height="1.64"/>
							</g>
						</g>
					</g>
				</g>
				<g>
					<path style="fill:#A60B00;" d="M1961.024,844.276v84.727c-22.405-1.31-40.176-19.771-40.176-42.363
						c0-11.713,4.777-22.333,12.519-30.017C1940.548,849.499,1950.261,844.894,1961.024,844.276z"/>
				</g>
			</g>
			<g>
				<g>
					<polygon style="fill:#FCCE3A;" points="2007.187,870.385 2007.187,921.894 1990.031,910.382 1972.859,921.894 
						1972.859,870.385 					"/>
				</g>
			</g>
			<g>
				<ellipse style="fill:#FCCE3A;" cx="1781.988" cy="886.639" rx="100.008" ry="28.06"/>
			</g>
		</g>
		<g>
			<g>
				<path style="fill:#FD9724;" d="M2040.049,1512.958c-55.573,22.44-68.663,185.099-163.866,203.611
					c-95.203,18.512-218.828-29.421-238.007,67.435c-26.445,133.548,302.434,235.781,488.781,97.847
					C2296.662,1756.237,2115.323,1482.563,2040.049,1512.958z"/>
			</g>
			<g>
				<path style="fill:#612D0A;" d="M1923.144,1434.842c-10.268-21.401,10.227-64.375,39.122-63.383
					c27.446,0.942,32.545,24.131,32.545,24.131s29.607-18.181,45.238,4.958c15.631,23.14-6.186,46.103-6.186,46.103
					s27.339,3.142,29.255,26.874c2.149,26.612-23.07,37.093-23.07,37.093s25.196,9.098,23.199,33.229
					c-1.996,24.131-28.393,27.933-28.393,27.933s37.437,32.395-8.687,57.177c-39.228,21.077-66.486-23.129-69.394-35.36
					c-2.908-12.231-6.294-116.271-6.294-116.271L1923.144,1434.842z"/>
			</g>
			<g>
				<g>
					<g>
						<path style="fill:#F8B396;" d="M1992.974,1468.363c8.308-2.671,15.695,6.827,9.582,15.886s-14.51,8.082-17.189,3.853
							C1982.687,1483.872,1992.974,1468.363,1992.974,1468.363z"/>
					</g>
				</g>
				<g>
					<g>
						<path style="fill:#CC7459;" d="M1996.877,1473.527c6.563,1.472-0.542,11.163-5.459,10.337
							C1986.502,1483.038,1996.877,1473.527,1996.877,1473.527z"/>
					</g>
				</g>
				<g>
					<g>
						<path style="fill:#F8B396;" d="M1946.282,1547.525c9.22,3.112,27.136-4.614,27.136-4.614l0.791-40.757l0.102-5.11
							l-17.002,6.365l-10.256,3.833l-4.899,18.737l-2.617,10.115C1939.537,1536.094,1937.062,1544.412,1946.282,1547.525z"/>
					</g>
				</g>
				<g>
					<g>
						<path style="fill:#F3936C;" d="M1942.155,1525.979c10.371,0.891,25.834-11.996,32.055-23.825c0,0-8.993,0.332-16.899,1.255
							l-10.256,3.833L1942.155,1525.979z"/>
					</g>
				</g>
				<g>
					<g>
						<path style="fill:#F8B396;" d="M1915.274,1461.004c-0.511,2.278-0.939,4.574-1.225,6.816
							c-2.815,21.859,1.433,40.734,21.115,45.106c27.892,6.17,63.191-25.715,62.373-44.952c-0.051,0.032-0.06,0.074-0.06,0.074
							c-23.775-6.682-38.153-45.753-38.153-45.753s-21.598,16.383-36.18,12.547
							C1919.516,1444.034,1916.837,1452.872,1915.274,1461.004z"/>
					</g>
				</g>
				<g>
					<g>
						<path style="fill:#471200;" d="M1931.705,1455.639c-0.744,3.069-2.399,5.302-3.696,4.987
							c-1.297-0.315-1.746-3.058-1.002-6.127c0.744-3.069,2.399-5.302,3.696-4.987
							C1932.001,1449.827,1932.449,1452.57,1931.705,1455.639z"/>
					</g>
				</g>
				<g>
					<g>
						<path style="fill:#471200;" d="M1954.071,1460.656c-0.744,3.069-2.399,5.302-3.696,4.987s-1.746-3.058-1.002-6.126
							c0.744-3.069,2.399-5.302,3.697-4.987C1954.366,1454.844,1954.815,1457.587,1954.071,1460.656z"/>
					</g>
				</g>
				<g>
					<g>
						<path style="fill:#612D0A;" d="M1964.604,1449.61c0.389,2.065-10.013-3.853-10.159-5.14c-0.147-1.286,1.349-1.476,3.516-0.897
							S1964.505,1449.087,1964.604,1449.61z"/>
					</g>
				</g>
				<g>
					<g>
						<path style="fill:#612D0A;" d="M1925.018,1442.009c-0.974,1.861,10.701-0.766,11.217-1.954
							c0.516-1.188-0.86-1.805-3.102-1.883C1930.89,1438.094,1925.265,1441.537,1925.018,1442.009z"/>
					</g>
				</g>
				<g>
					<g>
						<g>
							<path style="fill:#F86856;" d="M1945.358,1494.067c-0.893,3.175-5.877,4.549-11.133,3.069
								c-5.256-1.48-8.794-5.253-7.901-8.427c0.893-3.175,5.877-4.549,11.133-3.069
								C1942.713,1487.12,1946.25,1490.893,1945.358,1494.067z"/>
						</g>
					</g>
					<g>
						<g>
							<g>
								<path style="fill:#471200;" d="M1938.412,1493.371c-5.031-0.637-10.25-2.171-13.134-4.285
									c-0.233-0.177-0.256-0.439-0.051-0.586c0.218-0.154,0.576-0.161,0.797,0.023c5.313,3.892,19.572,5.792,23.478,3.136
									c0.227-0.127,0.572-0.118,0.806,0.05c0.221,0.184,0.231,0.445,0.015,0.59
									C1948.167,1493.749,1943.384,1494,1938.412,1493.371z"/>
							</g>
						</g>
					</g>
				</g>
				<g>
					<g>
						<path style="fill:#F08D78;" d="M1971.597,1478.102c-0.346,4.171-4.804,7.207-9.957,6.78s-9.05-4.155-8.705-8.327
							c0.346-4.172,4.804-7.207,9.957-6.78C1968.046,1470.202,1971.943,1473.93,1971.597,1478.102z"/>
					</g>
				</g>
				<g>
					<g>
						<g>
							<path style="fill:#C07255;" d="M1935.629,1477.503c-1.875-0.531-3.279-1.658-3.962-3.231
								c-0.736-1.695-0.486-3.645,0.653-5.092c1.381-1.759,3.816-2.486,6.676-1.987c0.281,0.057,0.385,0.262,0.345,0.488
								c-0.042,0.23-0.261,0.381-0.488,0.345c-2.544-0.447-4.688,0.167-5.872,1.676c-0.948,1.199-1.154,2.827-0.541,4.236
								c0.752,1.723,2.565,2.831,4.965,3.033c0.221,0.007,0.406,0.222,0.383,0.452c-0.019,0.232-0.222,0.406-0.452,0.383
								C1936.733,1477.755,1936.162,1477.654,1935.629,1477.503z"/>
						</g>
					</g>
				</g>
			</g>
			<g>
				<g>
					<g>
						<path style="fill:#F8B396;" d="M1566.31,1855.171c-6.244-0.103-65.907-54.245-65.444-57.815
							c0.594-4.758,13.721-6.443,29.061-4.023c8.951,1.426,18.68,4.327,27.148,8.821c22.841,12.225,29.742,23.13,29.742,23.13
							c-0.874,2.295-1.92,4.776-3.034,7.332C1578.778,1843.507,1571.405,1855.249,1566.31,1855.171z"/>
					</g>
				</g>
				<g>
					<path style="fill:#54493F;" d="M1566.31,1855.171c-6.244-0.103-65.907-54.245-65.444-57.815
						c0.594-4.758,13.721-6.443,29.061-4.023c5.884,10.589,33.036,32.641,53.856,39.283
						C1578.778,1843.507,1571.405,1855.249,1566.31,1855.171z"/>
				</g>
			</g>
			<g>
				<path style="fill:#B292CA;" d="M1566.389,1813.975c0.992,0.937,1.983,1.819,3.03,2.7c6.887,5.73,15.537,9.972,23.525,8.705
					c7.383-1.212,76.471-88.151,96.305-91.787c18.346-3.361,165.613,16.363,198.339-21.321
					c30.963-35.646-82.145-59.833-82.145-59.833s-105.12-11.9-140.16-2.644c-35.04,9.256-106.662,141.757-108.425,146.772
					C1555.59,1800.147,1559.777,1807.53,1566.389,1813.975z"/>
			</g>
			<g>
				<g>
					<path style="fill:#8A66AA;" d="M1566.389,1813.975c0.992,0.937,1.983,1.819,3.03,2.7c11.294-10.798,23.966-30.026,37.96-51.238
						c22.313-33.882,47.657-72.338,68.702-74.432c11.735-1.102,31.789,1.432,55.094,4.408c46.61,5.951,99.445,12.727,120.05-4.903
						l-2.644-3.141c-19.283,16.418-73.385,9.476-116.91,3.911c-23.525-2.975-43.855-5.565-56.031-4.353
						c-22.974,2.26-47.767,39.888-71.733,76.251C1590.41,1783.729,1577.407,1803.453,1566.389,1813.975z"/>
				</g>
			</g>
			<g>
				<path style="fill:#8A66AA;" d="M1816.02,1674.257c-31.238,3.802-39.998,22.974-39.998,22.974s53.552,4.297,56.857,0
					C1836.185,1692.934,1816.02,1674.257,1816.02,1674.257z"/>
			</g>
			<g>
				<path style="fill:#EC321E;" d="M1973.61,1533.032c-25.529,9.66-33.771,1.894-33.771,1.894s-78.862,33.069-85.474,49.837
					c-6.611,16.769,6.611,35.28,6.611,35.28l-55.535,32.395c0,0,9.073,73.61,64.747,70.716
					c55.674-2.893,97.889-65.188,114.732-105.922C2004.808,1569.137,1973.61,1533.032,1973.61,1533.032z"/>
			</g>
			<g>
				<path style="fill:#96A128;" d="M1708.807,1512.941c0,0,5.399,1.157,13.829,2.865c28.594,5.73,91.567,17.3,91.071,8.374
					c-0.165-2.424-1.322-8.099-3.141-15.481c-0.22-0.827-0.441-1.708-0.661-2.59c-0.221-0.827-0.441-1.708-0.661-2.644
					c-0.661-2.589-1.377-5.29-2.149-8.099c-4.242-15.812-9.752-34.655-14.104-48.263c-0.11-0.385-0.275-0.771-0.386-1.157
					c-1.267-3.967-2.424-7.437-3.416-10.192c-1.598-4.463-2.755-7.107-3.251-7.107c-2.369,0-48.923,50.741-70.465,76.25
					c-2.589,3.085-4.848,5.729-6.556,7.934C1708.862,1512.886,1708.807,1512.886,1708.807,1512.941z"/>
			</g>
			<g>
				<path style="fill:#B6BF40;" d="M1746.271,1593.764c21.983,49.75,28.373,73.055,29.751,71.402c0,0,2.59,0.055,6.832,0.165
					c18.512,0.441,68.758,1.432,73.992-0.165c6.446-1.983-7.934-154.704-12.396-158.672c-0.441-0.33-2.479-0.605-5.73-0.715
					c-6.06-0.221-16.473-0.055-28.814,0.33c-29.31,0.992-69.529,3.305-89.253,5.124c-1.928,0.221-3.691,0.385-5.179,0.551
					c-3.636,0.385-5.95,0.771-6.556,1.047c-0.055,0.055-0.11,0.055-0.11,0.11
					C1707.099,1515.421,1726.713,1549.523,1746.271,1593.764z"/>
			</g>
			<g>
				<path style="fill:#FEE4AD;" d="M1799.327,1439.803c3.967,14.132,16.115,63.203,16.115,63.203l-86.03,5.72v-4.463
					L1799.327,1439.803z"/>
			</g>
			<g>
				<path style="fill:#FFFFFF;" d="M1789.162,1435.73c-14.627,13.742-73.706,76.057-73.706,76.057s123.786-2.473,123.291-6.114
					c-0.496-3.641-9.082-11.823-10.739-12.566c-1.657-0.744-96.093,12.566-96.093,12.566s68.19-63.639,67.413-65.87
					S1789.162,1435.73,1789.162,1435.73z"/>
			</g>
			<g>
				<path style="fill:#96A128;" d="M1746.271,1593.764c21.983,49.75,28.373,73.055,29.751,71.402c0,0,2.59,0.055,6.832,0.165
					c-12.12-36.913-51.513-129.141-60.218-149.526c-1.157-2.589-1.763-4.022-1.763-4.022s0-0.055-0.055-0.11
					c-0.055-0.11-0.11-0.275-0.165-0.441c-0.331-0.716-0.937-1.929-1.708-3.141c-0.937-1.432-2.149-2.92-3.471-3.195
					c-2.589,3.085-4.848,5.729-6.556,7.934c-0.055,0.055-0.11,0.055-0.11,0.11
					C1707.099,1515.421,1726.713,1549.523,1746.271,1593.764z"/>
			</g>
			<g>
				<path style="fill:#96A128;" d="M1823.299,1529.327c-1.663-0.275-73.394,0.987-72.267,4.991
					c1.126,4.005,20.361,54.958,20.361,54.958s52.13-3.84,56.047-5.404C1831.356,1582.308,1823.299,1529.327,1823.299,1529.327z"/>
			</g>
			<g>
				<path style="fill:#F8B396;" d="M1819.214,1580.638c2.191-5.255-10.928-32.576-13.208-32.161
					c-2.281,0.415-1.052,14.972-1.052,14.972s-24.859-23.378-26.859-22.223c-2.001,1.155,13.046,19.589,13.046,19.589
					s-19.025-17.775-20.856-16.038s17.419,21.068,17.419,21.068s-19.044-15.894-19.468-12.019
					c-0.156,1.427,16.105,16.247,16.105,16.247s-13.091-8.766-13.867-7.527c-0.775,1.238,9.122,10.793,18.603,17.056
					s29.404,18.824,30.774,18.106c1.37-0.717,8.157-7.761,8.157-7.761L1819.214,1580.638z"/>
			</g>
			<g>
				<path style="fill:#FECD3D;" d="M1968.807,1552.294c-32.055-16.363-55.601,73.667-63.535,73.667
					c-7.099,0-70.704-51.084-80.162-50.543c-5.785,0.331-19.007,15.785-16.859,22.147c1.982,5.87,59.235,79.873,103.302,73.055
					C1955.62,1663.803,2011.824,1574.252,1968.807,1552.294z"/>
			</g>
		</g>
		<g>
			<g>
				<path style="fill:#54493F;" d="M499.957,1869.074c-4.223,10.225-8.447,27.12-4.446,30.676c4.001,3.557,72.905,4.076,74.69,1.556
					c3.779-5.335-16.723-24.007-38.149-29.565C510.627,1866.185,499.957,1869.074,499.957,1869.074z"/>
			</g>
			<g>
				<path style="fill:#54493F;" d="M413.071,1869.074c-4.224,10.225-8.447,27.12-4.446,30.676c4.001,3.557,72.905,4.076,74.69,1.556
					c3.779-5.335-16.723-24.007-38.149-29.565C423.741,1866.185,413.071,1869.074,413.071,1869.074z"/>
			</g>
			<g>
				<path style="fill:#B5573B;" d="M548.809,1317.309c20.308-12.797,16.214-43.816,0-48.068s-23.317,4.694-23.317,4.694
					s-10.267-24.456-32.17-15.451c-21.834,8.977-7.254,28.204-7.254,28.204s-30.268-6.751-36.522,14.417
					c-6.254,21.168,15.759,22.946,15.759,22.946s-25.515,11.098-11.757,34.678s33.52,9.779,33.52,9.779s-3.014,17.153,15.253,13.351
					C520.588,1378.057,548.809,1317.309,548.809,1317.309z"/>
			</g>
			<g>
				<g>
					<g>
						<path style="fill:#F8B396;" d="M483.462,1341.246c-7.199-3.107-14.626,4.748-9.943,13.377
							c4.684,8.629,12.277,8.482,15.039,4.932C491.32,1356.005,483.462,1341.246,483.462,1341.246z"/>
					</g>
				</g>
				<g>
					<g>
						<path style="fill:#CC7459;" d="M479.525,1345.526c-5.996,0.749-0.48,10.03,3.987,9.716
							C487.98,1354.929,479.525,1345.526,479.525,1345.526z"/>
					</g>
				</g>
				<g>
					<g>
						<path style="fill:#F8B396;" d="M518.37,1416.077c-8.514,1.986-23.868-6.473-23.868-6.473l2.818-36.517l0.35-4.579
							l14.654,7.163l8.84,4.315l2.761,17.18l1.466,9.271C525.391,1406.438,526.885,1414.091,518.37,1416.077z"/>
					</g>
				</g>
				<g>
					<g>
						<path style="fill:#F3936C;" d="M523.925,1397.166c-9.352-0.1-22.065-12.963-26.605-24.079c0,0,8.013,1.075,15.004,2.584
							l8.84,4.315L523.925,1397.166z"/>
					</g>
				</g>
				<g>
					<g>
						<path style="fill:#F8B396;" d="M553.584,1341.386c0.26,2.081,0.444,4.172,0.505,6.201
							c0.627,19.791-4.804,36.304-22.784,38.511c-25.477,3.106-54.286-28.462-51.891-45.594c0.043,0.033,0.047,0.071,0.047,0.071
							c21.84-3.919,38.077-37.616,38.077-37.616s17.898,16.519,31.27,14.349C551.258,1325.843,552.889,1333.979,553.584,1341.386z"
							/>
					</g>
				</g>
				<g>
					<g>
						<path style="fill:#471200;" d="M539.354,1335.167c0.4,2.809,1.687,4.949,2.874,4.78s1.826-2.583,1.426-5.392
							c-0.4-2.809-1.687-4.949-2.874-4.78C539.592,1329.944,538.954,1332.358,539.354,1335.167z"/>
					</g>
				</g>
				<g>
					<g>
						<path style="fill:#471200;" d="M518.919,1337.719c0.4,2.809,1.687,4.949,2.874,4.78c1.187-0.169,1.826-2.583,1.426-5.392
							c-0.4-2.809-1.687-4.949-2.874-4.78C519.158,1332.496,518.519,1334.91,518.919,1337.719z"/>
					</g>
				</g>
				<g>
					<g>
						<path style="fill:#B5573B;" d="M510.455,1326.929c-0.527,1.813,9.287-2.58,9.53-3.718c0.243-1.138-1.079-1.436-3.067-1.106
							C514.93,1322.436,510.589,1326.47,510.455,1326.929z"/>
					</g>
				</g>
				<g>
					<g>
						<path style="fill:#B5573B;" d="M546.513,1323.556c0.711,1.749-9.503-1.611-9.862-2.718c-0.358-1.107,0.925-1.54,2.937-1.416
							C541.6,1319.547,546.333,1323.113,546.513,1323.556z"/>
					</g>
				</g>
				<g>
					<g>
						<g>
							<path style="fill:#F86856;" d="M523.821,1368.351c0.523,2.916,4.862,4.576,9.691,3.708c4.828-0.868,8.318-3.937,7.795-6.853
								c-0.524-2.916-4.862-4.576-9.691-3.708C526.787,1362.367,523.297,1365.435,523.821,1368.351z"/>
						</g>
					</g>
					<g>
						<g>
							<g>
								<path style="fill:#471200;" d="M530.092,1368.329c4.554-0.134,9.354-1.055,12.116-2.696c0.224-0.138,0.267-0.371,0.096-0.52
									c-0.181-0.157-0.501-0.194-0.715-0.048c-5.088,3.021-18.004,3.486-21.267,0.773c-0.192-0.133-0.501-0.155-0.725-0.025
									c-0.213,0.145-0.245,0.378-0.064,0.527C521.336,1367.823,525.592,1368.462,530.092,1368.329z"/>
							</g>
						</g>
					</g>
				</g>
				<g>
					<g>
						<path style="fill:#F08D78;" d="M501.737,1351.804c-0.052,3.76,3.672,6.86,8.318,6.924c4.645,0.064,8.453-2.933,8.504-6.693
							c0.052-3.76-3.672-6.86-8.318-6.924C505.596,1345.047,501.788,1348.044,501.737,1351.804z"/>
					</g>
				</g>
				<g>
					<g>
						<g>
							<path style="fill:#C07255;" d="M533.954,1354.38c1.722-0.313,3.075-1.199,3.822-2.547c0.805-1.452,0.75-3.217-0.144-4.61
								c-1.083-1.693-3.198-2.553-5.798-2.354c-0.257,0.026-0.367,0.201-0.351,0.406c0.018,0.209,0.201,0.364,0.407,0.35
								c2.314-0.179,4.178,0.555,5.106,2.006c0.744,1.154,0.788,2.628,0.117,3.835c-0.821,1.475-2.539,2.31-4.703,2.283
								c-0.198-0.013-0.383,0.163-0.381,0.371c-0.003,0.209,0.163,0.383,0.371,0.381
								C532.945,1354.51,533.464,1354.469,533.954,1354.38z"/>
						</g>
					</g>
				</g>
			</g>
			<g>
				<path style="fill:#B292CA;" d="M406.018,1868.103c4.503,8.005,41.901,6.129,44.027,2.501
					c0.917-1.543,48.029-148.089,48.029-148.089s-0.751,13.508-1.668,32.311v0.042c-2.043,41.942-4.794,110.233-1.375,114.736
					c4.919,6.504,42.066,4.003,43.568,0c1.501-4.002,42.776-205.374,45.027-253.945c0,0-93.056-117.279-137.333,5.671
					C402.058,1744.278,401.515,1860.098,406.018,1868.103z"/>
			</g>
			<g>
				<path style="fill:#FD9724;" d="M575.113,1416.379c49.637,21.915,74.177,56.797,74.177,56.797s-51.781,11.32-61.537,1.564
					S575.113,1416.379,575.113,1416.379z"/>
			</g>
			<g>
				<path style="fill:#EC321E;" d="M525.237,1405.465c-3.899,11.991-30.415,0-30.415,0s-41.869,5.018-56.284,25.874
					c-15.321,22.168,4.037,185.355,7.772,189.986c3.735,4.631,64.879,11.135,94.593,7.133c29.714-4.002,38.22-6.563,42.722-12.787
					c4.503-6.224,3.163-142.495,3.163-142.495s20.852-1.071,8.344-35.082C582.625,1404.083,525.237,1405.465,525.237,1405.465z"/>
			</g>
			<g>
				<g>
					<g>
						<path style="fill:#FCB6C8;" d="M698.542,1340.905l-262.524,290.66l-22.904,25.334l-92.986,102.945
							c-12.762,14.16-12.765,35.369-0.774,49.481c1.195,1.406,2.493,2.724,3.919,3.978c15.48,13.523,38.936,12.109,52.658-3.136
							l92.853-103.101l22.861-25.386l262.55-291.578c0,0,16.883-34.743,31.056-65.974c11.071-24.381,20.488-46.594,18.981-48.631
							c-1.418-1.933-22.579,10.89-45.619,25.669C729.997,1319.514,698.542,1340.905,698.542,1340.905z"/>
					</g>
				</g>
				<g>
					<g>
						<g>
							<polygon style="fill:#FE87A0;" points="436.018,1631.565 413.113,1656.898 468.783,1707.065 491.644,1681.679 							"/>
						</g>
					</g>
				</g>
				<g>
					<g>
						<path style="fill:#FEE4AD;" d="M698.542,1340.905l55.652,49.196c0,0,16.883-34.743,31.056-65.974
							c11.071-24.381,20.488-46.594,18.981-48.631c-1.418-1.933-22.579,10.89-45.619,25.669
							C729.997,1319.514,698.542,1340.905,698.542,1340.905z"/>
					</g>
				</g>
				<g>
					<g>
						<path style="fill:#FE87A0;" d="M758.612,1301.165l26.638,22.962c11.071-24.381,20.488-46.594,18.981-48.631
							C802.813,1273.562,781.653,1286.385,758.612,1301.165z"/>
					</g>
				</g>
			</g>
			<g>
				<path style="fill:#F8B396;" d="M542.713,1588.776c2.858-4.9,32.45-10.904,33.491-8.843c1.042,2.061-11.262,9.838-11.262,9.838
					s33.517,5.693,33.803,7.977c0.285,2.284-23.405,1.413-23.405,1.413s25.559,4.428,25.28,6.926
					c-0.28,2.498-27.21-1.172-27.21-1.172s24.076,5.573,21.253,8.24c-1.04,0.983-22.59-3.026-22.59-3.026s14.834,5.13,14.317,6.49
					c-0.518,1.36-14.058-0.757-24.734-4.525c-10.676-3.767-32.632-12.042-32.886-13.562c-0.254-1.52,1.261-11.146,1.261-11.146
					L542.713,1588.776z"/>
			</g>
			<g>
				<path style="fill:#FD9724;" d="M438.538,1431.339c-27.517,27.642-15.821,117.781-9.005,131.174
					c6.816,13.393,95.194,49.435,101.38,46.934c6.185-2.502,18.193-19.512,15.191-27.517c-3.002-8.005-68.404-41.623-72.406-46.125
					c-4.002-4.503,0.794-43.453-3.698-75.448C465.555,1428.695,444.229,1425.622,438.538,1431.339z"/>
			</g>
			<g>
				<path style="fill:#8A66AA;" d="M496.406,1754.826l27.934-87.97c0,0-14.634,18.761-26.266,55.659
					C498.074,1722.515,497.324,1736.023,496.406,1754.826z"/>
			</g>
			<g>
				<g>
					<path style="fill:#F8B396;" d="M691.075,1480.281c0.065-6.505-20.478-30.367-23.148-27.904
						c-2.669,2.462,9.352,19.848,9.352,19.848s-19.634-15.154-21.695-13.278c-2.061,1.875,15.579,18.726,15.579,18.726
						s-15.227-7.168-16.577-4.956c-1.35,2.212,14.501,10.635,14.501,10.635s-10.725-2.002-11.374,0.746
						C657.063,1486.844,690.815,1506.109,691.075,1480.281z"/>
				</g>
			</g>
		</g>
		<g>
			<g>
				<path style="fill:#612D0A;" d="M1211.082,1623.552c-11.029-3.292-15.528-36.124,5.953-44.592
					c20.522-8.09,27.501,5.819,27.501,5.819s5.331-26.966,29.46-16.747c29.275,12.398,16.747,34.346,22.708,47.119
					s21.005,20.438,9.367,44.722c-11.024,23.003-51.056,13.675-51.056,13.675L1211.082,1623.552z"/>
			</g>
			<g>
				<path style="fill:#F8B396;" d="M1277.494,1644.185c7.03-3.46,14.835,4.009,10.59,12.856c-4.244,8.846-11.83,9.078-14.764,5.672
					C1270.388,1659.307,1277.494,1644.185,1277.494,1644.185z"/>
			</g>
			<g>
				<path style="fill:#CC7459;" d="M1281.637,1648.261c6.022,0.449,0.979,9.986-3.496,9.896
					C1273.667,1658.067,1281.637,1648.261,1281.637,1648.261z"/>
			</g>
			<g>
				<path style="fill:#F8B396;" d="M1246.384,1720.611c8.597,1.558,23.499-7.65,23.499-7.65l-4.632-36.305l-0.578-4.552
					l-14.268,7.879l-8.608,4.747l-1.899,17.284l-1.001,9.326C1238.897,1711.34,1237.787,1719.053,1246.384,1720.611z"/>
			</g>
			<g>
				<path style="fill:#F3936C;" d="M1239.897,1702.014c9.328-0.566,21.376-14.037,25.353-25.358c0,0-7.944,1.472-14.846,3.327
					l-8.608,4.747L1239.897,1702.014z"/>
			</g>
			<g>
				<path style="fill:#F8B396;" d="M1207.516,1647.82c-0.156,2.09-0.235,4.186-0.196,6.214c0.36,19.784,6.604,35.993,24.659,37.3
					c25.582,1.83,52.762-31.112,49.517-48.092c-0.041,0.035-0.044,0.073-0.044,0.073c-21.992-2.823-39.877-35.645-39.877-35.645
					s-17.039,17.379-30.494,15.88C1209.063,1632.191,1207.84,1640.392,1207.516,1647.82z"/>
			</g>
			<g>
				<path style="fill:#471200;" d="M1221.409,1640.904c-0.259,2.823-1.437,5.023-2.63,4.914c-1.193-0.11-1.951-2.487-1.692-5.31
					c0.259-2.823,1.437-5.023,2.63-4.914C1220.91,1635.703,1221.668,1638.08,1221.409,1640.904z"/>
			</g>
			<g>
				<path style="fill:#471200;" d="M1241.931,1642.432c-0.259,2.823-1.437,5.023-2.63,4.914c-1.194-0.11-1.951-2.487-1.692-5.311
					c0.259-2.823,1.437-5.023,2.63-4.914C1241.432,1637.232,1242.19,1639.609,1241.931,1642.432z"/>
			</g>
			<g>
				<path style="fill:#612D0A;" d="M1249.84,1631.242c0.616,1.783-9.398-2.112-9.697-3.235c-0.299-1.123,1.005-1.487,3.006-1.257
					C1245.151,1626.98,1249.684,1630.79,1249.84,1631.242z"/>
			</g>
			<g>
				<path style="fill:#612D0A;" d="M1213.685,1629.672c-0.622,1.781,9.405-2.081,9.707-3.204c0.302-1.122-1-1.491-3.002-1.266
					S1213.842,1629.221,1213.685,1629.672z"/>
			</g>
			<g>
				<g>
					<path style="fill:#F86856;" d="M1238.566,1673.25c-0.377,2.937-4.625,4.81-9.487,4.183c-4.862-0.626-8.498-3.514-8.121-6.451
						c0.377-2.937,4.625-4.81,9.487-4.183C1235.307,1667.425,1238.943,1670.313,1238.566,1673.25z"/>
				</g>
				<g>
					<g>
						<path style="fill:#471200;" d="M1232.305,1673.54c-4.552,0.093-9.388-0.587-12.227-2.087c-0.23-0.126-0.285-0.356-0.122-0.514
							c0.173-0.166,0.491-0.218,0.711-0.084c5.228,2.761,18.142,2.582,21.264-0.288c0.185-0.143,0.493-0.18,0.723-0.061
							c0.22,0.134,0.264,0.365,0.09,0.523C1241.019,1672.599,1236.804,1673.448,1232.305,1673.54z"/>
					</g>
				</g>
			</g>
			<g>
				<path style="fill:#F08D78;" d="M1259.781,1655.634c0.239,3.75-3.323,7.03-7.956,7.325c-4.633,0.295-8.583-2.506-8.822-6.256
					c-0.239-3.75,3.323-7.03,7.956-7.325C1255.593,1649.082,1259.543,1651.883,1259.781,1655.634z"/>
			</g>
			<g>
				<g>
					<path style="fill:#C07255;" d="M1227.756,1659.81c-1.735-0.227-3.129-1.044-3.942-2.352c-0.876-1.409-0.909-3.174-0.086-4.608
						c0.996-1.743,3.065-2.707,5.67-2.638c0.257,0.013,0.377,0.183,0.37,0.388c-0.007,0.209-0.182,0.373-0.388,0.37
						c-2.318-0.064-4.142,0.762-4.997,2.257c-0.685,1.189-0.655,2.662,0.074,3.833c0.894,1.432,2.649,2.179,4.807,2.044
						c0.197-0.023,0.39,0.144,0.399,0.352c0.013,0.208-0.144,0.39-0.352,0.399C1228.769,1659.89,1228.249,1659.874,1227.756,1659.81
						z"/>
				</g>
			</g>
			<g>
				<path style="fill:#54493F;" d="M1167.656,2138.839c-0.579,0.592-2.585,1.153-5.598,1.701
					c-6.904,1.267-19.306,2.394-32.282,3.158c-22.219,1.42-46.121,1.811-47.294,0.284c-4.565-5.926,18.01-28.148,42.184-35.446
					c24.227-7.29,36.545-4.503,36.545-4.503c2.937,6.445,5.962,15.188,7.279,22.42
					C1169.58,2132.212,1169.573,2136.936,1167.656,2138.839z"/>
			</g>
			<g>
				<path style="fill:#76D8D4;" d="M1267.645,1872.927c50.529,75.239-90.76,111.912-90.76,111.912s-6.931,111.828-10.266,120.19
					c-3.334,8.363-31.7,10.342-39.617,0.719s-18.586-115.357-9.529-153.596c9.057-38.24,78.154-91.886,78.154-91.886
					L1267.645,1872.927z"/>
			</g>
			<g>
				<path style="fill:#2E302F;" d="M1168.49,2126.453c0,0-2.694,7.716-6.432,14.087c-6.904,1.267-19.306,2.394-32.282,3.158
					C1135.36,2135.836,1153.757,2125.06,1168.49,2126.453z"/>
			</g>
			<g>
				<path style="fill:#54493F;" d="M1215.354,2117.917c5.278,11.476,10.856,30.56,6.451,34.797
					c-4.405,4.238-82.991,7.928-85.14,5.133c-4.551-5.917,17.999-28.141,42.193-35.444
					C1203.051,2115.1,1215.354,2117.917,1215.354,2117.917z"/>
			</g>
			<g>
				<path style="fill:#0C87B3;" d="M1171.121,2065.886c-15.695-35.457-22.798-86.353-11.261-119.768
					c11.321-32.788,103.993-81.145,103.993-81.145s9.399,14.951-10.349,60.799
					C1233.756,1971.62,1171.121,2065.886,1171.121,2065.886z"/>
			</g>
			<g>
				<path style="fill:#76D8D4;" d="M1321.816,1886.799c32.191,78.631-90.76,111.912-90.76,111.912s-6.931,111.828-10.266,120.19
					c-3.335,8.363-31.7,10.342-39.617,0.719c-7.917-9.623-18.586-115.357-9.529-153.596c9.057-38.24,78.154-91.886,78.154-91.886
					L1321.816,1886.799z"/>
			</g>
			<g>
				<path style="fill:#FD9724;" d="M1329.934,1856.968c-13.92,9.682-161.549,19.311-171.177,5.705
					c-2.355-3.298-3.35-12.194-3.245-24.021c0.314-36.894,11.409-102.57,26.847-117.852c2.145-2.093,4.657-3.873,7.483-5.286
					c18.787-9.89,49.244-5.861,49.244-5.861c8.74,11.722,30.248-1.099,30.248-1.099s42.651-0.471,60.548,13.083
					C1347.779,1735.244,1343.802,1847.339,1329.934,1856.968z"/>
			</g>
			<g>
				<path style="fill:#FECD3D;" d="M1176.34,1851.264c0,0-10.519-2.459-20.828-12.612c0.314-36.894,11.409-102.57,26.847-117.852
					c2.145-2.093,4.657-3.873,7.483-5.286C1173.88,1735.349,1176.34,1851.264,1176.34,1851.264z"/>
			</g>
			<g>
				<path style="fill:#FD9724;" d="M1241.912,1883.602c37.208,8.847,74.559,5.552,79.904,3.196
					c5.345-2.356,7.229-73.946,7.229-73.946L1241.912,1883.602z"/>
			</g>
			<g>
				<g>
					<path style="fill:#232625;" d="M1234.42,1888.499c24.816-2.839,80.874-27.197,79.599-32.359
						c-1.021-4.133-170.31-18.166-170.31-18.166L1234.42,1888.499z"/>
				</g>
				<g>
					<path style="fill:#232625;" d="M1314.019,1851.243v4.896c0,0-10.609,2.342-11.141-0.852
						C1302.346,1852.095,1314.019,1851.243,1314.019,1851.243z"/>
				</g>
				<g>
					<path style="fill:#2E302F;" d="M1234.42,1883.602c24.816-2.839,80.874-27.197,79.599-32.359
						c-1.021-4.134-170.31-18.166-170.31-18.166L1234.42,1883.602z"/>
				</g>
				<g>
					<path style="fill:#424443;" d="M1098.548,1876.897c-3.304-2.685-29.754-96.545-24.219-101.229s151.15,2.555,155.834,8.941
						s11.07,101.334,4.258,103.889S1105.36,1882.432,1098.548,1876.897z"/>
				</g>
			</g>
			<g>
				<path style="fill:#F8B396;" d="M1262.504,1858.185c-2.028-5.156-29.696-15.367-31.009-13.533
					c-1.313,1.834,9.403,11.177,9.403,11.177s-33.203,0.494-33.82,2.656c-0.616,2.162,22.382,4.856,22.382,4.856
					s-25.332,0.46-25.435,2.914c-0.103,2.453,26.44,2.929,26.44,2.929s-24.072,1.787-21.745,4.783
					c0.857,1.104,22.257,0.45,22.257,0.45s-15.085,2.739-14.788,4.129c0.297,1.39,13.683,1.367,24.551-0.677
					s33.296-6.755,33.768-8.184c0.472-1.429,0.446-10.947,0.446-10.947L1262.504,1858.185z"/>
			</g>
			<g>
				<path style="fill:#FECD3D;" d="M1326.834,1720.788c29.705,6.775,52.797,96.322,36.618,125.701
					c-16.179,29.379-94.423,31.791-96.552,29.236c-2.129-2.555-7.378-19.16-3.974-24.695c3.404-5.535,58.473-30.656,62.731-36.617
					C1329.915,1808.453,1283.08,1710.809,1326.834,1720.788z"/>
			</g>
			<g>
				<g>
					<path style="fill:#F8B396;" d="M1084.361,1869.143c-0.063-6.311,19.868-29.462,22.458-27.073
						c2.59,2.389-9.073,19.256-9.073,19.256s19.049-14.702,21.049-12.883c2,1.82-15.115,18.168-15.115,18.168
						s14.774-6.954,16.083-4.808c1.309,2.146-14.069,10.318-14.069,10.318s10.406-1.943,11.035,0.724
						C1117.358,1875.511,1084.613,1894.201,1084.361,1869.143z"/>
				</g>
			</g>
		</g>
		<g>
			<path style="fill:#FE87A0;" d="M981.583,1975.492c3.919-1.117,7.875-1.823,11.789-2.123
				c-11.282-32.204-30.743-59.499-55.343-80.172c-7.096,15.547-20.728,28.01-38.47,33.066c-32.175,9.168-65.7-9.488-74.869-41.662
				c-3.384-11.877-2.98-23.939,0.501-34.904c-18.844-0.656-38.104,1.569-57.233,7.02c-19.13,5.451-36.67,13.712-52.337,24.203
				c8.737,7.483,15.439,17.52,18.824,29.397c9.168,32.175-9.488,65.7-41.663,74.868c-17.742,5.056-35.896,1.65-50.121-7.822
				c-10.009,30.535-12.16,63.988-4.772,97.302c3.484-1.809,7.219-3.294,11.137-4.41c32.175-9.168,65.693,9.463,74.868,41.662
				c7.192,25.239-2.741,51.331-22.902,65.813c30.253,24.904,68.056,39.92,107.92,42.033c-4.7-29.791,13.474-59.1,43.239-67.581
				c29.766-8.482,60.658,6.846,72.367,34.639c32.762-22.808,56.972-55.495,69.554-92.605c-24.767-1.679-46.96-18.617-54.152-43.855
				C930.746,2018.161,949.409,1984.66,981.583,1975.492z M833.247,2085.836c-28.184,8.031-57.542-8.286-65.58-36.494
				c-8.031-28.184,8.31-57.549,36.494-65.58c28.208-8.038,57.549,8.31,65.58,36.494
				C877.779,2048.464,861.454,2077.798,833.247,2085.836z"/>
		</g>
		<g>
			<g>
				<g>
					<path style="fill:#FCCE3A;" d="M1676.51,2122.081c15.67,9.791,33.518,20.231,33.518,20.231l203.893,61.136l17.758,5.313
						l37.848,11.357l16.652,4.992l17.724,5.318c9.931,2.969,20.325-1.985,24.47-11.147c0.417-0.945,0.765-1.879,1.034-2.871
						c3.053-10.755-3.116-21.946-13.818-25.113l-17.314-5.171l-16.681-4.952l-38.248-11.436l-17.793-5.308l-204.348-60.889
						c0,0-21.015-0.196-39.628,0.115c-14.573,0.249-27.657,0.797-28.312,2.024
						C1652.636,2106.834,1663.884,2114.212,1676.51,2122.081z"/>
				</g>
			</g>
			<g>
				<g>
					<g>
						<g>
							
								<rect x="1847.287" y="2009.948" transform="matrix(0.2813 -0.9596 0.9596 0.2813 -739.0519 3323.2173)" style="fill:#FD9724;" width="3.479" height="290.091"/>
						</g>
					</g>
				</g>
				<g>
					<g>
						<g>
							
								<rect x="1842.692" y="2023.317" transform="matrix(0.2813 -0.9596 0.9596 0.2813 -755.2247 3328.323)" style="fill:#FD9724;" width="3.479" height="290.091"/>
						</g>
					</g>
				</g>
			</g>
			<g>
				<g>
					<path style="fill:#FEE4AD;" d="M1710.02,2142.318l11.177-38.79c0,0-20.992-0.188-39.628,0.135
						c-14.55,0.249-27.65,0.804-28.299,2.019c-0.618,1.147,10.61,8.545,23.237,16.411
						C1692.186,2131.863,1710.02,2142.318,1710.02,2142.318z"/>
				</g>
			</g>
			<g>
				<g>
					<path style="fill:#FD9724;" d="M1676.506,2122.093l5.062-18.43c-14.55,0.249-27.65,0.804-28.299,2.019
						C1652.651,2106.829,1663.88,2114.228,1676.506,2122.093z"/>
				</g>
			</g>
			<g>
				<g>
					<g>
						<polygon style="fill:#FD8821;" points="1969.527,2220.118 1986.18,2225.11 1998.277,2186.125 1981.595,2181.174 						"/>
					</g>
				</g>
			</g>
		</g>
		<g>
			<g>
				<path style="fill:#FFFFFF;" d="M1290.673,2171.231c88.341-4.085,135.32-52.596,135.32-52.596s41.362,34.724,92.937,26.298
					c51.575-8.426,1.532,68.682-76.086,78.894C1365.227,2234.041,1290.673,2171.231,1290.673,2171.231z"/>
			</g>
			<g>
				<path style="fill:#FEE4AD;" d="M1423.951,2224.951c70.979-13.889,69.448-98.656,69.448-98.656s31.66,1.532,52.086-7.66
					c20.426-9.192,38.298-33.702,38.298-33.702s-6.485,69.862-64.341,110.299
					C1471.952,2228.424,1423.951,2224.951,1423.951,2224.951z"/>
			</g>
		</g>
		<g>
			<g>
				<path style="fill:#424443;" d="M959.666,2268.519c-8.707-3.391-16.855-9.309-21.546-15.08c-3.92-4.82-5.555-9.541-4.725-13.65
					c2.161-10.708,86.756-60.523,136.816-69.975c20.909-3.942,34.759-0.89,41.182,9.075c3.498,5.43,4.375,11.458,2.602,17.914
					c-7.233,26.354-58.351,52.114-60.524,53.198c-1.852,0.928-4.094,0.175-5.02-1.678c-0.921-1.849-0.172-4.097,1.678-5.02
					c0.501-0.25,50.302-25.341,56.649-48.484c1.2-4.377,0.652-8.261-1.678-11.877c-3.349-5.203-10.365-7.655-20.836-7.286
					c-45.608,1.605-137.439,56.045-143.574,65.885c-0.202,1.787,0.962,4.379,3.236,7.175c5.895,7.248,18.794,15.112,29.357,15.178
					c10.903,0.069,72.178-36.565,90.066-58.074c3.955-4.757,3.752-6.529,3.749-6.545c-3.453-5.208-37.997,7.176-73.88,26.675
					c-1.815,0.986-4.089,0.316-5.075-1.502c-0.987-1.816-0.314-4.088,1.502-5.075c22.074-12,74.419-38.363,83.767-24.083
					c1.76,2.692,1.562,6.056-0.586,10.001c-11.023,20.228-83.403,66.192-99.59,66.089
					C968.831,2271.353,964.174,2270.275,959.666,2268.519z M940.59,2241.712L940.59,2241.712L940.59,2241.712z"/>
			</g>
		</g>
	</g>
</g>
</svg>
