<?xml version="1.0" encoding="utf-8"?>
<!-- Generator: Adobe Illustrator 27.5.0, SVG Export Plug-In . SVG Version: 6.00 Build 0)  -->
<svg version="1.1" id="Capa_1" xmlns="http://www.w3.org/2000/svg" xmlns:xlink="http://www.w3.org/1999/xlink" x="0px" y="0px"
	 viewBox="0 0 2450 1838" style="enable-background:new 0 0 2450 1838;" xml:space="preserve">
<g>
	<rect style="fill:#76589F;" width="2449.492" height="1837.117"/>
	
		<ellipse transform="matrix(0.7071 -0.7071 0.7071 0.7071 -408.092 789.1166)" style="fill:#554493;" cx="748.502" cy="887.169" rx="647.845" ry="647.844"/>
</g>
<g>
	<g>
		<path style="fill:#0B2230;" d="M978.258,1092.258h-25.699c0,0-16.629,3.445-16.516,20.207h214.707c0,0-1.438-21.152-21.598-20.207
			H978.258z"/>
		<path style="fill:#001521;" d="M1146.57,1092.258h-25.699c0,0-16.629,3.445-16.516,20.207h152.566c0,0-1.441-21.152-21.605-20.207
			H1146.57z"/>
	</g>
	<g>
		<polygon style="fill:#C7E1F1;" points="1544.023,1837.117 1550.352,1176.516 1501.879,1176.516 1513.414,1837.117 		"/>
		<rect x="164.348" y="1112.457" style="fill:#BE917A;" width="1919.844" height="64.059"/>
		<polygon style="fill:#81B7D2;" points="2092.906,1837.117 2084.027,1176.516 2036.508,1176.516 2062.898,1837.117 		"/>
		<rect x="164.348" y="1176.516" style="fill:#D69775;" width="207.516" height="660.602"/>
		<g>
			<rect x="371.863" y="1176.516" style="fill:#EAAD82;" width="470.293" height="660.602"/>
			<g>
				<rect x="402.746" y="1212.938" style="fill:#DA9B76;" width="408.527" height="179.879"/>
				<rect x="562.644" y="1293.141" style="fill:#EDEDED;" width="88.719" height="19.488"/>
			</g>
			<g>
				<rect x="402.746" y="1422.793" style="fill:#DA9B76;" width="408.527" height="179.879"/>
				<rect x="562.644" y="1502.992" style="fill:#EDEDED;" width="88.719" height="19.488"/>
			</g>
			<g>
				<rect x="402.746" y="1636.652" style="fill:#DA9B76;" width="408.527" height="179.867"/>
				<rect x="562.644" y="1716.844" style="fill:#EDEDED;" width="88.719" height="19.484"/>
			</g>
		</g>
		<rect x="164.348" y="1113.715" style="fill:#9B695E;" width="211.387" height="61.543"/>
	</g>
	<g>
		<g>
			<path style="fill:#001521;" d="M657.715,1091.934l-0.449-347.508c-1.453-36.949,19.781-32.125,19.781-32.125
				s19.297-6.75,23.156,34.746l49.91,344.887H657.715z"/>
			<path style="fill:#001521;" d="M657.715,1091.934h-25.84c0,0-16.715,3.465-16.59,20.309h215.797c0,0-1.453-21.254-21.719-20.309
				H657.715z"/>
			<rect x="320.836" y="518.762" style="fill:#01101A;" width="14.824" height="507.969"/>
			<rect x="335.66" y="518.762" style="fill:#0B2230;" width="723.313" height="507.922"/>
			<rect x="359.414" y="538.981" style="fill:#00A5B9;" width="675.805" height="467.484"/>
			<path style="fill:#01131E;" d="M641.141,493.336c0,17.234,13.981,30.762,31.207,31.199c36.969,0.969,46.094-14.93,46.094-32.156
				c0-17.238-2.402-35.535-46.094-30.246C655.242,464.203,641.141,476.109,641.141,493.336z"/>
			<ellipse style="fill:#0F2736;" cx="697.316" cy="493.379" rx="31.207" ry="31.199"/>
			<circle cx="697.316" cy="493.379" r="14.887"/>
		</g>
	</g>
	<g>
		<g>
			<rect x="487.383" y="557.836" style="fill:#2656A3;" width="202.535" height="214.59"/>
			<rect x="487.383" y="557.836" style="fill:#25246D;" width="202.535" height="17.555"/>
			<g>
				<g>
					<g>
						<path style="fill:#633C1A;" d="M567.184,638.199c-3.066,10.594-1.731,20.258,2.391,30.195
							c3.473,8.352,8.141,15.391,10.051,24.57c1.855,8.969-0.996,15.699-4.008,23.938c-2.586,7.09-3.891,16.75,2.551,22.41
							c7.16,6.293,23.098,4.152,31.773,3.492c10.074-0.758,20.957-0.219,30.727-3.133c8.469-2.531,13.687-10.594,15.648-18.941
							c2.594-11.043-0.352-21.43-7.09-30.375c-5.773-7.656-14.137-12.883-8.77-23.246c2.941-5.676,7.594-8.988,8.32-15.695
							c0.785-7.32-0.957-14.289-3.883-21.031c-7.644-17.613-25.09-31.656-44.016-29.91c-6.742,0.617-16.258,5.5-21.16,10.644
							C573.086,618.082,569.785,629.231,567.184,638.199z"/>
					</g>
					<g>
						<g>
							<path style="fill:#F7B6A0;" d="M570.066,772.426c5.078-17.813,9.055-36.355,9.055-36.355
								c8.008-32.785-6.395-39.449-6.395-39.449c-10.555,5.109-16.988,14.574-16.988,14.574c-2.957,12.664-7.258,44.633-9.398,61.23
								H570.066z"/>
						</g>
					</g>
					<g>
						<path style="fill:#F7B6A0;" d="M551.789,772.426c-3.348-6.891-6.656-12.078-6.656-12.078
							c-9.328-15-22.492-46.965-22.492-46.965l-6.977,1.215c0,0,4.578,31.449,14.121,57.828H551.789z"/>
					</g>
					<g>
						<polygon style="fill:#F7B6A0;" points="641.102,772.426 652.988,698.547 614.84,684.414 594.883,684.414 574.238,694.082 
							576.559,772.426 						"/>
					</g>
					<g>
						<path style="fill:#F7B6A0;" d="M592.355,685.664h25.219v-30.125h-25.219C592.355,655.539,595.043,679.273,592.355,685.664z"/>
					</g>
					<g>
						<path style="fill:#F49F8D;" d="M593.543,676.363c8.113,1.777,16.625,1.719,24.031-1.547v-19.277h-25.219
							C592.355,655.539,593.676,667.188,593.543,676.363z"/>
					</g>
					<g>
						<path style="fill:#F7B6A4;" d="M579.074,639.453c-0.031,8.777,1.41,24.168,7.481,29.766
							c7.359,6.785,31.019-0.742,33.508-11.168c2.656-11.148,8.316-24.375,6.266-35.316c-2.344-12.48-14.473-20.52-27.137-17.363
							C586.539,608.523,579.102,627.949,579.074,639.453z"/>
					</g>
					<g>
						<g>
							<path style="fill:#F7B6A4;" d="M630.289,638.012c2.938,3.922-1.762,13.586-9.117,15.871
								c-1.426-2.145-1.309-7.645-1.156-10.191c0.152-2.5,2.234-4.441,4.051-6.313C624.625,636.805,628.129,635.133,630.289,638.012
								z"/>
						</g>
					</g>
					<g>
						<path style="fill:#633C1A;" d="M612.43,630.176c2.816,1.52,2.539,5.516,3.273,7.449c1.691,4.477,3.926,4.758,6.633,5.063
							c0.273-2.941,2.469-5.008,5.203-5.738c2.367-0.023,2.988,1.523,3.629,3.105c0.961-2.789,1.641-10.492,1.371-13.422
							c-0.293-3.285-1.59-6.656-2.504-9.816c-0.996-3.473-2.676-4.277-5.254-6.82c-2.418-2.379-5.309-2.617-7.77-4.535
							c-0.855,0.625-1.539,1.547-1.984,2.414c-1.688,1.965-6.738,10.188-7.668,11.438
							C607.359,619.313,602.938,625.066,612.43,630.176z"/>
					</g>
					<g>
						<path style="fill:#633C1A;" d="M606.43,620.644l10.582-15.184c-3.508-5.09-16.691-4.438-16.707-4.438
							c-13.785,0.418-26.016,13.813-24.43,27.555c0.352,3.027,1.238,8.457,3.199,10.875c1.156-14.086,3.727-14.766,4.793-15.441
							c3.238,1.215,11.238,0.629,13.961-0.531c2.977-1.266,6.883-2.301,9.531-4.168"/>
					</g>
					<g>
						<path style="fill:#14AAC9;" d="M568.5,751.816c1.148,2.703,2.121,10.848,2.746,20.609h71.141l-0.051-4.551l6.574-23.742
							c-11.402-16.332-22.512-36.09-3.148-48.332c-0.227-0.082-0.469-0.156-0.699-0.242c-6.051-2.23-17.535-6.664-23.59-8.894
							c-15.926,17.266-33.484,0.98-33.484,0.98l-13.75,6.438l-5.738,13.805c-2.313,6-8.242,20.23-7.082,26.266
							C562.75,741.152,565.707,745.242,568.5,751.816z"/>
					</g>
					<g>
						<path style="fill:#2778A8;" d="M605.598,695.297c-5.25,0-13.305-2.109-15.859-5.52c-0.254-0.344-0.184-0.824,0.156-1.074
							c0.34-0.262,0.824-0.188,1.078,0.152c2.445,3.262,12.332,5.625,16.926,4.707c4.047-0.449,9.113-2.949,12.106-5.945
							c0.301-0.301,0.789-0.301,1.094,0c0.297,0.301,0.297,0.785,0,1.086c-3.273,3.273-8.602,5.895-12.961,6.379
							C607.414,695.227,606.555,695.297,605.598,695.297z"/>
					</g>
					<g>
						<g>
							<g>
								<path style="fill:#F2937C;" d="M625.019,648.594c-0.305,0-0.598-0.156-0.754-0.441c-0.238-0.418-0.09-0.945,0.332-1.184
									c0.898-0.5,1.742-1.777,2.152-3.238c0.371-1.348,0.313-2.606-0.18-3.461c-0.234-0.41-0.09-0.945,0.328-1.184
									c0.41-0.234,0.945-0.09,1.18,0.328c0.727,1.269,0.844,2.969,0.344,4.781c-0.535,1.914-1.672,3.555-2.98,4.293
									C625.313,648.563,625.16,648.594,625.019,648.594z"/>
							</g>
							<g>
								<path style="fill:#F2937C;" d="M627.133,644.754c-0.207,0-0.414-0.078-0.578-0.231c-0.461-0.41-0.992-0.582-1.676-0.543
									c-0.469,0.043-0.891-0.336-0.918-0.813c-0.027-0.481,0.332-0.891,0.809-0.918c1.149-0.074,2.145,0.258,2.945,0.988
									c0.359,0.328,0.383,0.875,0.059,1.227C627.605,644.652,627.371,644.754,627.133,644.754z"/>
							</g>
						</g>
					</g>
					<g>
						<g>
							<g>
								<path style="fill:#F7B6A0;" d="M515.586,682.723c-4.816,0.195,1.012,12.629,0.973,15.207
									c-1.133-2.934-4.586-14.371-7.77-14.109c-1.875,0.332,2.621,10.07,3.09,12.047c-1.016-1.598-3.957-8.539-6.094-7.848
									c-1.379,0.852,1.906,7.426,2.559,9.59c-0.438-0.383-3.465-6.512-4.41-5.41c-0.996,0.996,0.457,5.555,1.344,7.762
									c4.023,9.969,8.18,21.106,14.051,16.633c4.387-3.34,6.711-5.308,8.602-21.066c0.324-2.723-4.188-0.586-5.977,4.684
									C520.727,699.57,516.16,682.699,515.586,682.723z"/>
							</g>
						</g>
						<g>
							<g>
								<path style="fill:#F2937C;" d="M520.992,703.375c0.102-0.109,0.203-0.215,0.305-0.32c0.336-0.344-0.684-0.496-0.906-0.262
									c-0.125,0.125-0.23,0.262-0.344,0.402c0.371-0.031,0.738-0.051,1.102-0.074c-0.422-0.281-0.894-0.43-1.383-0.188
									c-0.281,0.137-0.508,0.559-0.672,0.805c-0.223,0.332-0.711,0.41-0.977,0.727c-1.344,1.566-0.844,4.406,0.144,6.059
									c0.254,0.422,1.75,0.422,1.57-0.211c-0.394-1.398-0.938-2.617-0.848-4.109c0.055-0.898,0.465-1.215,1.063-1.727
									c0.246-0.219,0.293-0.266,0.461-0.551c0.348-0.602,0.246-0.199-0.305-0.445c0.238,0.101,0.863,0.18,1.008-0.133
									c0.051-0.113,0.102-0.234,0.141-0.356c0.125-0.394-0.918-0.449-1.02-0.137c-0.031,0.117-0.07,0.238-0.113,0.359
									C520.125,703.531,520.844,703.527,520.992,703.375L520.992,703.375z"/>
							</g>
						</g>
					</g>
					<g>
						<g>
							<path style="fill:#F39D94;" d="M597.977,645.934c0,1.16,2.215,2.094,4.949,2.094c2.731,0,4.945-0.934,4.945-2.094
								c0-1.156-2.215-2.098-4.945-2.098C600.191,643.836,597.977,644.777,597.977,645.934z"/>
						</g>
						<g>
							<path style="fill:#F39D94;" d="M579.844,645.934c0,1.16,1.781,2.094,3.98,2.094c2.203,0,3.992-0.934,3.992-2.094
								c0-1.156-1.789-2.098-3.992-2.098C581.625,643.836,579.844,644.777,579.844,645.934z"/>
						</g>
						<g>
							<path style="fill:#7F482E;" d="M584.73,637.922c0.965,0.063,1.699,1.445,1.637,3.078c-0.055,1.633-0.887,2.902-1.856,2.836
								c-0.961-0.063-1.703-1.441-1.641-3.078C582.934,639.129,583.766,637.856,584.73,637.922z"/>
						</g>
						<g>
							<path style="fill:#7F482E;" d="M601.625,637.918c0.969,0.066,1.707,1.441,1.637,3.078c-0.055,1.629-0.887,2.902-1.855,2.84
								c-0.969-0.066-1.703-1.445-1.637-3.078C599.824,639.121,600.66,637.852,601.625,637.918z"/>
						</g>
						<g>
							<g>
								<path style="fill:#F2937C;" d="M591.625,638.445c0.746,2.195-1.258,4.512-2.645,5.914c-0.672,0.668-1.547,1.684-1.133,2.719
									c0.84,2.074,3.676,2.973,5.676,3.406c0.211,0.047,1.578,0.078,1.258-0.465c-0.344-0.574-1.348-0.664-1.648,0
									c0.348-0.101,0.703-0.199,1.043-0.293c-2.441-0.473-6.828-2.109-4.18-5.074c1.355-1.516,3.629-4.152,2.23-6.289
									C592.125,638.211,591.539,638.203,591.625,638.445L591.625,638.445z"/>
							</g>
						</g>
						<g>
							<path style="fill:#EE756D;" d="M592.438,657.828c-1.422,0-2.957-0.488-4.348-1.891c-0.297-0.297-0.297-0.789,0-1.086
								c0.305-0.297,0.789-0.297,1.094,0c3.063,3.078,6.641,0.297,6.789,0.176c0.336-0.266,0.816-0.211,1.078,0.121
								c0.273,0.34,0.215,0.816-0.121,1.082C595.996,656.977,594.313,657.828,592.438,657.828z"/>
						</g>
						<g>
							<path style="fill:#633C1A;" d="M597.074,637.578c-0.219,0-0.438-0.09-0.594-0.273c-0.273-0.328-0.227-0.809,0.098-1.086
								c3.359-2.789,6.906-2.836,10.254-0.141c0.328,0.266,0.387,0.75,0.117,1.078c-0.266,0.332-0.75,0.391-1.082,0.121
								c-2.785-2.246-5.5-2.207-8.305,0.129C597.418,637.523,597.242,637.578,597.074,637.578z"/>
						</g>
						<g>
							<path style="fill:#633C1A;" d="M588.602,637.5c-0.168,0-0.336-0.051-0.484-0.168c-2.434-1.957-4.762-2.226-7.121-0.832
								c-0.359,0.215-0.832,0.09-1.051-0.269c-0.215-0.371-0.098-0.84,0.269-1.059c2.891-1.711,5.957-1.379,8.871,0.969
								c0.328,0.262,0.383,0.746,0.113,1.078C589.047,637.406,588.828,637.5,588.602,637.5z"/>
						</g>
					</g>
					<g>
						<path style="fill:#F7B6A0;" d="M642.379,772.426h23.613l1.102-48.617c0,0,1.023-23.848-21.332-28.008
							c0,0-15.082,6.719-7.898,32.359L642.379,772.426z"/>
					</g>
					<g>
						<path style="fill:#FFFFFF;" d="M624.012,650.852c0,0.957-0.777,1.734-1.727,1.734c-0.957,0-1.734-0.777-1.734-1.734
							c0-0.957,0.777-1.734,1.734-1.734C623.234,649.117,624.012,649.894,624.012,650.852z"/>
					</g>
				</g>
				<g>
					<polygon style="fill:#14AAC9;" points="640.777,772.426 638.887,739.188 566.059,744.832 563.387,772.426 					"/>
				</g>
				<g>
					<path style="fill:#14AAC9;" d="M642.859,694.699c0,0-12.18,4.488-10.641,25.519l3.078,49.231c0,0,18.457,5.644,37.953-2.566
						l-5.52-51.926C667.73,714.957,665.301,699.699,642.859,694.699z"/>
				</g>
				<g>
					<path style="fill:#14AAC9;" d="M575.547,693.164c0,0-17.117,4.422-22.5,17.5l-13.844,29.234c0,0,9.227,20.578,25.961,24.039
						l19.039-39.617C584.203,724.32,593.625,702.203,575.547,693.164z"/>
				</g>
				<g>
					<path style="fill:#2778A8;" d="M635.551,765.473c-0.394,0-0.73-0.305-0.766-0.703c-0.293-3.465-0.719-7.906-1.184-12.664
						c-0.91-9.402-1.938-20.059-2.281-26.981c-0.391-7.898-1.109-22.602,8.016-29.125c0.348-0.25,0.828-0.172,1.074,0.18
						c0.246,0.344,0.164,0.82-0.18,1.066c-8.445,6.043-7.746,20.199-7.375,27.805c0.344,6.887,1.371,17.523,2.277,26.906
						c0.461,4.766,0.894,9.211,1.188,12.684c0.035,0.426-0.281,0.797-0.707,0.832C635.594,765.473,635.574,765.473,635.551,765.473z
						"/>
				</g>
			</g>
			<g>
				<path style="fill:#FFFFFF;" d="M658.144,566.336c0,2.613-2.121,4.734-4.742,4.734c-2.617,0-4.738-2.121-4.738-4.734
					c0-2.617,2.121-4.738,4.738-4.738C656.023,561.598,658.144,563.719,658.144,566.336z"/>
				<path style="fill:#95C11F;" d="M671.246,566.336c0,2.613-2.125,4.734-4.738,4.734c-2.621,0-4.742-2.121-4.742-4.734
					c0-2.617,2.121-4.738,4.742-4.738C669.121,561.598,671.246,563.719,671.246,566.336z"/>
				<path style="fill:#E74645;" d="M684.344,566.336c0,2.613-2.121,4.734-4.738,4.734s-4.738-2.121-4.738-4.734
					c0-2.617,2.121-4.738,4.738-4.738S684.344,563.719,684.344,566.336z"/>
			</g>
		</g>
		<g>
			<rect x="689.914" y="557.836" style="fill:#FEF1E6;" width="202.531" height="214.59"/>
			<rect x="689.914" y="557.836" style="fill:#25246D;" width="202.531" height="17.555"/>
			<g>
				<path style="fill:#FFFFFF;" d="M860.672,566.336c0,2.613-2.121,4.734-4.742,4.734c-2.617,0-4.738-2.121-4.738-4.734
					c0-2.617,2.121-4.738,4.738-4.738C858.551,561.598,860.672,563.719,860.672,566.336z"/>
				<path style="fill:#95C11F;" d="M873.773,566.336c0,2.613-2.125,4.734-4.734,4.734c-2.621,0-4.742-2.121-4.742-4.734
					c0-2.617,2.121-4.738,4.742-4.738C871.648,561.598,873.773,563.719,873.773,566.336z"/>
				<path style="fill:#E74645;" d="M886.871,566.336c0,2.613-2.121,4.734-4.734,4.734c-2.617,0-4.738-2.121-4.738-4.734
					c0-2.617,2.121-4.738,4.738-4.738C884.75,561.598,886.871,563.719,886.871,566.336z"/>
			</g>
			<g>
				<g>
					<g>
						<path style="fill:#F5A683;" d="M748.758,772.426c2.055-8.063,4.469-15.945,7.348-23.395c0,0-11.523-37.945-31.617-6.777
							c0,0-1.402,12.016-2.324,30.172H748.758z"/>
					</g>
					<g>
						<path style="fill:#6CBEEA;" d="M738.688,772.426l17.609-46.195c0,0,11.051-30.281-2.578-47.848
							c0,0-16.774,3.938-34.395,42.891l-12.461,24.465l25.676,26.688H738.688z"/>
					</g>
				</g>
				<g>
					<polygon style="fill:#F6AF8D;" points="759.25,678.461 771.672,669.371 798.359,669.371 813.125,678.461 					"/>
				</g>
				<g>
					<path style="fill:#F5A683;" d="M770.461,674.453h27.898v-30.461h-27.898C770.461,643.992,773.434,667.992,770.461,674.453z"/>
				</g>
				<g>
					<path style="fill:#F18A65;" d="M798.359,657.805v-13.813h-27.898c0,0,0.84,6.781,1.184,14.106
						C779.672,661.859,789.809,661.297,798.359,657.805z"/>
				</g>
				<g>
					<g>
						<path style="fill:#49220F;" d="M754.379,619.836c1.41,4.547,2.824,9.805,5.586,13.906c3.156,4.684,8.258,5.391,11.039,0.059
							c2.621-5.023,3.035-11.445,2.48-16.852c-0.301-2.953,4.363-13.473,1.793-15.66c-4.02-3.426-16.859-3.887-20.308-0.461
							C751.738,604.039,753.137,615.836,754.379,619.836z"/>
					</g>
					<g>
						<path style="fill:#F6AF8D;" d="M756.313,627.594c-0.109,5.324,0.262,10.668,1.266,15.895c1.023,5.309,2.219,15.199,7.91,17.82
							c1.769,0.813,3.242,0.875,5.344,0.906c8.031,0.109,16.953-4.555,22.488-10.098c10.313-10.328,12.336-37.152,3.645-48.281
							c-7.938-10.148-35.852-7.371-38.855,7.617C757.066,616.625,756.434,622.086,756.313,627.594z"/>
					</g>
					<g>
						<path style="fill:#F5A683;" d="M756.313,627.594c-0.109,5.324,0.262,10.668,1.266,15.895c1.023,5.309,2.219,15.199,7.91,17.82
							c1.769,0.813,3.242,0.875,5.344,0.906c8.031,0.109,16.953-4.555,22.488-10.098c10.313-10.328,12.336-37.152,3.645-48.281
							c-7.938-10.148-35.852-7.371-38.855,7.617C757.066,616.625,756.434,622.086,756.313,627.594z"/>
					</g>
					<g>
						<path style="fill:#F18A65;" d="M795.477,649.547c8.391-11.664,9.539-35.41,1.488-45.711c-0.434-0.555-0.945-1.07-1.488-1.551
							l1.73,21.438l-1.73,6.414V649.547z"/>
					</g>
					<g>
						<path style="fill:#7F482E;" d="M761.891,628.5c0,0.91-0.598,1.637-1.324,1.637s-1.316-0.727-1.316-1.637
							c0-0.906,0.59-1.644,1.316-1.644S761.891,627.594,761.891,628.5z"/>
					</g>
					<g>
						<path style="fill:#7F482E;" d="M777.258,629.129c0,0.906-0.586,1.644-1.316,1.644c-0.727,0-1.316-0.738-1.316-1.644
							c0-0.906,0.59-1.641,1.316-1.641C776.672,627.488,777.258,628.223,777.258,629.129z"/>
					</g>
					<g>
						<g>
							<path style="fill:#F49C81;" d="M799.144,627.863c1.266-1.188,2.363-4.492,4.578-3.313c0.215,0.113,0.465,0.125,0.691,0.219
								c0.859,0.371,0.996,1.242,1.293,1.996c0.52,1.297,0.699,2.758,0.895,4.133c0.012,0.07,0.191,0.07,0.203,0
								c0.34-2.477-0.133-6.461-2.695-7.621c-2.625-1.195-6.391,1.668-6.352,4.402C797.766,628.184,798.902,628.094,799.144,627.863
								L799.144,627.863z"/>
						</g>
					</g>
					<g>
						<g>
							<path style="fill:#F18A65;" d="M765.285,645.969c1.426,1.559,3.777,1.137,5.68,1.148c1.477,0.016,3.387-0.602,4.613-1.445
								c0.148-0.109,0.148-0.242,0.106-0.402c-0.016-0.07-0.039-0.141-0.063-0.211c-0.125-0.434-1.086-0.305-1.356-0.176
								c-2.469,1.141-5.441,1.75-8.086,0.746C765.984,645.551,764.898,645.547,765.285,645.969L765.285,645.969z"/>
						</g>
					</g>
					<g>
						<path style="fill:#49220F;" d="M794.66,621.59c0.07,1.387,0.398,8.098,0.734,9.309c0.332,1.215,1.5,1.566,1.887,0.606
							c2.035-1.832,1.75-6.77,5.09-7.238c3.637-0.516,4.34,4.809,4.238,7.238c1.711-3.391,3.555-7.078,3.582-10.684
							c0.012-1.93,0.023-6.609,0-10.082c-0.043-7.172-5.52-13.629-13.598-13.117c-3.691,0.231-7.824,2.191-9.438,5.699
							c-1.73,3.75,0.672,6.902,3.125,9.578C793.355,616.258,794.418,616.832,794.66,621.59z"/>
					</g>
					<g>
						<g>
							<path style="fill:#F5A683;" d="M805.473,624.574c3.488,3.508,1.281,13.711-5.762,17.023
								c-1.734-1.949-1.648-7.145-1.852-9.723c-0.195-2.519-0.262-4.938,1.289-7.066
								C799.625,624.156,802.906,621.984,805.473,624.574z"/>
						</g>
						<g>
							<g>
								<g>
									<path style="fill:#F18A65;" d="M799.746,631.543c-0.063,0.488-0.461,1.523-0.078,1.938c0.309,0.336,0.633,0.57,1.066,0.723
										c0.813,0.281,1.676-0.078,2.09-0.793c0.441-0.77,0.555-1.781,0.652-2.648c0.07-0.629,0.117-1.332-0.371-1.816
										c-0.16-0.16-0.609-0.16-0.766,0c-0.703,0.707-0.504,2-0.637,2.914c-0.086,0.543-0.191,1.23-0.57,1.66
										c-0.105,0.121-0.133,0.066,0.141,0.043c0.262-0.012-0.059-0.09-0.199-0.195c-0.461-0.352-0.301-1.305-0.332-1.824
										C800.719,631.199,799.797,631.207,799.746,631.543L799.746,631.543z"/>
								</g>
							</g>
							<g>
								<g>
									<path style="fill:#F18A65;" d="M801.766,629.188c0.949-1.227,1.883,0,2.102,0.91c0.137,0.535,0.102,1.113,0.051,1.652
										c-0.102,1.144-0.949,2.07-1.305,3.125c-0.09,0.273,0.5,0.262,0.637,0.18c1.93-1.199,2.879-4.09,1.582-6.078
										c-0.801-1.227-3.246-1.395-3.855,0.102C800.844,629.394,801.625,629.367,801.766,629.188L801.766,629.188z"/>
								</g>
							</g>
						</g>
					</g>
					<g>
						<g>
							<path style="fill:#F18A65;" d="M763.336,623.41c-0.269,1.82,0.477,3.797,0.219,5.727c-0.398,3.031-1.582,5.563-2.594,8.387
								c-1.277,3.574,6.184,3.395,7.914,3.09c1.273-0.219,0.359-0.992-0.5-0.895c-0.602,0.106-1.215,0.133-1.828,0.102
								c-5.453-0.262-3.703-2.172-3.031-4.027c0.707-1.973,1.523-3.559,1.805-5.66c0.336-2.531-1.035-4.371-1.238-6.723
								C764.059,623.148,763.375,623.156,763.336,623.41L763.336,623.41z"/>
						</g>
					</g>
					<g>
						<path style="fill:#3F1C08;" d="M749.883,596.078c0.356,1.395,0.5,2.941,1.024,4.289c2.234,5.68,6.473,9.465,12.582,10.715
							c4.672,0.957,7.684-2.375,11.977-2.949c3.875-0.512,6.996,2.016,10.594,2.949c3.488,0.906,4.773,1.137,7.449-1.262
							c1.285-1.145,2.84-1.637,4.234-2.57c1.512-1.004,2.516-2.625,4.105-3.516c2.723-1.52,2.031-1.379,3.426-4.523
							c1.059-2.379,1.156-5.078,0.012-7.438c-1.246-2.586-4.68-3.066-5.777-5.254c-1.102-2.195-8.273-0.629-10.664-1.101
							c-3.715-0.731-11.719-2.359-23.027-0.512C765.816,584.906,749.894,588.367,749.883,596.078z"/>
					</g>
					<g>
						<path style="fill:#63311D;" d="M771.238,625.168c-0.207,0-0.422-0.094-0.555-0.281c-0.227-0.301-0.164-0.734,0.144-0.965
							c3.016-2.242,7.606-1.809,9.547,0.055c0.269,0.269,0.281,0.711,0.016,0.98c-0.262,0.281-0.703,0.285-0.977,0.02
							c-1.344-1.297-5.199-1.844-7.758,0.059C771.531,625.125,771.387,625.168,771.238,625.168z"/>
					</g>
					<g>
						<path style="fill:#63311D;" d="M763.277,625.168c-0.168,0-0.332-0.055-0.465-0.18c-1.394-1.266-3.781-1.074-5.289-0.152
							c-0.328,0.199-0.754,0.098-0.949-0.23c-0.199-0.324-0.098-0.754,0.231-0.949c1.91-1.172,4.996-1.457,6.941,0.309
							c0.281,0.258,0.305,0.699,0.043,0.981C763.656,625.09,763.465,625.168,763.277,625.168z"/>
					</g>
				</g>
				<g>
					<path style="fill:#6CBEEA;" d="M838.832,772.426c-0.293-3.746-0.484-6.082-0.484-6.082l-4.773-82.996l-35.215-14.77
						c-21.102,16.707-26.688,0-26.688,0l-19.5,9.785c-13.074,7.953-15.16,61.523-15.16,61.523
						c-0.961,10.844-1.969,21.691-2.922,32.539H838.832z"/>
				</g>
				<g>
					<path style="fill:#3AA4DC;" d="M736.945,760.148c-0.383,0-0.691-0.309-0.691-0.691c0-21.434,0.836-44.348,6.945-66.637
						c0.102-0.371,0.484-0.586,0.852-0.484c0.363,0.102,0.582,0.477,0.484,0.852c-6.063,22.129-6.898,44.93-6.898,66.269
						C737.637,759.84,737.328,760.148,736.945,760.148z"/>
				</g>
				<g>
					<path style="fill:#3AA4DC;" d="M782.266,683.648c-1.676,0-3.223-0.172-4.516-0.527c-2.371-0.648-8.914-3.285-10.676-7.68
						c-0.141-0.356,0.035-0.758,0.391-0.895c0.348-0.145,0.758,0.027,0.898,0.383c1.535,3.848,7.707,6.301,9.75,6.859
						c6.016,1.637,17.844-0.715,21.242-7.215c0.18-0.336,0.598-0.473,0.934-0.293c0.34,0.18,0.473,0.598,0.293,0.934
						C797.637,680.859,788.926,683.648,782.266,683.648z"/>
				</g>
				<g>
					<path style="fill:#F5A683;" d="M863.051,772.426c1.465-29.051-4.02-51.953-9.887-59.914c-4.625,0-12.121,2.879-21.695,0
						c-1.832,8.793,8.027,48.336,8.359,59.914H863.051z"/>
				</g>
				<g>
					<path style="fill:#6CBEEA;" d="M829.156,772.426h27.398c10.305-1.93,15.988-5.465,15.988-5.465l-15.231-58.379
						c-6.918-18.226-23.738-25.234-23.738-25.234c-14.984,3.477-13.48,20.852-13.48,20.852L829.156,772.426z"/>
				</g>
				<g>
					<path style="fill:#3AA4DC;" d="M829.504,765.356c-0.301,0-0.578-0.199-0.668-0.508c-3.621-12.801-5.777-26.328-7.871-39.41
						l-0.586-3.68c-1.906-11.82-3.273-25.215,4.563-34.613c0.242-0.293,0.676-0.332,0.977-0.09c0.289,0.246,0.332,0.68,0.09,0.977
						c-7.469,8.953-6.117,21.992-4.262,33.508l0.586,3.68c2.082,13.039,4.238,26.527,7.836,39.25
						c0.109,0.371-0.106,0.754-0.477,0.856C829.629,765.344,829.566,765.356,829.504,765.356z"/>
				</g>
			</g>
		</g>
		<g>
			<g>
				<rect x="689.914" y="772.426" style="fill:#FFFFFC;" width="202.531" height="214.59"/>
				<rect x="689.914" y="772.426" style="fill:#25246D;" width="202.531" height="17.559"/>
				<g>
					<circle style="fill:#FFFFFF;" cx="855.93" cy="780.926" r="4.738"/>
					<path style="fill:#95C11F;" d="M873.769,780.926c0,2.617-2.121,4.738-4.738,4.738c-2.613,0-4.734-2.121-4.734-4.738
						c0-2.617,2.121-4.738,4.734-4.738C871.648,776.188,873.769,778.309,873.769,780.926z"/>
					<path style="fill:#E74645;" d="M886.871,780.926c0,2.617-2.121,4.738-4.734,4.738c-2.617,0-4.738-2.121-4.738-4.738
						c0-2.617,2.121-4.738,4.738-4.738C884.75,776.188,886.871,778.309,886.871,780.926z"/>
				</g>
			</g>
			<g>
				<g>
					<path style="fill:#E85733;" d="M760.242,851.574c-0.559,2.324-2.641,4.254-3.473,6.5c-0.973,2.641-1.391,5.898-0.527,8.731
						c0.875,2.879,3.277,3.648,4.887,5.328c1.746,0.563,3.613,0.68,5.434,0.191c2.168-0.582,4.266-2.004,6.477-2.324
						c3.691-0.531,6.301,1.672,8.445,4.434c1.18,1.527,2.504,3.797,4.543,4.297c3.023,0.73,5.902-0.496,8.188-2.441
						c3.109-2.648,5.727-4.336,9.879-4.789c2.531-0.273,5.012-0.566,6.711-2.727c2.008-2.543,2.469-4.906,3.152-7.945
						c0.426-1.906,1.063-3.527,2.563-4.824c1.16-1.004,2.949-1.496,4.039-2.613c0-0.258,0.008-0.516-0.004-0.773
						c-0.375-7.613-2.215-14.953-5.461-21.899c-2.91-6.203-6.824-12.465-14.281-12.387c-3.441,0.039-5.164,0.816-7.961-1.785
						c-5.184-4.813-9.895-11.316-18.18-8.672c-6.504,2.074-12.355,9.434-15.738,14.973c-3.848,6.297-5.191,13.824-1.637,20.422
						C758.742,845.953,761.027,848.297,760.242,851.574z"/>
				</g>
				<g>
					<path style="fill:#F7B6A0;" d="M768.605,914.434c2.059-19.945-7.926-20.379-7.926-20.379
						c-11.336-2.188-15.516,15.113-15.516,15.113s-5.801,38.059-4.68,54.902c0,0,12.281,6.637,17.234-4.191L768.605,914.434z"/>
				</g>
				<g>
					<path style="fill:#F7B6A0;" d="M746.977,987.016c4-8.145,7.719-16.926,10.621-26.012c0,0-4.875-25.828-16.984-10.48
						c-2.191,12.832-5.727,25.355-9.555,36.492H746.977z"/>
				</g>
				<g>
					<polygon style="fill:#F7B6A0;" points="814.109,987.016 834.164,897.223 796.711,883.438 779.184,883.438 756.012,894.285 
						763.965,987.016 					"/>
				</g>
				<g>
					<path style="fill:#F7B6A0;" d="M776.961,884.535h22.16v-26.461h-22.16C776.961,858.074,779.324,878.922,776.961,884.535z"/>
				</g>
				<g>
					<path style="fill:#F2937C;" d="M790.691,872.082c2.769-0.519,5.828-1.246,8.43-2.644v-11.363h-22.16
						c0,0,0.836,7.352,1.02,14.508C782.172,873.07,786.57,872.848,790.691,872.082z"/>
				</g>
				<g>
					<path style="fill:#242055;" d="M815.848,987.016c1.559-3.414,4.426-8.949,4.324-11.91c-0.113-3.348,3.555-8.781,3.824-12.121
						c0.273-3.344,0.215-6.664,1.848-9.66c3.047-5.594,3.004-13.867,4.387-20.141c1.406-6.367,2.371-9.523,2.371-16.078
						c0-3.484,2.984-7.375,3.84-10.762c0.906-3.598,0.398-7.934-3.156-9.559c-3.156-1.445-6.75-2.348-10.02-3.559
						c-5.316-1.961-15.41-5.856-20.723-7.813c-19.012,16.359-29.414,0.859-29.414,0.859l-12.082,5.656l-0.141,95.086H815.848z"/>
				</g>
				<g>
					<path style="fill:#242055;" d="M756.012,942.652c2.449,5.758-0.508,9.055-2.105,23.074c-0.934,8.266-1.797,15.328-2.848,21.289
						h78.769c-1.313-3.77-2.117-7.602-2.551-11.852c-1.457-14.398,1.137-28.965,3.121-42.891c0.953-6.715,4.445-15.371,3.715-22.07
						c-0.688-6.344-8.52-11.629-14.453-11.629c-8.461-0.008-16.457,4.461-24.961,5.293c-9.621,0.957-14.648-2.504-21.957-8.012
						c-2.965-2.234-7.715-7.207-11.156-4.012c-3.602,3.336-3.828,7.664-5.574,12.215c-2.031,5.27-7.242,17.766-6.23,23.07
						C750.957,933.277,753.547,936.875,756.012,942.652z"/>
				</g>
				<g>
					<g>
						<path style="fill:#F7B6A0;" d="M834.156,987.016h15.512c1.082-9.141,1.508-18.324,1.57-28.219
							c-18.109-0.691-17.918,10.238-17.918,10.238C833.934,975.242,834.176,981.262,834.156,987.016z"/>
					</g>
					<g>
						<path style="fill:#F7B6A0;" d="M847.367,974.414c2.148-3.566,3.719-11.184,3.871-15.617
							c0.922-26.875-9.633-52.973-15.262-59.691c-0.594-1.738-13.355-9.59-16.27,6.031c-1.144,7.934,13.496,57.969,13.613,63.898
							C833.32,969.035,837.512,978.863,847.367,974.414z"/>
					</g>
				</g>
				<g>
					<path style="fill:#F7B6A0;" d="M768.191,837.371c0.051,7.875,1.473,21.688,6.973,26.66c6.668,6.023,24.621-4.078,29.98-10.32
						c6.711-7.801,7.254-21.949,5.324-31.758c-2.211-11.184-13.172-18.293-24.512-15.352
						C774.625,809.539,768.117,827.047,768.191,837.371z"/>
				</g>
				<g>
					<path style="fill:#F2937C;" d="M810.141,821.461c-0.473-2.117-1.254-4.074-2.293-5.836l-3.609,25.582l-0.156,9.801l0.816,3.109
						c0.246-0.266,0.477-0.523,0.688-0.777C812.105,845.379,812.309,831.215,810.141,821.461z"/>
				</g>
				<g>
					<g>
						<path style="fill:#F7B6A0;" d="M814.164,835.051c2.746,3.434-0.156,12.23-6.688,14.5c-1.34-1.887-0.785-6.473-0.723-8.754
							c0.063-2.25,0.227-4.395,1.801-6.129C809.039,834.141,812.133,832.531,814.164,835.051z"/>
					</g>
					<g>
						<g>
							<g>
								<path style="fill:#F2937C;" d="M808.391,840.723c-0.121,0.484-0.563,1.305-0.23,1.762c0.238,0.32,0.551,0.605,0.941,0.719
									c0.809,0.227,1.574-0.027,2.035-0.719c0.43-0.648,0.609-1.481,0.777-2.219c0.125-0.551,0.23-1.188-0.219-1.617
									c-0.176-0.176-0.586-0.141-0.766,0c-0.754,0.566-0.672,1.816-0.902,2.648c-0.121,0.457-0.297,1.019-0.68,1.328
									c0.344-0.277,0.648,0.078,0.418-0.07c-0.137-0.09-0.25-0.211-0.367-0.324c-0.242-0.254-0.016-1.18-0.012-1.508
									C809.394,840.363,808.477,840.395,808.391,840.723L808.391,840.723z"/>
							</g>
						</g>
						<g>
							<g>
								<path style="fill:#F2937C;" d="M810.469,838.797c1.461-1.508,1.715,1.398,1.637,2.156c-0.129,1.16-1.07,1.934-1.48,2.961
									c-0.113,0.281,0.508,0.234,0.629,0.172c1.824-0.848,2.938-3.297,2.055-5.18c-0.598-1.254-2.902-1.594-3.594-0.266
									C809.566,838.922,810.328,838.938,810.469,838.797L810.469,838.797z"/>
							</g>
						</g>
					</g>
				</g>
				<g>
					<path style="fill:#C06A4A;" d="M801.269,806.246c-0.754,0.586-1.34,1.438-1.715,2.223c-1.453,1.813-5.738,9.344-6.539,10.492
						c-2.16,3.117,0.316,5.707,2.512,7.848c0.691,0.672,1.395,1.34,2.086,2.02c2.074,2.051,4.027,4.215,5.098,6.988
						c0.703,1.836,1.227,6.91,3.875,7.106c0.164-2.645,1.141-8.051,5.07-8.742c0.492-0.18,2.16-0.035,3.543,2.938
						C815.199,837.117,823.086,811.352,801.269,806.246"/>
				</g>
				<g>
					<path style="fill:#E85733;" d="M792.223,820.188l9.047-13.941c-3.313-4.465-15.129-3.48-15.129-3.48
						c-4.082,0.336-20.121,7.895-25.266,19.652c0,0-7.313,17.273,8.441,28.277c-1.891-11.625-1.813-19.199,2.766-26.805
						c2.941,0.988,10.109,0.223,12.508-0.895c2.637-1.227,6.102-2.273,8.426-4.035"/>
				</g>
				<g>
					<g>
						<path style="fill:#F39D94;" d="M784.641,842.922c0,1.047,1.992,1.891,4.453,1.891c2.461,0,4.453-0.844,4.453-1.891
							c0-1.039-1.992-1.883-4.453-1.883C786.633,841.039,784.641,841.883,784.641,842.922z"/>
					</g>
					<g>
						<path style="fill:#F39D94;" d="M768.324,842.922c0,1.047,1.606,1.891,3.586,1.891c1.98,0,3.586-0.844,3.586-1.891
							c0-1.039-1.606-1.883-3.586-1.883C769.93,841.039,768.324,841.883,768.324,842.922z"/>
					</g>
					<g>
						<path style="fill:#7F482E;" d="M772.723,835.715c0.867,0.059,1.531,1.301,1.477,2.77c-0.051,1.469-0.801,2.613-1.672,2.555
							c-0.871-0.059-1.531-1.297-1.48-2.77C771.105,836.801,771.852,835.66,772.723,835.715z"/>
					</g>
					<g>
						<path style="fill:#7F482E;" d="M787.926,835.711c0.871,0.055,1.531,1.293,1.473,2.774c-0.051,1.469-0.797,2.609-1.672,2.555
							c-0.871-0.063-1.535-1.301-1.473-2.77C786.305,836.797,787.055,835.648,787.926,835.711z"/>
					</g>
					<g>
						<g>
							<path style="fill:#F2937C;" d="M778.926,836.184c0.672,1.981-1.129,4.063-2.383,5.32c-0.602,0.609-1.387,1.516-1.016,2.449
								c0.754,1.867,3.305,2.676,5.105,3.07c0.188,0.039,1.418,0.066,1.125-0.426c-0.297-0.52-1.203-0.594-1.473,0
								c0.316-0.09,0.625-0.176,0.941-0.262c-2.203-0.426-6.152-1.895-3.766-4.566c1.223-1.363,3.27-3.734,2.004-5.66
								C779.375,835.973,778.852,835.969,778.926,836.184L778.926,836.184z"/>
						</g>
					</g>
					<g>
						<path style="fill:#EE756D;" d="M779.656,853.629c-1.277,0-2.656-0.445-3.91-1.699c-0.27-0.27-0.27-0.711,0.004-0.981
							c0.269-0.269,0.711-0.269,0.98,0c2.746,2.758,5.973,0.266,6.109,0.16c0.305-0.238,0.738-0.188,0.973,0.109
							c0.238,0.301,0.188,0.734-0.113,0.969C782.863,852.863,781.344,853.629,779.656,853.629z"/>
					</g>
					<g>
						<g>
							<path style="fill:#AF5040;" d="M792.703,834.445c-2.602-2.34-7.297-2.813-9.73,0.156c-0.414,0.512,1.238,0.559,1.48,0.422
								c0.852-0.461,1.582-1.063,2.492-1.406c1.648-0.613,3.348,0.254,4.711,1.129C791.914,834.91,793.133,834.84,792.703,834.445
								L792.703,834.445z"/>
						</g>
					</g>
					<g>
						<g>
							<path style="fill:#AF5040;" d="M769.438,834.051c1.109-0.496,2.231-0.809,3.438-0.523c1.016,0.242,1.801,0.961,2.707,1.43
								c0.231,0.117,1.902,0.094,1.481-0.422c-2.008-2.477-6.109-2.504-8.574-0.844
								C768.031,833.996,769.215,834.152,769.438,834.051L769.438,834.051z"/>
						</g>
					</g>
				</g>
				<g>
					<path style="fill:#E85733;" d="M799.172,848.809c-2.195,5.406-4.957,11.621-2.09,17.305c2.18,4.324,5.582,8.043,10.773,6.777
						c5.25-1.289,8.086-6.316,12.613-8.754c3.66-1.973,10.816-2.074,13.148-6.574c1.48-2.856,0.328-7.328-0.703-10.172
						c-0.094-0.25-0.184-0.508-0.285-0.762c-1.273-0.945-2.551-2.008-3.781-3.359c-4.359-4.805-2.578-11.66-5.879-17.305
						c-1.316-2.25-3.586-3.777-4.934-5.801c-1.34-2-1.805-4.578-3.461-6.648c-3.746-4.688-7.105-5.902-12.719-4.836
						c-5.523,1.043-8.227,2.059-9.598,7.75c-1.555,6.453-0.754,12.367,3.731,17.504
						C800.488,839.078,801.894,842.102,799.172,848.809z"/>
				</g>
				<g>
					<g>
						<path style="fill:#191138;" d="M827.215,942.359c-0.293,0-0.566-0.191-0.656-0.488c-1.867-6.117-3.191-11.293-4.391-16.074
							c-0.32-1.277-0.672-2.57-1.027-3.871c-0.629-2.285-1.277-4.652-1.746-7.004c-0.695-3.492-2.332-15.27,5.914-20.117
							c0.332-0.191,0.754-0.086,0.949,0.242c0.191,0.336,0.082,0.758-0.246,0.949c-7.461,4.387-5.914,15.387-5.266,18.648
							c0.461,2.309,1.109,4.652,1.727,6.922c0.359,1.305,0.715,2.606,1.043,3.898c1.191,4.758,2.5,9.914,4.363,16
							c0.113,0.363-0.094,0.754-0.461,0.867C827.352,942.352,827.285,942.359,827.215,942.359z"/>
					</g>
					<g>
						<path style="fill:#191138;" d="M786.09,893.481c-2.492,0-5.027-0.324-7.223-1.078c-3-1.023-5.051-2.691-6.098-4.957
							c-0.164-0.348-0.012-0.762,0.336-0.922c0.352-0.16,0.762-0.008,0.918,0.336c0.883,1.914,2.668,3.336,5.293,4.23
							c5.086,1.746,12.379,1.02,15.742-0.727c1.805-0.934,4.418-2.422,6.188-4.523c0.25-0.289,0.688-0.324,0.98-0.082
							c0.293,0.246,0.324,0.688,0.078,0.973c-1.934,2.289-4.703,3.871-6.609,4.859C793.477,892.738,789.84,893.481,786.09,893.481z"
							/>
					</g>
					<g>
						<path style="fill:#191138;" d="M771.656,951.832c-2.199,0-4.457-0.375-6.234-1.258c-1.785-0.894-2.938-2.195-3.422-3.871
							c-0.106-0.367,0.109-0.75,0.473-0.855c0.367-0.102,0.754,0.105,0.855,0.473c0.371,1.289,1.285,2.301,2.711,3.008
							c3.105,1.547,8.039,1.344,10.836,0.27c0.637-0.242,1.34-0.645,2.082-1.066c1.391-0.801,2.824-1.617,4.34-1.75
							c1.477-0.141,2.672,0.605,3.719,1.258c0.914,0.574,1.703,1.07,2.512,0.914c0.371-0.078,0.738,0.16,0.816,0.539
							c0.074,0.375-0.168,0.738-0.547,0.816c-1.336,0.266-2.445-0.422-3.52-1.094c-0.941-0.59-1.84-1.156-2.859-1.063
							c-1.207,0.113-2.516,0.855-3.77,1.574c-0.793,0.453-1.539,0.879-2.277,1.16C775.836,951.484,773.769,951.832,771.656,951.832z
							"/>
					</g>
					<g>
						<path style="fill:#191138;" d="M799.379,980.93c-0.152,0-0.309-0.051-0.438-0.156c-0.27-0.227-0.332-0.621-0.137-0.914
							c0.203-0.309,0.391-0.684,0.574-1.059c0.137-0.27,0.269-0.531,0.41-0.785c0.188-0.328,0.609-0.449,0.941-0.258
							c0.023,0.008,0.051,0.02,0.066,0.039c1.914-1.953,4.066-3.984,6.637-4.875c2.242-0.773,4.289-0.332,6.269,0.094
							c1.086,0.23,2.199,0.469,3.32,0.5c2.035,0.055,3.617-0.535,4.871-1.762c3.418-3.344,3.418-10.769,3.418-15.203
							c0-0.379,0.313-0.691,0.695-0.691c0.383,0,0.691,0.313,0.691,0.691c0,4.656,0,12.441-3.836,16.191
							c-1.516,1.48-3.473,2.191-5.871,2.156c-1.246-0.027-2.434-0.281-3.578-0.527c-1.879-0.406-3.648-0.785-5.527-0.137
							c-2.578,0.894-4.824,3.211-6.797,5.254c-0.418,0.43-0.82,0.844-1.223,1.238C799.734,980.863,799.559,980.93,799.379,980.93z"
							/>
					</g>
				</g>
			</g>
		</g>
		<g>
			<g>
				<rect x="487.359" y="772.426" style="fill:#64BBDA;" width="202.543" height="214.59"/>
				<rect x="487.359" y="772.426" style="fill:#25246D;" width="202.543" height="17.559"/>
				<g>
					<path style="fill:#FFFFFF;" d="M658.121,780.926c0,2.617-2.121,4.738-4.742,4.738c-2.609,0-4.738-2.121-4.738-4.738
						c0-2.617,2.129-4.738,4.738-4.738C656,776.188,658.121,778.309,658.121,780.926z"/>
					<path style="fill:#95C11F;" d="M671.223,780.926c0,2.617-2.121,4.738-4.738,4.738c-2.621,0-4.742-2.121-4.742-4.738
						c0-2.617,2.121-4.738,4.742-4.738C669.102,776.188,671.223,778.309,671.223,780.926z"/>
					<path style="fill:#E74645;" d="M684.32,780.926c0,2.617-2.117,4.738-4.738,4.738c-2.613,0-4.734-2.121-4.734-4.738
						c0-2.617,2.121-4.738,4.734-4.738C682.203,776.188,684.32,778.309,684.32,780.926z"/>
				</g>
			</g>
			<g>
				<g>
					<g>
						<path style="fill:#F6AF8D;" d="M658.324,987.016c-1.863-10.723-3.336-17.391-3.336-17.391l23.348-1.144
							c1.285,5.984,2.18,12.211,2.766,18.535H658.324z"/>
					</g>
				</g>
				<g>
					<g>
						<polygon style="fill:#F6AF8D;" points="573.324,891.039 585.223,882.332 610.789,882.332 624.93,891.039 						"/>
					</g>
					<g>
						<polygon style="fill:#F6AF8D;" points="533.582,987.016 543.82,936.266 570.453,947.398 559.203,987.016 						"/>
					</g>
					<g>
						<path style="fill:#F6AF8D;" d="M545.059,987.016h-24.465c-12.594-24.984-17.125-51.992-17.125-51.992
							c-4.465-7.309,8.91-14.594,11.172-15.855l-0.602,14.172C520.332,954.481,534.965,974.762,545.059,987.016z"/>
					</g>
					<g>
						<path style="fill:#F6AF8D;" d="M584.063,887.191h26.727v-29.168h-26.727C584.063,858.023,586.914,881.008,584.063,887.191z"/>
					</g>
					<g>
						<path style="fill:#F18A65;" d="M610.789,871.25v-13.227h-26.727c0,0,0.805,6.492,1.129,13.508
							C592.891,875.137,602.598,874.594,610.789,871.25z"/>
					</g>
					<g>
						<g>
							<path style="fill:#04447F;" d="M568.66,834.883c1.355,4.348,2.699,9.391,5.348,13.316c3.027,4.488,7.91,5.164,10.578,0.051
								c2.508-4.805,2.902-10.953,2.375-16.137c-0.289-2.828-0.984-6.063-3.457-8.16c-3.848-3.281-10.063-3.348-13.367-0.074
								C570.566,823.457,567.461,831.031,568.66,834.883z"/>
						</g>
						<g>
							<path style="fill:#F6AF8D;" d="M570.512,842.309c-0.109,5.098,0.25,10.219,1.215,15.23
								c0.977,5.086,2.121,14.559,7.578,17.066c1.691,0.777,3.105,0.84,5.117,0.867c7.691,0.109,16.238-4.359,21.535-9.672
								c9.887-9.895,11.82-35.594,3.496-46.25c-7.602-9.719-34.34-7.059-37.227,7.297
								C571.234,831.805,570.621,837.039,570.512,842.309z"/>
						</g>
						<g>
							<path style="fill:#F6AF8D;" d="M570.512,842.309c-0.109,5.098,0.25,10.219,1.215,15.23
								c0.977,5.086,2.121,14.559,7.578,17.066c1.691,0.777,3.105,0.84,5.117,0.867c7.691,0.109,16.238-4.359,21.535-9.672
								c9.887-9.895,11.82-35.594,3.496-46.25c-7.602-9.719-34.34-7.059-37.227,7.297
								C571.234,831.805,570.621,837.039,570.512,842.309z"/>
						</g>
						<g>
							<path style="fill:#F18A65;" d="M608.023,863.34c8.043-11.176,9.141-33.926,1.43-43.789c-0.418-0.531-0.902-1.023-1.43-1.484
								l1.664,20.539l-1.664,6.144V863.34z"/>
						</g>
						<g>
							<path style="fill:#7F482E;" d="M575.848,843.176c0,0.871-0.566,1.574-1.266,1.574c-0.691,0-1.258-0.703-1.258-1.574
								c0-0.867,0.566-1.57,1.258-1.57C575.281,841.606,575.848,842.309,575.848,843.176z"/>
						</g>
						<g>
							<path style="fill:#7F482E;" d="M590.578,843.781c0,0.867-0.563,1.57-1.262,1.57c-0.695,0-1.266-0.703-1.266-1.57
								c0-0.863,0.57-1.566,1.266-1.566C590.016,842.215,590.578,842.918,590.578,843.781z"/>
						</g>
						<g>
							<g>
								<path style="fill:#F49C81;" d="M611.539,842.566c1.215-1.137,2.254-4.297,4.387-3.172c0.203,0.113,0.445,0.117,0.66,0.215
									c0.832,0.348,0.957,1.18,1.242,1.906c0.496,1.238,0.672,2.645,0.859,3.961c0.008,0.063,0.184,0.063,0.191,0
									c0.324-2.379-0.133-6.188-2.586-7.301c-2.508-1.145-6.121,1.602-6.082,4.219
									C610.219,842.883,611.309,842.789,611.539,842.566L611.539,842.566z"/>
							</g>
						</g>
						<g>
							<path style="fill:#04447F;" d="M608.766,839.316c0.066,1.32-1.141,5-0.82,6.16c0.324,1.16,1.438,1.504,1.809,0.586
								c1.949-1.766,1.68-6.488,4.879-6.941c3.477-0.492,4.152,4.605,4.055,6.941c1.644-3.258,3.41-6.785,3.434-10.238
								c0.016-1.852,0.023-6.332,0-9.66c-0.066-10.16-1.75-13.277-13.031-12.57c-3.527,0.227-7.492,2.106-9.039,5.465
								c-1.648,3.594,0.648,6.609,3,9.176C605.992,831.453,608.535,834.754,608.766,839.316z"/>
						</g>
						<g>
							<g>
								<path style="fill:#F6AF8D;" d="M617.598,839.418c3.344,3.363,1.227,13.129-5.512,16.309
									c-1.66-1.867-1.582-6.848-1.773-9.313c-0.191-2.418-0.254-4.734,1.231-6.773
									C612.008,839.02,615.141,836.941,617.598,839.418z"/>
							</g>
							<g>
								<g>
									<g>
										<path style="fill:#F18A65;" d="M612.117,846.094c-0.063,0.469-0.441,1.453-0.07,1.852c0.289,0.32,0.602,0.551,1.016,0.699
											c0.777,0.27,1.606-0.074,2.004-0.766c0.422-0.738,0.527-1.699,0.625-2.531c0.066-0.602,0.105-1.277-0.356-1.746
											c-0.152-0.145-0.586-0.145-0.738,0c-0.672,0.676-0.477,1.926-0.613,2.797c-0.07,0.52-0.18,1.176-0.539,1.586
											c-0.102,0.121-0.129,0.063,0.137,0.047c0.246-0.016-0.059-0.086-0.191-0.191c-0.445-0.332-0.281-1.25-0.316-1.746
											C613.051,845.762,612.164,845.77,612.117,846.094L612.117,846.094z"/>
									</g>
								</g>
								<g>
									<g>
										<path style="fill:#F18A65;" d="M614.055,843.832c0.906-1.176,1.801,0,2.012,0.875c0.125,0.512,0.09,1.066,0.047,1.586
											c-0.098,1.09-0.906,1.984-1.25,2.992c-0.09,0.258,0.481,0.254,0.609,0.168c1.852-1.148,2.754-3.914,1.52-5.816
											c-0.766-1.176-3.113-1.34-3.699,0.098C613.172,844.035,613.918,844.008,614.055,843.832L614.055,843.832z"/>
									</g>
								</g>
							</g>
						</g>
						<g>
							<path style="fill:#024C8D;" d="M571.91,826.59c11.594,3.164,25.273,2.004,35.859-3.82c2.977-1.637,5.613-3.719,8.316-5.766
								c3.215-2.438-2.477-7.875-4.191-9.109c-8.226-5.898-19.383-3.488-28.051-0.016c-4.277,1.715-10.938,4.457-16.41,2.297
								c0,0-0.332,3.813,3.313,5.141c0,0-4.309,0.828-7.785-2.156C562.961,813.16,560.969,823.602,571.91,826.59z"/>
						</g>
						<g>
							<path style="fill:#FFFFFF;" d="M577.035,857.813c0.688,2.773,2.621,4.793,4.93,4.793c2.313,0,4.254-2.02,4.934-4.793H577.035
								z"/>
						</g>
						<g>
							<g>
								<path style="fill:#F18A65;" d="M578.863,844.305c-0.781,1.516-1.328,3.117-2.047,4.664
									c-0.523,1.121-1.254,2.184-1.457,3.422c-0.27,1.676,2.887,3.211,4.152,3.453c1.141,0.219,2.266-0.914,0.652-1.152
									c-0.84-0.117-1.633-0.891-2.266-1.402c-1.414-1.137-0.746-2.164-0.137-3.492c0.797-1.742,1.648-3.527,1.391-5.473
									C579.141,844.227,578.902,844.227,578.863,844.305L578.863,844.305z"/>
							</g>
						</g>
						<g>
							<path style="fill:#C05039;" d="M571.578,840.184c-0.168,0-0.332-0.063-0.461-0.188c-0.266-0.254-0.27-0.676-0.016-0.938
								c0.938-0.969,2.441-1.496,4.051-1.418c1.332,0.066,2.484,0.555,3.074,1.305c0.234,0.285,0.184,0.703-0.105,0.93
								c-0.285,0.231-0.703,0.18-0.93-0.109c-0.348-0.438-1.176-0.754-2.109-0.797c-1.227-0.051-2.355,0.313-3.023,1.012
								C571.922,840.113,571.746,840.184,571.578,840.184z"/>
						</g>
						<g>
							<path style="fill:#C05039;" d="M592.469,841.34c-0.176,0-0.356-0.066-0.484-0.207c-1.523-1.613-3.883-1.816-6.156-0.539
								c-0.32,0.18-0.719,0.066-0.898-0.25c-0.188-0.32-0.07-0.723,0.246-0.902c2.789-1.578,5.84-1.266,7.777,0.785
								c0.246,0.266,0.234,0.688-0.031,0.934C592.793,841.285,592.629,841.34,592.469,841.34z"/>
						</g>
					</g>
					<g>
						<path style="fill:#5A5881;" d="M647.422,954.129c0.309,4.02,0.629,8.051,0.922,12.07c0.504,6.945,1.047,13.879,1.59,20.816
							H548.766c0.238-2.816,0.473-5.637,0.727-8.449l-16.066-9.18l10.473-60.918c2.652-9.613,9.941-13.316,9.941-13.316
							l31.383-12.82c0,0,5.355,16.004,25.566,0l33.727,14.149c0,0,18,5.75,21.094,15.476l20.336,57.141l-36.848,6.879
							L647.422,954.129z"/>
					</g>
					<g>
						<path style="fill:#46456E;" d="M649.434,976.586c-0.207,0-0.41-0.094-0.535-0.281c-3.016-4.18-4.352-10.477-5.527-16.023
							c-0.344-1.625-0.676-3.188-1.035-4.617c-2.824-11.301-4.031-22.914-4.832-32.781c-0.633-7.688-1.578-19.305,4.512-26.809
							c0.231-0.285,0.652-0.324,0.934-0.094c0.285,0.23,0.332,0.644,0.102,0.934c-5.758,7.094-4.84,18.383-4.23,25.855
							c0.801,9.816,2,21.359,4.801,32.574c0.363,1.441,0.699,3.02,1.047,4.664c1.148,5.418,2.461,11.566,5.305,15.527
							c0.215,0.297,0.148,0.715-0.148,0.926C649.703,976.543,649.57,976.586,649.434,976.586z"/>
					</g>
					<g>
						<path style="fill:#46456E;" d="M551.957,969.289L551.957,969.289c-0.367,0-0.664-0.297-0.664-0.664v-4.043
							c-0.008-4.703-0.008-9.578,0.094-14.371c0.457-21.465,1.957-43.707,14.645-58.93c0.238-0.285,0.652-0.32,0.941-0.082
							c0.273,0.231,0.313,0.652,0.082,0.934c-12.41,14.891-13.895,36.871-14.344,58.109c-0.098,4.773-0.098,9.637-0.09,14.34v4.051
							C552.621,968.992,552.32,969.289,551.957,969.289z"/>
					</g>
					<g>
						<g>
							<path style="fill:#F6AF8D;" d="M503.867,899.152c-5.234,0.438,1.68,13.688,1.766,16.488
								c-1.371-3.133-5.66-15.414-9.113-14.98c-2.016,0.438,3.32,10.824,3.922,12.961c-1.176-1.688-4.699-9.102-6.992-8.254
								c-1.465,0.984,2.418,7.992,3.227,10.309c-0.488-0.398-4.07-6.914-5.051-5.676c-1.035,1.125,0.754,6.02,1.828,8.383
								c4.84,10.648,9.879,22.574,16.055,17.438c4.609-3.836,7.051-6.086,8.379-23.316c0.223-2.973-4.582-0.441-6.285,5.383
								C510.234,917.238,504.484,899.098,503.867,899.152z"/>
						</g>
						<g>
							<g>
								<path style="fill:#F18A65;" d="M510.613,921.309c0.102-0.125,0.195-0.25,0.297-0.375c0.156-0.207-0.609-0.324-0.781-0.105
									c-0.098,0.117-0.18,0.246-0.27,0.379c0.25-0.035,0.512-0.07,0.77-0.101c-0.344-0.191-0.844-0.356-1.191-0.059
									c-0.238,0.191-0.395,0.543-0.547,0.801c-0.246,0.41-0.738,0.461-1.02,0.828c-1.383,1.793-0.641,4.723,0.445,6.519
									c0.195,0.324,1.371,0.301,1.199-0.164c-0.559-1.48-1.164-2.828-1.133-4.461c0.023-1.012,0.457-1.391,1.121-1.996
									c0.297-0.273,0.93-0.953,0.473-1.148c0.18,0.078,0.656,0.141,0.77-0.102c0.059-0.129,0.113-0.258,0.164-0.391
									c0.102-0.297-0.699-0.348-0.781-0.105c-0.047,0.129-0.09,0.266-0.137,0.395C509.902,921.481,510.5,921.449,510.613,921.309
									L510.613,921.309z"/>
							</g>
						</g>
					</g>
					<g>
						<path style="fill:#46456E;" d="M598.004,895.395c-0.523,0-1.063-0.035-1.594-0.078c-0.461-0.035-0.906-0.07-1.32-0.07
							c-2.117,0-3.867-0.695-5.555-1.371c-0.824-0.203-1.688-0.797-2.52-1.383c-0.523-0.371-1.019-0.715-1.508-0.961
							c-1.508-0.754-2.234-1.539-2.906-2.543c-0.074-0.109-0.109-0.238-0.109-0.375c-0.012-0.016-0.066-0.106-0.125-0.168
							c-0.188-0.016-0.422-0.094-0.68-0.352c-0.258-0.262-0.258-0.676,0-0.941c0.254-0.246,0.66-0.258,0.918-0.023
							c0.195,0.023,0.426,0.098,0.688,0.356c0.07,0.078,0.402,0.426,0.5,0.894c0.551,0.805,1.113,1.367,2.312,1.965
							c0.574,0.293,1.129,0.68,1.676,1.063c0.73,0.512,1.484,1.039,2.16,1.207c1.734,0.688,3.285,1.309,5.148,1.309
							c0.445,0,0.926,0.039,1.422,0.07c0.953,0.074,1.938,0.148,2.731-0.051c1.676-0.336,3.227-0.644,4.785-1.586
							c0.395-0.191,0.828-0.371,1.262-0.539c0.395-0.156,0.793-0.316,1.109-0.473c0.934-0.32,1.523-0.91,2.148-1.535
							c0.051-0.051,0.113-0.098,0.172-0.125c0.164-0.082,0.352-0.164,0.543-0.254c0.555-0.246,1.188-0.527,1.609-0.949
							c0.602-0.602,0.773-0.852,0.809-0.949c0-0.367,0.293-0.613,0.656-0.613c0.367,0,0.656,0.336,0.656,0.703
							c0,0.512-0.418,1.027-1.188,1.797c-0.594,0.594-1.375,0.945-2.004,1.223c-0.141,0.063-0.269,0.125-0.394,0.184
							c-0.688,0.676-1.398,1.375-2.504,1.742c-0.258,0.133-0.691,0.309-1.117,0.477c-0.402,0.164-0.793,0.32-1.117,0.477
							c-1.707,1.031-3.453,1.379-5.141,1.719C599.043,895.359,598.531,895.395,598.004,895.395z M582.621,887.156l-0.461,0.465
							l0.496-0.441C582.648,887.176,582.641,887.168,582.621,887.156z"/>
					</g>
				</g>
			</g>
		</g>
	</g>
	<g>
		<g>
			<polygon style="fill:#F6AD96;" points="1294.176,1782.699 1256.195,1805.012 1203.633,1740.91 1257.461,1706.738 			"/>
			<g>
				<path style="fill:#005581;" d="M1196.063,1837.117h97.766l36.238-22.43l-42.973-51.848c-7.68,9.449-35.043,26.18-35.043,26.18
					c5.258-13.715-24.023-9.133-24.023-9.133c-4.832,3.082-3.875,14.535-3.875,14.535L1196.063,1837.117z"/>
				<polygon style="fill:#00466A;" points="1312.875,1837.117 1336.047,1822.73 1329.016,1813.359 1291.262,1837.117 				"/>
			</g>
			<g>
				<g>
					<path style="fill:#FFFFFF;" d="M1238.648,1822.609c0.816-0.215,1.543-0.676,1.887-1.34
						c2.199-4.289-10.922-14.066-11.066-14.145c-3.949-2.262-7.922-4.523-12.406-4.578c-1.574-0.012-2.898,1.258-2.914,2.844
						c-0.016,1.602,1.254,2.895,2.848,2.918c2.992,0.031,5.992,1.754,9.176,3.566c1.512,0.875,6.289,5.477,8.313,7.863
						c-0.07,1.137,0.523,2.227,1.621,2.746C1236.824,1822.809,1237.789,1822.844,1238.648,1822.609z"/>
				</g>
				<g>
					<path style="fill:#FFFFFF;" d="M1224.258,1832.316c0.461-0.121,0.898-0.359,1.266-0.73c1.137-1.102,1.152-2.938,0.039-4.074
						c-3.059-3.113-9.613-8.02-14.313-10.711c-1.379-0.797-3.137-0.313-3.93,1.059c-0.789,1.383-0.313,3.141,1.066,3.938
						c4.563,2.609,10.66,7.305,13.063,9.754C1222.203,1832.316,1223.285,1832.578,1224.258,1832.316z"/>
				</g>
			</g>
		</g>
		<path style="fill:#57BCEC;" d="M1398.195,1141.531c46.09-5.762,97.52-29.48,136.344,32.645c19.199,30.719,15.359,72.969,0,111.367
			c-20.148,50.363-71.055,61.457-174.75,65.293c-29.648,1.105-158.961-13.547-169.68,14.977
			c-16.547,44.027,34.594,103.102,47.227,144.27c0,0,59.18,137.809,49.809,238.008c0,0-38.16,25.91-75.422,27.25
			c-41.027-84.332-92.043-195.484-104.926-232.461c-18.316-52.508-58.418-132.047-69.613-188.203
			c-12.895-64.73-7.676-80.652,46.086-115.219c26.676-17.148,136.07-49.281,105.617-40.324L1398.195,1141.531z"/>
		<g>
			<path style="fill:#F7B6A0;" d="M1343.523,587.41c0,0,26.883,22.086,31.688,52.805l-2.883,47.051h96.973l-25.922-99.855H1343.523z
				"/>
			<path style="fill:#F2937C;" d="M1443.379,587.41l4.988,19.215c-19.789,5.402-35.711,8.383-53.715,16.305
				c-13.383,5.898-16.641,34.914-21.355,48.496l1.914-31.211c-4.805-30.719-31.688-52.805-31.688-52.805H1443.379z"/>
		</g>
		<path style="fill:#F7B6A0;" d="M1344.336,611.582c-25.672-9.309-30.887-42.063-33.109-67.414
			c-3.285-37.547,5.48-68.094,8.676-93.207c5.867-46.121,15-48.145,44.68-60.523c0.012-0.012,37.402-15.605,71.121,3.883
			c46.691,26.98,45.715,94.941,45.34,143.074c-0.23,29.695-12.945,37.031-42.223,53.242c-25.063,13.879-56.742,27.137-86,23.023
			C1349.766,613.231,1346.945,612.527,1344.336,611.582z"/>
		<path style="fill:#BB5F8E;" d="M1231.133,795.879c3.844-57.609,7.336-95.637,11.52-122.902
			c2.184-14.199,15.098-11.961,86.414-15.356c40.328-1.926,119.352,2.586,165.145,7.672c34.566,3.848,78.32,48.473,74.891,96.019
			c-4.852,67.332-52.328,167.066-61.926,228.512l19.68,76.813c0,0-120.973,42.242-232.355,1.914l1.922-120.977L1231.133,795.879z"/>
		<path style="fill:#83402F;" d="M1311.305,392.137c2.09,31.934,27.98,50.16,43.883,66.879
			c12.156,12.793,13.906,18.77,10.848,42.578c3.285-0.09,9.906,7.258,10.082,4.32c0.652-11.273,3.586-10.273,7.797-12.535
			c17.922-9.621,26.191,9.293,28.09,17.934c5.156,23.496-25.496,19.152-26.145,41.172c-0.566,19.309,17.902,34.238,30.469,51.578
			c14.109,19.465,39.91,14.074,57.039-2.285c13.277-12.68,28.75-37.332,36.172-54.289c8.27-18.867,18.855-48.125,19.414-68.164
			c1.348-48.188-14.082-80.449-62.504-103.895c-27.352-13.234-65.867-19.332-96.094-13.539
			C1370.355,361.891,1324.148,368.734,1311.305,392.137z"/>
		<path style="fill:#F7B6A0;" d="M1374.418,513.34c1.957,12.434,13.629,20.938,26.07,18.981
			c12.441-1.957,20.941-13.625,18.984-26.07c-1.957-12.441-13.629-20.938-26.07-18.98
			C1380.965,489.227,1372.465,500.895,1374.418,513.34z"/>
		<path style="fill:#F7B6A0;" d="M1316.219,473.891c-4.039,25.305-17.387,27.039-20.824,34.5
			c-4.348,9.426,9.043,12.512,19.578,28.68c8.75-24.059,25.148-37.953,13.289-63.855L1316.219,473.891z"/>
		<g>
			<path style="fill:#F6AD96;" d="M940.508,1090.535l-65.527-6.422l-74.047,23.277c0,0-14.402,6.664-6.664,14.02l133.129,0.262
				C927.398,1121.672,949.148,1117.496,940.508,1090.535z"/>
			<path style="fill:#F6AD96;" d="M1234.977,1033.031c51.848-124.816,70.586-204.645,87.852-293.32
				c7.199-54.727-12.828-78.57-30.246-81.137c-48.965-7.199-60.008,9.598-69.129,60.488
				c-20.164,82.094-29.766,161.789-43.207,246.277c0,0-40.324,68.656-239.738,125.195l-7.977,24.101
				C932.531,1114.637,1185.047,1085.359,1234.977,1033.031z"/>
		</g>
		<g>
			<polygon style="fill:#F6AD96;" points="1188.074,1837.117 1206.223,1831.754 1188.938,1749.18 1128.457,1769.344 
				1160.602,1837.117 			"/>
			<g>
				<path style="fill:#005F8F;" d="M1216.816,1837.117l-12.672-26.348c-9.73,7.316-40.324,16.945-40.324,16.945
					c8.422-12.039-21.109-14.672-21.109-14.672c-5.422,1.824-7.27,13.188-7.27,13.188l-11.809,10.887H1216.816z"/>
			</g>
		</g>
		<path style="fill:none;" d="M1015.164,995.945"/>
		<path style="fill:#57BCEC;" d="M1263.539,1180.41l-241.176,73.336c0,0-85.938,39.371-64.809,137.305
			c0,0,75.363,283.723,171.387,425.82c53.758-9.598,72.961-24.969,72.961-24.969c-27.367-172.34-96.738-400.121-96.738-400.121
			c2.172-25.699,32.328-25.98,58.336-27.137l267.344,1.438c34.004-1.617,89.816-21.918,110.469-50.023
			c18.188-24.754,48.914-74.676,18.188-153.41l-32.645-96.012c0,0-149.301,24-232.113-0.48L1263.539,1180.41z"/>
		<path style="fill:#83402F;" d="M1382.648,912.188c3.258,1.832,6.926,3.25,11.055,4.195c46.543,10.633,119.84,2.016,159.559-25.934
			c38.887-27.363,34.816-38.391,31.684-70.57c-4.598-47.199-16.809-119.527-21.57-167.063
			c-4.707-46.988-7.414-94.223-14.402-141.141c-6.219-41.758-12.359-94.773-54.762-119.211
			c-32.285-18.613-75.813-29.02-112.93-26.398c-17.402,1.227-36.469,5.852-47.641,20.379c-14.34,18.641,1.109,44.137,9.785,61.805
			c0,0,24.047,21.66,25.488,269.375C1369.184,764.07,1329.063,882.156,1382.648,912.188z"/>
		<g>
			
				<path style="fill:none;stroke:#0091C4;stroke-width:5.7608;stroke-linecap:round;stroke-linejoin:round;stroke-miterlimit:10;" d="
				M1240.734,1190.02c-47.527,12.961-117.172,30.344-136.336,36.961c-25.969,8.969-47.605,14.051-72.492,26.754
				c-44.004,22.484-70.898,50.645-73.453,100.469c-1.359,26.664,5.695,52.543,11.883,77.77c6.91,28.188,19.805,71.527,35.16,116.656
				"/>
			
				<path style="fill:none;stroke:#0091C4;stroke-width:5.7608;stroke-linecap:round;stroke-linejoin:round;stroke-miterlimit:10;" d="
				M1080.871,1351.32c48.16,81.664,67.375,173.984,87.777,263.527c2.262,9.922,7.543,42.137,10.637,51.879"/>
			
				<path style="fill:none;stroke:#0091C4;stroke-width:5.7608;stroke-linecap:round;stroke-linejoin:round;stroke-miterlimit:10;" d="
				M1344.43,1365.238c-11.055-2.27-128.008-1.145-140.176-1.887c-24.453-1.5-61.457-1.949-78.016,4.531
				c-8.629,3.375-21.918,12.973-20.883,23.281"/>
			
				<path style="fill:none;stroke:#0091C4;stroke-width:5.7608;stroke-linecap:round;stroke-linejoin:round;stroke-miterlimit:10;" d="
				M1116.879,1340.273c-12.727,13.074-18.094,35.5-12.48,52.813"/>
			
				<path style="fill:none;stroke:#0091C4;stroke-width:5.7608;stroke-linecap:round;stroke-linejoin:round;stroke-miterlimit:10;" d="
				M1527.094,1100.234c-61.605,14.762-126.473,17.16-189.094,7.91c-13.23-1.957-29.688-4.441-40.617-12.949"/>
			
				<path style="fill:none;stroke:#0091C4;stroke-width:5.7608;stroke-linecap:round;stroke-linejoin:round;stroke-miterlimit:10;" d="
				M1524.934,1066.391c-63.227,13.672-129.039,16.43-193.117,7.359c-10.965-1.555-23.586-3.219-33.715-8.078"/>
			
				<path style="fill:none;stroke:#0091C4;stroke-width:5.7608;stroke-linecap:round;stroke-linejoin:round;stroke-miterlimit:10;" d="
				M1406.117,1129.039c1.801,16.25,0.047,35.535,0,52.012c-0.051,17.934,1.094,36.996-7.922,53.129
				c-16.852,30.168-64.41,28.344-94.496,28.086c-27.273-0.238-53.418-0.855-80.488,1.473c-24,2.07-47.949,4.098-71.852,7.191
				c-34.438,4.445-74.629,13.297-101.688,36.723c-20.195,17.477-27.148,41.621-25.047,68.391
				c2.137,27.184,11.297,54.109,21.996,79.063c6.539,15.227,12.715,30.629,19.59,45.684c4.488,9.832,90.031,266.27,97.23,297.953"/>
			
				<path style="fill:none;stroke:#0091C4;stroke-width:5.7608;stroke-linecap:round;stroke-linejoin:round;stroke-miterlimit:10;" d="
				M1323.305,1108.879c-9.195,24.469-9.055,58.609,4.32,84.977c5.902,11.633,13.363,23.133,24.41,30.605
				c7.844,5.285,37.605,16.73,40.402,12.602"/>
		</g>
		<g>
			
				<path style="fill:none;stroke:#9E537C;stroke-width:5.7608;stroke-linecap:round;stroke-linejoin:round;stroke-miterlimit:10;" d="
				M1298.102,660.973c27.363,12.242,29.863,36.637,28.086,72.012c-1.469,29.195-8.211,66.449-18.723,92.172"/>
			
				<path style="fill:none;stroke:#9E537C;stroke-width:5.7608;stroke-linecap:round;stroke-linejoin:round;stroke-miterlimit:10;" d="
				M1281.539,911.57c10.684,29.613,24.91,52.645,45.512,77.949c-1.273-1.934-2.496-3.961-3.746-5.941"/>
		</g>
	</g>
	<g>
		<path style="fill:#042031;" d="M1310.879,1194.082c0,11.746,9.512,21.254,21.254,21.254h385.75
			c11.738,0,21.254-9.508,21.254-21.254l54.73-426.996c0-11.734-9.52-21.254-21.254-21.254h-385.754
			c-11.738,0-21.254,9.52-21.254,21.254L1310.879,1194.082z"/>
		<polygon style="fill:#262644;" points="1464.328,1387.508 1540.773,1387.508 1607.191,1053.371 1530.746,1053.371 		"/>
		<rect x="1388.809" y="1531.246" style="fill:#22223D;" width="97.449" height="90.711"/>
		<polygon style="fill:#313257;" points="1247.367,1531.211 1648.316,1531.211 1664.254,1477.609 1231.43,1477.609 		"/>
		<polygon style="fill:#262644;" points="1399.113,1477.609 1664.254,1477.609 1648.316,1531.211 1413.172,1531.211 		"/>
		<rect x="1409.824" y="1621.957" style="fill:#A0C2D6;" width="55.426" height="202.406"/>
		<rect x="1441.512" y="1621.957" style="fill:#C7E1F1;" width="23.738" height="202.406"/>
		<rect x="1388.809" y="1824.363" style="fill:#22223D;" width="97.449" height="12.754"/>
		<path style="fill:#0D3953;" d="M1333.922,1194.082c0,11.746,9.512,21.254,21.254,21.254h385.75
			c11.738,0,21.254-9.508,21.254-21.254l54.73-426.996c0-11.734-9.52-21.254-21.254-21.254h-385.754
			c-11.738,0-21.254,9.52-21.254,21.254L1333.922,1194.082z"/>
		<g>
			<path style="fill:#0D3953;" d="M1724.668,1421.789c0,30.832-21.93,55.82-48.977,55.82h-391.164
				c-27.051,0-48.977-24.988-48.977-55.82l0,0c0-30.828,21.926-55.816,48.977-55.816h391.164
				C1702.738,1365.973,1724.668,1390.961,1724.668,1421.789L1724.668,1421.789z"/>
			<path style="fill:#042031;" d="M1141.844,1477.609h181.793c27.043,0,48.973-24.988,48.973-55.82
				c0-30.828-21.93-55.816-48.973-55.816h-181.793c0,0-64.629-1.496-60.781,63.785
				C1081.063,1429.758,1083.586,1477.609,1141.844,1477.609z"/>
		</g>
	</g>
</g>
<g>
	<g>
		<g>
			
				<line style="fill:none;stroke:#FFFFFF;stroke-width:23.0433;stroke-miterlimit:10;" x1="1649.984" y1="356.254" x2="2121.07" y2="356.254"/>
			
				<line style="fill:none;stroke:#FFFFFF;stroke-width:23.0433;stroke-miterlimit:10;" x1="2161.711" y1="356.254" x2="2386.789" y2="356.254"/>
		</g>
		<g>
			
				<line style="fill:none;stroke:#FFFFFF;stroke-width:23.0433;stroke-miterlimit:10;" x1="2386.789" y1="484.703" x2="1915.703" y2="484.703"/>
			
				<line style="fill:none;stroke:#FFFFFF;stroke-width:23.0433;stroke-miterlimit:10;" x1="1875.051" y1="484.703" x2="1649.984" y2="484.703"/>
		</g>
		<g>
			
				<line style="fill:none;stroke:#FFFFFF;stroke-width:23.0433;stroke-miterlimit:10;" x1="1649.984" y1="548.93" x2="1830.34" y2="548.93"/>
			
				<line style="fill:none;stroke:#FFFFFF;stroke-width:23.0433;stroke-miterlimit:10;" x1="1859.313" y1="548.93" x2="2139.207" y2="548.93"/>
			
				<line style="fill:none;stroke:#FFFFFF;stroke-width:23.0433;stroke-miterlimit:10;" x1="1649.984" y1="632.281" x2="1999.254" y2="632.281"/>
		</g>
		<g>
			
				<line style="fill:none;stroke:#FFFFFF;stroke-width:23.0433;stroke-miterlimit:10;" x1="1649.984" y1="420.473" x2="1830.34" y2="420.473"/>
			
				<line style="fill:none;stroke:#FFFFFF;stroke-width:23.0433;stroke-miterlimit:10;" x1="1859.313" y1="420.473" x2="2036.523" y2="420.473"/>
			
				<line style="fill:none;stroke:#FFFFFF;stroke-width:23.0433;stroke-miterlimit:10;" x1="2054.934" y1="420.473" x2="2386.789" y2="420.473"/>
		</g>
	</g>
	<g>
		<g>
			<g>
				<g>
					<path style="fill:#009FE3;" d="M1668.789,191.305l-17.441-77.629h15.477l11.543,61.957l10.43-61.957h15.277l-16.281,77.629
						H1668.789z"/>
					<path style="fill:#009FE3;" d="M1712.242,125.777v-12.102h13.406v12.102H1712.242z M1712.242,191.305v-58.32h13.406v58.32
						H1712.242z"/>
					<path style="fill:#009FE3;" d="M1762.953,185.207c-1.109,2.523-2.656,4.43-4.637,5.723c-1.984,1.293-4.406,1.941-7.262,1.941
						c-5.609,0-9.578-2.234-11.895-6.707c-2.316-4.465-3.48-12.383-3.48-23.742c0-11.762,1.129-19.867,3.379-24.324
						c2.25-4.449,6.148-6.68,11.695-6.68c2.754,0,5.074,0.543,6.953,1.617c1.887,1.074,3.383,2.707,4.492,4.887v-24.246h13.559
						v77.629h-12.805V185.207z M1749.395,161.266c0,9.008,0.434,14.664,1.309,16.984c0.875,2.324,2.504,3.48,4.891,3.48
						c2.688,0,4.527-1.035,5.52-3.098c0.988-2.07,1.484-6.313,1.484-12.734c0-10.316-0.496-16.75-1.484-19.305
						c-0.992-2.555-2.832-3.832-5.52-3.832c-2.352,0-3.977,1.102-4.867,3.301C1749.84,148.27,1749.395,153.332,1749.395,161.266z"/>
					<path style="fill:#009FE3;" d="M1813.215,171.297h12.703c0,0.27,0.016,0.652,0.051,1.156c0.031,0.508,0.051,0.875,0.051,1.109
						c0,6.656-1.59,11.539-4.766,14.645c-3.176,3.109-8.211,4.664-15.094,4.664c-3.637,0-6.676-0.457-9.125-1.363
						c-2.453-0.906-4.473-2.316-6.055-4.234c-1.879-2.25-3.207-5.094-3.977-8.52c-0.777-3.426-1.164-9.59-1.164-18.496
						c0-7.094,0.336-12.168,1.012-15.223c0.668-3.063,1.813-5.566,3.426-7.516c1.68-2.016,3.871-3.535,6.574-4.563
						c2.707-1.023,5.926-1.539,9.656-1.539c3.594,0,6.695,0.547,9.301,1.641c2.602,1.094,4.762,2.75,6.48,4.965
						c1.445,1.953,2.473,4.395,3.098,7.336c0.621,2.945,0.934,7.688,0.934,14.238v4.441h-26.52
						c-0.066,0.434-0.105,0.898-0.125,1.383c-0.016,0.488-0.02,1.273-0.02,2.348c0,5.539,0.512,9.422,1.535,11.645
						c1.023,2.215,2.762,3.324,5.215,3.324c2.387,0,4.117-0.898,5.191-2.695C1812.672,178.242,1813.215,175.328,1813.215,171.297z
						 M1799.656,154.762h13.102v-2.469c0-4-0.484-6.758-1.465-8.27c-0.973-1.516-2.688-2.27-5.133-2.27
						c-2.395,0-4.086,0.781-5.094,2.348c-1.012,1.563-1.512,4.293-1.512,8.191C1799.621,153.398,1799.656,154.223,1799.656,154.762z
						"/>
					<path style="fill:#009FE3;" d="M1834.891,162.172c0-11.766,1.512-19.828,4.535-24.199c3.023-4.363,8.352-6.555,15.98-6.555
						c7.664,0,13.008,2.191,16.027,6.555c3.027,4.371,4.543,12.434,4.543,24.199c0,11.762-1.516,19.816-4.543,24.172
						c-3.02,4.348-8.363,6.527-16.027,6.527c-7.629,0-12.957-2.18-15.98-6.527C1836.402,181.988,1834.891,173.934,1834.891,162.172z
						 M1848.699,161.57v1.355c0,9.043,0.457,14.57,1.363,16.582c0.906,2.02,2.656,3.027,5.242,3.027c2.691,0,4.5-0.949,5.445-2.848
						c0.941-1.898,1.414-6.828,1.414-14.793v-2.371v-3.328c0-7.629-0.48-12.422-1.441-14.391c-0.957-1.965-2.727-2.949-5.316-2.949
						c-2.555,0-4.309,0.898-5.266,2.695c-0.961,1.801-1.441,6.125-1.441,12.984V161.57z"/>
				</g>
			</g>
		</g>
		<g>
			<path style="fill:#CB5FA0;" d="M1687.438,266.664h14.063c0,0.336,0.02,0.832,0.051,1.492c0.035,0.652,0.051,1.164,0.051,1.535
				c0,8.973-1.891,15.633-5.668,19.988c-3.781,4.355-9.57,6.527-17.367,6.527c-3.699,0-6.875-0.48-9.531-1.438
				c-2.656-0.953-4.941-2.445-6.852-4.461c-2.621-2.688-4.469-6.383-5.547-11.086c-1.074-4.711-1.609-12.906-1.609-24.602
				c0-8,0.313-14.359,0.957-19.086c0.633-4.719,1.629-8.242,2.969-10.559c2.086-3.563,4.668-6.145,7.766-7.734
				c3.094-1.598,7.043-2.398,11.848-2.398c7.863,0,13.586,2.051,17.164,6.148c3.582,4.102,5.383,10.691,5.418,19.766h-14.008v-1.867
				c0-4.199-0.688-7.336-2.051-9.402c-1.359-2.063-3.43-3.098-6.223-3.098c-3.465,0-5.82,1.426-7.082,4.285
				c-1.258,2.852-1.891,10.75-1.891,23.691c0,13.98,0.613,22.48,1.84,25.508s3.566,4.539,7.031,4.539c3.23,0,5.48-1.188,6.754-3.555
				c1.281-2.371,1.918-6.746,1.918-13.133V266.664z"/>
			<path style="fill:#CB5FA0;" d="M1710.676,265.207c0-11.762,1.508-19.832,4.535-24.195c3.027-4.371,8.348-6.555,15.977-6.555
				c7.664,0,13.008,2.184,16.035,6.555c3.027,4.363,4.535,12.434,4.535,24.195c0,11.758-1.508,19.82-4.535,24.168
				c-3.027,4.355-8.371,6.531-16.035,6.531c-7.629,0-12.949-2.176-15.977-6.531C1712.184,285.027,1710.676,276.965,1710.676,265.207
				z M1724.488,264.602v1.359c0,9.039,0.457,14.57,1.363,16.586c0.902,2.012,2.648,3.027,5.242,3.027c2.684,0,4.5-0.953,5.441-2.855
				c0.945-1.895,1.414-6.828,1.414-14.793v-2.371v-3.324c0-7.629-0.48-12.426-1.438-14.391c-0.957-1.969-2.734-2.949-5.324-2.949
				c-2.555,0-4.309,0.895-5.266,2.695c-0.957,1.801-1.434,6.129-1.434,12.98V264.602z"/>
			<path style="fill:#CB5FA0;" d="M1761.793,294.344v-58.328h13.211v5.902c1.406-2.453,3.137-4.313,5.188-5.57
				c2.051-1.262,4.387-1.891,7.008-1.891c4.23,0,7.477,1.211,9.734,3.629c2.25,2.418,3.375,5.895,3.375,10.434v45.824h-13.008
				v-39.121c0-3.426-0.438-5.836-1.313-7.23c-0.871-1.395-2.332-2.094-4.383-2.094c-2.254,0-3.867,0.855-4.844,2.57
				c-0.973,1.711-1.457,4.621-1.457,8.723v37.152H1761.793z"/>
			<path style="fill:#CB5FA0;" d="M1813.055,294.344v-48.293h-5.242v-10.035h5.242v-5.797c0-5.004,0.957-8.563,2.875-10.66
				c1.918-2.098,5.125-3.148,9.625-3.148c0.914,0,1.902,0.02,2.984,0.07c1.066,0.051,2.25,0.133,3.52,0.23v10.133
				c-0.168,0-0.398-0.016-0.703-0.051c-0.297-0.031-0.5-0.051-0.602-0.051c-1.484,0-2.543,0.301-3.18,0.906
				c-0.633,0.609-0.953,1.598-0.953,2.977v5.391h5.438v10.035h-5.438v48.293H1813.055z"/>
			<path style="fill:#CB5FA0;" d="M1865.938,274.328h12.703c0,0.27,0.02,0.656,0.051,1.164c0.035,0.5,0.051,0.871,0.051,1.105
				c0,6.652-1.586,11.535-4.758,14.645c-3.18,3.105-8.215,4.664-15.102,4.664c-3.633,0-6.672-0.453-9.125-1.359
				c-2.453-0.914-4.465-2.324-6.051-4.238c-1.883-2.25-3.207-5.09-3.98-8.516c-0.77-3.434-1.164-9.598-1.164-18.504
				c0-7.09,0.34-12.164,1.012-15.223c0.676-3.055,1.813-5.566,3.426-7.512c1.684-2.02,3.879-3.539,6.578-4.563
				c2.711-1.023,5.93-1.535,9.656-1.535c3.598,0,6.691,0.547,9.305,1.637c2.598,1.09,4.758,2.746,6.473,4.969
				c1.445,1.945,2.48,4.391,3.102,7.328c0.617,2.945,0.934,7.691,0.934,14.246v4.434h-26.52c-0.07,0.438-0.102,0.898-0.125,1.391
				c-0.012,0.48-0.023,1.266-0.023,2.34c0,5.547,0.512,9.426,1.539,11.645c1.027,2.215,2.762,3.324,5.215,3.324
				c2.383,0,4.117-0.895,5.195-2.695C1865.398,281.281,1865.938,278.359,1865.938,274.328z M1852.379,257.793h13.109v-2.469
				c0-3.996-0.488-6.754-1.461-8.266c-0.98-1.512-2.691-2.266-5.145-2.266c-2.383,0-4.082,0.773-5.09,2.34
				c-1.008,1.563-1.516,4.293-1.516,8.191C1852.348,256.43,1852.379,257.258,1852.379,257.793z"/>
			<path style="fill:#CB5FA0;" d="M1889.484,294.344v-58.328h12.898v9.48c1.852-3.934,3.824-6.742,5.93-8.418
				c2.098-1.684,4.656-2.539,7.684-2.57v16.383c-0.504-0.07-1.008-0.121-1.512-0.152c-0.5-0.035-1.125-0.051-1.863-0.051
				c-2.891,0-5.188,0.855-6.887,2.57c-1.691,1.715-2.543,4.016-2.543,6.91v34.176H1889.484z"/>
			<path style="fill:#CB5FA0;" d="M1949.973,274.328h12.707c0,0.27,0.012,0.656,0.047,1.164c0.031,0.5,0.051,0.871,0.051,1.105
				c0,6.652-1.59,11.535-4.766,14.645c-3.176,3.105-8.203,4.664-15.094,4.664c-3.629,0-6.672-0.453-9.125-1.359
				c-2.453-0.914-4.473-2.324-6.051-4.238c-1.883-2.25-3.211-5.09-3.98-8.516c-0.777-3.434-1.16-9.598-1.16-18.504
				c0-7.09,0.336-12.164,1.008-15.223c0.668-3.055,1.816-5.566,3.426-7.512c1.684-2.02,3.871-3.539,6.582-4.563
				c2.699-1.023,5.918-1.535,9.652-1.535c3.59,0,6.695,0.547,9.297,1.637c2.609,1.09,4.77,2.746,6.48,4.969
				c1.445,1.945,2.473,4.391,3.098,7.328c0.625,2.945,0.934,7.691,0.934,14.246v4.434h-26.512c-0.07,0.438-0.113,0.898-0.125,1.391
				c-0.023,0.48-0.027,1.266-0.027,2.34c0,5.547,0.512,9.426,1.535,11.645c1.023,2.215,2.766,3.324,5.219,3.324
				c2.387,0,4.113-0.895,5.188-2.695C1949.438,281.281,1949.973,278.359,1949.973,274.328z M1936.414,257.793h13.102v-2.469
				c0-3.996-0.484-6.754-1.461-8.266c-0.969-1.512-2.691-2.266-5.137-2.266c-2.391,0-4.086,0.773-5.094,2.34
				c-1.012,1.563-1.512,4.293-1.512,8.191C1936.379,256.43,1936.414,257.258,1936.414,257.793z"/>
			<path style="fill:#CB5FA0;" d="M1973.414,294.344v-58.328h13.211v5.902c1.406-2.453,3.137-4.313,5.184-5.57
				c2.055-1.262,4.391-1.891,7.012-1.891c4.23,0,7.477,1.211,9.734,3.629c2.25,2.418,3.375,5.895,3.375,10.434v45.824h-13.008
				v-39.121c0-3.426-0.438-5.836-1.313-7.23c-0.871-1.395-2.332-2.094-4.383-2.094c-2.254,0-3.867,0.855-4.844,2.57
				c-0.973,1.711-1.457,4.621-1.457,8.723v37.152H1973.414z"/>
			<path style="fill:#CB5FA0;" d="M2060.219,271.457c0.035,0.398,0.059,0.832,0.082,1.281c0.008,0.457,0.02,1.121,0.02,1.992
				c0,7.23-1.539,12.563-4.613,16.008c-3.07,3.441-7.836,5.168-14.289,5.168c-7.324,0-12.445-2.172-15.348-6.504
				c-2.914-4.336-4.363-12.402-4.363-24.195c0-11.762,1.449-19.832,4.363-24.195c2.902-4.371,8.023-6.555,15.348-6.555
				c6.414,0,11.156,1.59,14.211,4.785c3.063,3.199,4.59,8.137,4.59,14.82v2.07h-12.902v-1.313c0-3.531-0.453-6.063-1.363-7.609
				c-0.906-1.547-2.387-2.32-4.434-2.32c-2.082,0-3.59,0.754-4.512,2.27c-0.922,1.512-1.383,4.031-1.383,7.563v20.109
				c0,4,0.434,6.793,1.305,8.367c0.879,1.582,2.375,2.375,4.488,2.375c2.285,0,3.871-0.914,4.762-2.723
				c0.895-1.82,1.336-5.211,1.336-10.184v-1.262L2060.219,271.457z"/>
			<path style="fill:#CB5FA0;" d="M2096.059,274.328h12.707c0,0.27,0.016,0.656,0.051,1.164c0.035,0.5,0.043,0.871,0.043,1.105
				c0,6.652-1.586,11.535-4.758,14.645c-3.172,3.105-8.207,4.664-15.098,4.664c-3.629,0-6.676-0.453-9.129-1.359
				c-2.449-0.914-4.465-2.324-6.047-4.238c-1.883-2.25-3.211-5.09-3.977-8.516c-0.777-3.434-1.164-9.598-1.164-18.504
				c0-7.09,0.336-12.164,1.008-15.223c0.676-3.055,1.816-5.566,3.43-7.512c1.676-2.02,3.871-3.539,6.578-4.563
				c2.707-1.023,5.922-1.535,9.652-1.535c3.598,0,6.695,0.547,9.301,1.637c2.605,1.09,4.766,2.746,6.48,4.969
				c1.441,1.945,2.477,4.391,3.094,7.328c0.625,2.945,0.934,7.691,0.934,14.246v4.434h-26.512c-0.07,0.438-0.109,0.898-0.125,1.391
				c-0.016,0.48-0.027,1.266-0.027,2.34c0,5.547,0.516,9.426,1.539,11.645c1.023,2.215,2.762,3.324,5.215,3.324
				c2.387,0,4.113-0.895,5.195-2.695C2095.523,281.281,2096.059,278.359,2096.059,274.328z M2082.5,257.793h13.105v-2.469
				c0-3.996-0.484-6.754-1.461-8.266c-0.973-1.512-2.691-2.266-5.141-2.266c-2.387,0-4.086,0.773-5.086,2.34
				c-1.016,1.563-1.52,4.293-1.52,8.191C2082.465,256.43,2082.5,257.258,2082.5,257.793z"/>
		</g>
	</g>
</g>
<g>
	<g>
		<path style="fill:#FFFFFF;" d="M513.566,236.422c0,5.957-4.816,10.773-10.773,10.773H283.316c-5.949,0-10.777-4.816-10.777-10.773
			l0,0c0-5.953,4.828-10.777,10.777-10.777h219.477C508.75,225.645,513.566,230.469,513.566,236.422L513.566,236.422z"/>
		<path style="fill:#FFFFFF;" d="M247.352,236.422c0,5.957-4.832,10.773-10.785,10.773h-23.508c-5.953,0-10.781-4.816-10.781-10.773
			l0,0c0-5.953,4.828-10.777,10.781-10.777h23.508C242.52,225.645,247.352,230.469,247.352,236.422L247.352,236.422z"/>
	</g>
	<g>
		<path style="fill:#FFFFFF;" d="M868.043,407.035c0-5.953,4.828-10.781,10.773-10.781h94.781c5.953,0,10.781,4.828,10.781,10.781
			l0,0c0,5.949-4.828,10.773-10.781,10.773h-94.781C872.871,417.809,868.043,412.984,868.043,407.035L868.043,407.035z"/>
		<path style="fill:#FFFFFF;" d="M1003.203,407.035c0-5.953,4.828-10.781,10.777-10.781h23.516c5.949,0,10.773,4.828,10.773,10.781
			l0,0c0,5.949-4.824,10.773-10.773,10.773h-23.516C1008.031,417.809,1003.203,412.984,1003.203,407.035L1003.203,407.035z"/>
	</g>
	<g>
		<path style="fill:#FFFFFF;" d="M164.395,686.652c0,5.949-4.828,10.777-10.781,10.777H54.656c-5.953,0-10.777-4.828-10.777-10.777
			l0,0c0-5.953,4.824-10.781,10.777-10.781h98.957C159.566,675.871,164.395,680.699,164.395,686.652L164.395,686.652z"/>
		<path style="fill:#FFFFFF;" d="M181.973,686.652c0-5.953,4.828-10.781,10.781-10.781h23.516c5.953,0,10.777,4.828,10.777,10.781
			l0,0c0,5.949-4.824,10.777-10.777,10.777h-23.516C186.801,697.43,181.973,692.602,181.973,686.652L181.973,686.652z"/>
	</g>
	<g>
		<path style="fill:#FFFFFF;" d="M2180.473,791.086c0,5.953-4.828,10.777-10.781,10.777h-23.516
			c-5.949,0-10.777-4.824-10.777-10.777l0,0c0-5.945,4.828-10.773,10.777-10.773h23.516
			C2175.645,780.313,2180.473,785.141,2180.473,791.086L2180.473,791.086z"/>
		<path style="fill:#FFFFFF;" d="M2300.363,791.086c0,5.953-4.828,10.777-10.777,10.777h-67.957
			c-5.961,0-10.781-4.824-10.781-10.777l0,0c0-5.945,4.82-10.773,10.781-10.773h67.957
			C2295.535,780.313,2300.363,785.141,2300.363,791.086L2300.363,791.086z"/>
	</g>
	<g>
		<path style="fill:#FFFFFF;" d="M1305.41,169.664c0,5.953-4.832,10.777-10.785,10.777h-23.508c-5.953,0-10.781-4.824-10.781-10.777
			l0,0c0-5.953,4.828-10.773,10.781-10.773h23.508C1300.578,158.891,1305.41,163.711,1305.41,169.664L1305.41,169.664z"/>
		<path style="fill:#FFFFFF;" d="M1495.828,169.664c0,5.953-4.828,10.777-10.781,10.777h-23.516
			c-5.949,0-10.777-4.824-10.777-10.777l0,0c0-5.953,4.828-10.773,10.777-10.773h23.516
			C1491,158.891,1495.828,163.711,1495.828,169.664L1495.828,169.664z"/>
		<path style="fill:#FFFFFF;" d="M1425.297,169.664c0,5.953-4.82,10.777-10.773,10.777h-67.961c-5.953,0-10.777-4.824-10.777-10.777
			l0,0c0-5.953,4.824-10.773,10.777-10.773h67.961C1420.477,158.891,1425.297,163.711,1425.297,169.664L1425.297,169.664z"/>
	</g>
	<path style="fill:#FFFFFF;" d="M2191.148,109.391c-5.613,3.953-13.355,2.605-17.297-2.996c-3.945-5.605-2.594-13.355,3.016-17.293
		c5.609-3.945,13.355-2.605,17.285,3.004C2198.102,97.719,2196.758,105.457,2191.148,109.391z"/>
	<path style="fill:#FFFFFF;" d="M700.871,104.039c-5.621,3.953-13.359,2.605-17.301-2.996c-3.949-5.605-2.598-13.359,3.012-17.293
		c5.613-3.945,13.356-2.605,17.293,3.008C707.82,92.367,706.473,100.105,700.871,104.039z"/>
	<path style="fill:#FFFFFF;" d="M2356.297,1000.398c-5.617,3.949-13.355,2.602-17.301-3.004c-3.945-5.602-2.594-13.355,3.016-17.293
		s13.352-2.598,17.289,3.016C2363.25,988.723,2361.906,996.461,2356.297,1000.398z"/>
	<path style="fill:#FFFFFF;" d="M1960.715,981.199c-5.617,3.961-13.355,2.609-17.297-2.992c-3.945-5.605-2.602-13.355,3.016-17.293
		c5.609-3.949,13.348-2.602,17.289,3.004C1967.672,969.531,1966.324,977.273,1960.715,981.199z"/>
</g>
</svg>
